<svg width="224" height="83" viewBox="0 0 224 83" fill="none" xmlns="http://www.w3.org/2000/svg">
<path d="M223.129 50.2108H137.054V65.2088H223.129V50.2108Z" fill="#333333"/>
<path d="M46.4136 50.2108V22.1619V17.193V16.1021C46.4136 14.2058 44.623 12.3898 42.7267 12.3898H42.4841C42.4202 12.3898 42.3609 12.4048 42.2983 12.4087L42.2813 12.3898C42.2813 12.3898 26.8966 12.3898 13.7408 12.3898C9.61632 12.3898 8.00958 15.3496 6.51434 17.5497C3.34846 22.2089 0.114764 30.3143 0.0612924 38.6108L0.0541283 38.5496L0 65.2088H16.8741H19.8756H133.793V50.2108H46.4136Z" fill="#333333"/>
<path d="M43.1538 15.6501V31.8552C43.1538 31.8552 31.9444 37.3894 2.87695 41.27C2.87695 41.27 3.16451 22.171 12.7045 15.6501H43.1538Z" fill="white"/>
<path d="M33.3309 76.9808C39.4442 76.9808 44.4001 72.0249 44.4001 65.9116C44.4001 59.7983 39.4442 54.8424 33.3309 54.8424C27.2175 54.8424 22.2617 59.7983 22.2617 65.9116C22.2617 72.0249 27.2175 76.9808 33.3309 76.9808Z" fill="#333333" stroke="white" stroke-width="1.64036" stroke-miterlimit="10"/>
<path d="M33.5157 73.0988C37.4857 72.9995 40.6236 69.7007 40.5243 65.7306C40.4251 61.7606 37.1262 58.6227 33.1562 58.722C29.1861 58.8213 26.0483 62.1201 26.1475 66.0901C26.2468 70.0602 29.5456 73.1981 33.5157 73.0988Z" fill="white"/>
<path d="M35.4325 65.9114C35.4325 67.0709 34.4915 68.0118 33.3315 68.0118C32.1721 68.0118 31.2305 67.0715 31.2305 65.9114C31.2305 64.7514 32.1714 63.8104 33.3315 63.8104C34.4915 63.8098 35.4325 64.7507 35.4325 65.9114Z" fill="white" stroke="#333333" stroke-width="1.64036" stroke-miterlimit="10"/>
<path d="M127.272 65.9115C127.272 72.0241 122.316 76.9806 116.202 76.9806C110.089 76.9806 105.134 72.0241 105.134 65.9115C105.134 59.7975 110.089 54.8423 116.202 54.8423C122.316 54.8423 127.272 59.7975 127.272 65.9115Z" fill="#333333" stroke="white" stroke-width="1.64036" stroke-miterlimit="10"/>
<path d="M123.393 65.9116C123.393 69.8829 120.173 73.1022 116.203 73.1022C112.232 73.1022 109.013 69.8829 109.013 65.9116C109.013 61.9404 112.233 58.7211 116.203 58.7211C120.173 58.7211 123.393 61.9398 123.393 65.9116Z" fill="white"/>
<path d="M118.303 65.9116C118.303 67.071 117.362 68.0119 116.202 68.0119C115.042 68.0119 114.101 67.0716 114.101 65.9116C114.101 64.7515 115.042 63.8105 116.202 63.8105C117.362 63.8099 118.303 64.7509 118.303 65.9116Z" fill="white" stroke="#333333" stroke-width="1.64036" stroke-miterlimit="10"/>
<path d="M91.9108 65.8446C91.9108 71.9572 86.9543 76.9137 80.841 76.9137C74.7283 76.9137 69.7725 71.9572 69.7725 65.8446C69.7725 59.7306 74.7283 54.7754 80.841 54.7754C86.9549 54.7747 91.9108 59.7306 91.9108 65.8446Z" fill="#333333" stroke="white" stroke-width="1.64036" stroke-miterlimit="10"/>
<path d="M88.0309 65.8446C88.0309 69.8158 84.8109 73.0352 80.841 73.0352C76.8697 73.0352 73.6504 69.8158 73.6504 65.8446C73.6504 61.8734 76.8704 58.6541 80.841 58.6541C84.8115 58.6541 88.0309 61.8728 88.0309 65.8446Z" fill="white"/>
<path d="M82.9416 65.8446C82.9416 67.004 82.0013 67.9449 80.8406 67.9449C79.6799 67.9449 78.7402 67.0046 78.7402 65.8446C78.7402 64.6845 79.6799 63.7435 80.8406 63.7435C82.0013 63.7435 82.9416 64.6838 82.9416 65.8446Z" fill="white" stroke="#333333" stroke-width="1.64036" stroke-miterlimit="10"/>
<path d="M217.701 65.9116C217.701 72.0243 212.744 76.9808 206.631 76.9808C200.518 76.9808 195.562 72.0243 195.562 65.9116C195.562 59.7976 200.518 54.8424 206.631 54.8424C212.744 54.8418 217.701 59.7976 217.701 65.9116Z" fill="#333333" stroke="white" stroke-width="1.64036" stroke-miterlimit="10"/>
<path d="M213.821 65.9118C213.821 69.883 210.602 73.1023 206.63 73.1023C202.66 73.1023 199.44 69.883 199.44 65.9118C199.44 61.9406 202.66 58.7212 206.63 58.7212C210.602 58.7212 213.821 61.9399 213.821 65.9118Z" fill="white"/>
<path d="M208.731 65.9117C208.731 67.0711 207.791 68.0121 206.63 68.0121C205.471 68.0121 204.53 67.0718 204.53 65.9117C204.53 64.7516 205.471 63.8107 206.63 63.8107C207.791 63.81 208.731 64.751 208.731 65.9117Z" fill="white" stroke="#333333" stroke-width="1.64036" stroke-miterlimit="10"/>
<path d="M191.67 65.9117C191.67 72.0244 186.712 76.9809 180.6 76.9809C174.486 76.9809 169.531 72.0244 169.531 65.9117C169.531 59.7977 174.486 54.8425 180.6 54.8425C186.712 54.8419 191.67 59.7977 191.67 65.9117Z" fill="#333333" stroke="white" stroke-width="1.64036" stroke-miterlimit="10"/>
<path d="M187.79 65.9115C187.79 69.8827 184.57 73.1021 180.599 73.1021C176.628 73.1021 173.409 69.8827 173.409 65.9115C173.409 61.9403 176.628 58.7209 180.599 58.7209C184.569 58.7209 187.79 61.9397 187.79 65.9115Z" fill="white"/>
<path d="M182.699 65.9116C182.699 67.071 181.759 68.0119 180.598 68.0119C179.438 68.0119 178.497 67.0716 178.497 65.9116C178.497 64.7515 179.437 63.8105 180.598 63.8105C181.759 63.8099 182.699 64.7509 182.699 65.9116Z" fill="white" stroke="#333333" stroke-width="1.64036" stroke-miterlimit="10"/>
<path d="M6.72293 59.9921C7.52108 59.9921 8.1673 60.4981 8.1673 61.2962C8.1673 62.0931 7.52108 62.6004 6.72293 62.6004H3.93592C3.13776 62.6004 2.49023 62.0931 2.49023 61.2962C2.49023 60.4981 3.13776 59.9921 3.93592 59.9921H6.72293Z" fill="white"/>
<path d="M143.527 59.9921C144.325 59.9921 144.972 60.4981 144.972 61.2962C144.972 62.0931 144.325 62.6004 143.527 62.6004H140.74C139.941 62.6004 139.294 62.0931 139.294 61.2962C139.294 60.4981 139.941 59.9921 140.74 59.9921H143.527Z" fill="white"/>
<path d="M220.044 52.1669C220.843 52.1669 221.489 52.6729 221.489 53.471C221.489 54.2672 220.843 54.7752 220.044 54.7752H217.258C216.459 54.7752 215.812 54.2672 215.812 53.471C215.812 52.6729 216.459 52.1669 217.258 52.1669H220.044Z" fill="white"/>
<path d="M30.7629 14.9979H28.8066V36.5168H30.7629V14.9979Z" fill="#333333"/>
<path d="M130.491 12.3898H53.3936C51.7927 12.3898 50.3262 14.0037 50.3262 15.6039V26.038V39.9502V46.9504H133.793V39.9502V26.038V15.6039C133.793 14.0037 132.092 12.3898 130.491 12.3898Z" fill="#333333"/>
<path d="M220.921 12.3898H139.766C138.165 12.3898 137.054 14.0037 137.054 15.6039V26.038V39.9502V46.9504H223.129V39.9502V26.038V15.6039C223.129 14.0037 222.521 12.3898 220.921 12.3898Z" fill="#333333"/>
<circle cx="133.562" cy="41.0816" r="41.0815" fill="#333333"/>
<mask id="mask0_611_69" style="mask-type:alpha" maskUnits="userSpaceOnUse" x="94" y="2" width="79" height="78">
<circle cx="133.4" cy="40.9191" r="38.7171" fill="white"/>
</mask>
<g mask="url(#mask0_611_69)">
<rect x="84.6543" y="-5.59717" width="98.0462" height="98.0462" fill="white"/>
</g>
<path d="M117.767 35.9234L113.492 49.7722H108.952L115.395 32.2384H118.273L117.767 35.9234ZM121.307 49.7722L117.02 35.9234L116.466 32.2384H119.381L125.859 49.7722H121.307ZM121.139 43.2332V46.4967H112.143V43.2332H121.139ZM132.844 49.7722H128.954L128.978 46.5208H132.844C133.647 46.5208 134.325 46.3281 134.879 45.9427C135.441 45.5574 135.867 44.9833 136.156 44.2207C136.453 43.4499 136.601 42.5026 136.601 41.3786V40.62C136.601 39.777 136.517 39.0384 136.348 38.4042C136.188 37.7619 135.947 37.228 135.626 36.8025C135.305 36.369 134.903 36.0439 134.422 35.8271C133.948 35.6103 133.402 35.5019 132.784 35.5019H128.882V32.2384H132.784C133.972 32.2384 135.06 32.4432 136.047 32.8526C137.043 33.254 137.902 33.8321 138.624 34.5867C139.355 35.3334 139.917 36.2205 140.31 37.2481C140.712 38.2677 140.912 39.3997 140.912 40.6441V41.3786C140.912 42.615 140.712 43.747 140.31 44.7746C139.917 45.8022 139.359 46.6894 138.636 47.436C137.914 48.1826 137.059 48.7607 136.071 49.1701C135.092 49.5715 134.016 49.7722 132.844 49.7722ZM131.375 32.2384V49.7722H127.148V32.2384H131.375ZM143.116 32.2384H150.016C151.365 32.2384 152.537 32.4392 153.533 32.8406C154.528 33.242 155.295 33.8361 155.833 34.6228C156.379 35.4096 156.652 36.381 156.652 37.5371C156.652 38.5406 156.495 39.3796 156.182 40.054C155.869 40.7284 155.432 41.2863 154.87 41.7279C154.316 42.1614 153.669 42.5187 152.931 42.7997L151.546 43.5824H145.753L145.729 40.3189H150.016C150.554 40.3189 151 40.2226 151.353 40.0299C151.706 39.8372 151.971 39.5643 152.148 39.211C152.333 38.8497 152.425 38.4202 152.425 37.9225C152.425 37.4167 152.333 36.9832 152.148 36.6219C151.963 36.2606 151.69 35.9836 151.329 35.791C150.976 35.5983 150.538 35.5019 150.016 35.5019H147.343V49.7722H143.116V32.2384ZM152.714 49.7722L148.836 42.0169L153.316 41.9928L157.242 49.5916V49.7722H152.714Z" fill="#333333"/>
</svg>
