<svg width="224" height="83" viewBox="0 0 224 83" fill="none" xmlns="http://www.w3.org/2000/svg">
<path d="M223.129 50.2108H137.054V65.2088H223.129V50.2108Z" fill="#333333"/>
<path d="M46.4136 50.2108V22.1619V17.193V16.1021C46.4136 14.2058 44.623 12.3898 42.7267 12.3898H42.4841C42.4202 12.3898 42.3609 12.4048 42.2983 12.4087L42.2813 12.3898C42.2813 12.3898 26.8966 12.3898 13.7408 12.3898C9.61632 12.3898 8.00958 15.3496 6.51434 17.5497C3.34846 22.2089 0.114764 30.3143 0.0612924 38.6108L0.0541283 38.5496L0 65.2088H16.8741H19.8756H133.793V50.2108H46.4136Z" fill="#333333"/>
<path d="M43.1538 15.6501V31.8552C43.1538 31.8552 31.9444 37.3894 2.87695 41.27C2.87695 41.27 3.16451 22.171 12.7045 15.6501H43.1538Z" fill="white"/>
<path d="M33.3309 76.9808C39.4442 76.9808 44.4001 72.0249 44.4001 65.9116C44.4001 59.7983 39.4442 54.8424 33.3309 54.8424C27.2175 54.8424 22.2617 59.7983 22.2617 65.9116C22.2617 72.0249 27.2175 76.9808 33.3309 76.9808Z" fill="#333333" stroke="white" stroke-width="1.64036" stroke-miterlimit="10"/>
<path d="M33.5147 73.0987C37.4848 72.9994 40.6226 69.7005 40.5234 65.7305C40.4241 61.7604 37.1252 58.6226 33.1552 58.7218C29.1851 58.8211 26.0473 62.12 26.1466 66.09C26.2458 70.0601 29.5447 73.1979 33.5147 73.0987Z" fill="white"/>
<path d="M35.4315 65.9113C35.4315 67.0707 34.4906 68.0117 33.3305 68.0117C32.1711 68.0117 31.2295 67.0714 31.2295 65.9113C31.2295 64.7513 32.1704 63.8103 33.3305 63.8103C34.4906 63.8097 35.4315 64.7506 35.4315 65.9113Z" fill="white" stroke="#333333" stroke-width="1.64036" stroke-miterlimit="10"/>
<path d="M127.272 65.9115C127.272 72.0241 122.317 76.9806 116.203 76.9806C110.09 76.9806 105.135 72.0241 105.135 65.9115C105.135 59.7975 110.09 54.8423 116.203 54.8423C122.317 54.8423 127.272 59.7975 127.272 65.9115Z" fill="#333333" stroke="white" stroke-width="1.64036" stroke-miterlimit="10"/>
<path d="M123.394 65.9116C123.394 69.8829 120.174 73.1022 116.204 73.1022C112.233 73.1022 109.014 69.8829 109.014 65.9116C109.014 61.9404 112.234 58.7211 116.204 58.7211C120.174 58.7211 123.394 61.9398 123.394 65.9116Z" fill="white"/>
<path d="M118.304 65.9116C118.304 67.071 117.363 68.0119 116.203 68.0119C115.043 68.0119 114.102 67.0716 114.102 65.9116C114.102 64.7515 115.043 63.8105 116.203 63.8105C117.363 63.8099 118.304 64.7509 118.304 65.9116Z" fill="white" stroke="#333333" stroke-width="1.64036" stroke-miterlimit="10"/>
<path d="M91.9118 65.8446C91.9118 71.9572 86.9553 76.9137 80.8419 76.9137C74.7293 76.9137 69.7734 71.9572 69.7734 65.8446C69.7734 59.7306 74.7293 54.7754 80.8419 54.7754C86.9559 54.7747 91.9118 59.7306 91.9118 65.8446Z" fill="#333333" stroke="white" stroke-width="1.64036" stroke-miterlimit="10"/>
<path d="M88.0318 65.8446C88.0318 69.8158 84.8118 73.0352 80.8419 73.0352C76.8707 73.0352 73.6514 69.8158 73.6514 65.8446C73.6514 61.8734 76.8714 58.6541 80.8419 58.6541C84.8125 58.6541 88.0318 61.8728 88.0318 65.8446Z" fill="white"/>
<path d="M82.9416 65.8446C82.9416 67.004 82.0013 67.9449 80.8406 67.9449C79.6799 67.9449 78.7402 67.0046 78.7402 65.8446C78.7402 64.6845 79.6799 63.7435 80.8406 63.7435C82.0013 63.7435 82.9416 64.6838 82.9416 65.8446Z" fill="white" stroke="#333333" stroke-width="1.64036" stroke-miterlimit="10"/>
<path d="M217.701 65.9116C217.701 72.0243 212.744 76.9808 206.631 76.9808C200.518 76.9808 195.562 72.0243 195.562 65.9116C195.562 59.7976 200.518 54.8424 206.631 54.8424C212.744 54.8418 217.701 59.7976 217.701 65.9116Z" fill="#333333" stroke="white" stroke-width="1.64036" stroke-miterlimit="10"/>
<path d="M213.822 65.9118C213.822 69.883 210.603 73.1023 206.631 73.1023C202.661 73.1023 199.441 69.883 199.441 65.9118C199.441 61.9406 202.661 58.7212 206.631 58.7212C210.603 58.7212 213.822 61.9399 213.822 65.9118Z" fill="white"/>
<path d="M208.732 65.9117C208.732 67.0711 207.792 68.0121 206.631 68.0121C205.472 68.0121 204.531 67.0718 204.531 65.9117C204.531 64.7516 205.472 63.8107 206.631 63.8107C207.792 63.81 208.732 64.751 208.732 65.9117Z" fill="white" stroke="#333333" stroke-width="1.64036" stroke-miterlimit="10"/>
<path d="M191.67 65.9117C191.67 72.0244 186.712 76.9809 180.6 76.9809C174.486 76.9809 169.531 72.0244 169.531 65.9117C169.531 59.7977 174.486 54.8425 180.6 54.8425C186.712 54.8419 191.67 59.7977 191.67 65.9117Z" fill="#333333" stroke="white" stroke-width="1.64036" stroke-miterlimit="10"/>
<path d="M187.79 65.9115C187.79 69.8827 184.57 73.1021 180.599 73.1021C176.628 73.1021 173.409 69.8827 173.409 65.9115C173.409 61.9403 176.628 58.7209 180.599 58.7209C184.569 58.7209 187.79 61.9397 187.79 65.9115Z" fill="white"/>
<path d="M182.699 65.9116C182.699 67.071 181.759 68.0119 180.598 68.0119C179.438 68.0119 178.497 67.0716 178.497 65.9116C178.497 64.7515 179.437 63.8105 180.598 63.8105C181.759 63.8099 182.699 64.7509 182.699 65.9116Z" fill="white" stroke="#333333" stroke-width="1.64036" stroke-miterlimit="10"/>
<path d="M6.72293 59.9921C7.52108 59.9921 8.1673 60.4981 8.1673 61.2962C8.1673 62.0931 7.52108 62.6004 6.72293 62.6004H3.93592C3.13776 62.6004 2.49023 62.0931 2.49023 61.2962C2.49023 60.4981 3.13776 59.9921 3.93592 59.9921H6.72293Z" fill="white"/>
<path d="M143.527 59.9921C144.325 59.9921 144.972 60.4981 144.972 61.2962C144.972 62.0931 144.325 62.6004 143.527 62.6004H140.74C139.941 62.6004 139.294 62.0931 139.294 61.2962C139.294 60.4981 139.941 59.9921 140.74 59.9921H143.527Z" fill="white"/>
<path d="M220.044 52.1669C220.843 52.1669 221.489 52.6729 221.489 53.471C221.489 54.2672 220.843 54.7752 220.044 54.7752H217.258C216.459 54.7752 215.812 54.2672 215.812 53.471C215.812 52.6729 216.459 52.1669 217.258 52.1669H220.044Z" fill="white"/>
<path d="M30.7629 14.9979H28.8066V36.5168H30.7629V14.9979Z" fill="#333333"/>
<path d="M130.491 12.3898H53.3936C51.7927 12.3898 50.3262 14.0037 50.3262 15.6039V26.038V39.9502V46.9504H133.793V39.9502V26.038V15.6039C133.793 14.0037 132.092 12.3898 130.491 12.3898Z" fill="#333333"/>
<path d="M220.921 12.3898H139.766C138.165 12.3898 137.054 14.0037 137.054 15.6039V26.038V39.9502V46.9504H223.129V39.9502V26.038V15.6039C223.129 14.0037 222.521 12.3898 220.921 12.3898Z" fill="#333333"/>
<circle cx="133.562" cy="41.0816" r="41.0815" fill="#333333"/>
<mask id="mask0_346_604" style="mask-type:alpha" maskUnits="userSpaceOnUse" x="94" y="2" width="79" height="78">
<circle cx="133.4" cy="40.9191" r="38.7171" fill="white"/>
</mask>
<g mask="url(#mask0_346_604)">
<rect x="84.6543" y="-5.59717" width="98.0462" height="98.0462" fill="white"/>
<path d="M161.079 66.0775C161.778 64.8513 162.158 63.4525 162.158 62.021C162.158 57.503 158.483 53.8272 153.965 53.8272H153.377V43.3222C153.377 42.7013 152.874 42.198 152.253 42.198C151.632 42.198 151.128 42.7013 151.128 43.3222V53.8272H139.238C139.238 28.6733 139.238 52.3744 139.238 26.7211C142.45 27.8874 148.206 27.7867 151.128 26.7211V43.3951C151.128 44.0159 151.632 44.5193 152.253 44.5193C152.874 44.5193 153.377 44.0159 153.377 43.3951V24.4281C153.377 21.3735 146.022 21.2854 145.183 21.2854C144.344 21.2854 136.989 21.3735 136.989 24.4281C136.989 24.4295 136.989 24.4307 136.989 24.432V38.3941C134.754 37.5921 131.61 37.5563 131.079 37.5563C130.24 37.5563 122.885 37.6444 122.885 40.699V53.8272H121.884H107.745C107.744 53.8272 107.743 53.8274 107.742 53.8274C103.225 53.829 99.5508 57.504 99.5508 62.021C99.5508 63.4962 99.9448 64.8804 100.63 66.0775C96.1328 66.102 92.4814 69.7671 92.4814 74.27C92.4814 78.7871 96.1555 82.462 100.672 82.4636C100.673 82.4636 100.674 82.4638 100.675 82.4638H151.915C152.536 82.4638 153.039 81.9604 153.039 81.3396C153.039 80.7187 152.536 80.2153 151.915 80.2153H134.586C136.166 78.7194 137.147 76.588 137.147 74.27C137.147 72.0872 136.259 69.9106 134.586 68.3247H161.034C164.312 68.3247 166.98 70.9918 166.98 74.27C166.98 77.5482 164.312 80.2153 161.034 80.2153H151.739C151.118 80.2153 150.615 80.7187 150.615 81.3396C150.615 81.9604 151.118 82.4638 151.739 82.4638H161.034C165.552 82.4638 169.228 78.7882 169.228 74.27C169.228 69.7671 165.577 66.1019 161.079 66.0775ZM150.827 24.428C148.292 25.6733 141.763 25.5303 139.539 24.428C141.954 23.2399 148.409 23.2388 150.827 24.428ZM131.079 39.8047C133.961 39.8047 135.92 40.3039 136.723 40.699C134.314 41.9036 127.764 41.8367 125.434 40.699C126.237 40.3039 128.196 39.8047 131.079 39.8047ZM125.133 42.9921C128.274 44.1373 134.008 44.0733 136.989 43.0041V53.8272H125.133V42.9921ZM121.884 56.0758C125.161 56.0758 127.829 58.7421 127.829 62.0211C127.829 65.2757 125.178 67.9664 121.884 67.9664C118.605 67.9664 115.938 65.2995 115.938 62.0211C115.938 58.7432 118.605 56.0758 121.884 56.0758ZM116.251 56.0756C115.676 56.6205 115.182 57.2561 114.814 57.8819C114.425 57.2198 113.926 56.5955 113.377 56.0756H116.251ZM107.745 56.0758C111.022 56.0758 113.69 58.7423 113.69 62.0211C113.69 65.2993 111.023 67.9664 107.745 67.9664C104.467 67.9664 101.799 65.2995 101.799 62.0211C101.799 58.7427 104.467 56.0758 107.745 56.0758ZM100.675 80.2153C97.397 80.2153 94.7299 77.5484 94.7299 74.27C94.7299 70.9916 97.397 68.3247 100.675 68.3247C103.953 68.3247 106.621 70.9918 106.621 74.27C106.621 77.5478 103.954 80.2153 100.675 80.2153ZM106.308 80.2155C106.876 79.6777 107.371 79.0448 107.745 78.4092C108.131 79.0658 108.628 79.6912 109.181 80.2155H106.308ZM114.814 80.2153C111.535 80.2153 108.869 77.5479 108.869 74.27C108.869 70.9918 111.536 68.3247 114.814 68.3247C118.092 68.3247 120.759 70.9918 120.759 74.27C120.759 77.5478 118.093 80.2153 114.814 80.2153ZM120.447 80.2155C120.996 79.6948 121.496 79.0698 121.884 78.4092C122.264 79.0557 122.759 79.6832 123.32 80.2155H120.447ZM134.899 74.27C134.899 77.5482 132.232 80.2153 128.953 80.2153C125.675 80.2153 123.008 77.5481 123.008 74.27C123.008 70.9797 125.691 68.3247 128.953 68.3247C132.232 68.3247 134.899 70.9918 134.899 74.27ZM158.311 66.0763H128.999C129.735 64.7894 130.077 63.3738 130.077 62.021C130.077 59.8343 129.186 57.6563 127.516 56.0756H153.965C157.243 56.0756 159.91 58.7427 159.91 62.021C159.91 63.5486 159.345 64.9729 158.311 66.0763Z" fill="#333333"/>
</g>
</svg>
