<svg width="224" height="83" viewBox="0 0 224 83" fill="none" xmlns="http://www.w3.org/2000/svg">
<path d="M223.129 50.2106H137.054V65.2086H223.129V50.2106Z" fill="#333333"/>
<path d="M46.4136 50.2106V22.1617V17.1928V16.1019C46.4136 14.2056 44.623 12.3895 42.7267 12.3895H42.4841C42.4202 12.3895 42.3609 12.4045 42.2983 12.4084L42.2813 12.3895C42.2813 12.3895 26.8966 12.3895 13.7408 12.3895C9.61632 12.3895 8.00958 15.3494 6.51434 17.5495C3.34846 22.2087 0.114764 30.3141 0.0612924 38.6106L0.0541283 38.5493L0 65.2086H16.8741H19.8756H133.793V50.2106H46.4136Z" fill="#333333"/>
<path d="M43.1538 15.6499V31.8549C43.1538 31.8549 31.9444 37.3892 2.87695 41.2698C2.87695 41.2698 3.16451 22.1708 12.7045 15.6499H43.1538Z" fill="white"/>
<path d="M33.3309 76.9806C39.4442 76.9806 44.4001 72.0248 44.4001 65.9115C44.4001 59.7981 39.4442 54.8423 33.3309 54.8423C27.2175 54.8423 22.2617 59.7981 22.2617 65.9115C22.2617 72.0248 27.2175 76.9806 33.3309 76.9806Z" fill="#333333" stroke="white" stroke-width="1.64036" stroke-miterlimit="10"/>
<path d="M33.5147 73.0985C37.4848 72.9993 40.6226 69.7004 40.5234 65.7304C40.4241 61.7603 37.1252 58.6224 33.1552 58.7217C29.1851 58.821 26.0473 62.1199 26.1466 66.0899C26.2458 70.06 29.5447 73.1978 33.5147 73.0985Z" fill="white"/>
<path d="M35.4306 65.9112C35.4306 67.0706 34.4896 68.0116 33.3295 68.0116C32.1701 68.0116 31.2285 67.0713 31.2285 65.9112C31.2285 64.7511 32.1695 63.8102 33.3295 63.8102C34.4896 63.8095 35.4306 64.7505 35.4306 65.9112Z" fill="white" stroke="#333333" stroke-width="1.64036" stroke-miterlimit="10"/>
<path d="M127.272 65.9113C127.272 72.024 122.317 76.9805 116.203 76.9805C110.09 76.9805 105.135 72.024 105.135 65.9113C105.135 59.7974 110.09 54.8422 116.203 54.8422C122.317 54.8422 127.272 59.7974 127.272 65.9113Z" fill="#333333" stroke="white" stroke-width="1.64036" stroke-miterlimit="10"/>
<path d="M123.393 65.9115C123.393 69.8827 120.173 73.1021 116.203 73.1021C112.232 73.1021 109.013 69.8827 109.013 65.9115C109.013 61.9403 112.233 58.7209 116.203 58.7209C120.173 58.7209 123.393 61.9397 123.393 65.9115Z" fill="white"/>
<path d="M118.303 65.9114C118.303 67.0709 117.362 68.0118 116.202 68.0118C115.042 68.0118 114.101 67.0715 114.101 65.9114C114.101 64.7514 115.042 63.8104 116.202 63.8104C117.362 63.8098 118.303 64.7507 118.303 65.9114Z" fill="white" stroke="#333333" stroke-width="1.64036" stroke-miterlimit="10"/>
<path d="M91.9118 65.8443C91.9118 71.957 86.9553 76.9135 80.8419 76.9135C74.7293 76.9135 69.7734 71.957 69.7734 65.8443C69.7734 59.7304 74.7293 54.7751 80.8419 54.7751C86.9559 54.7745 91.9118 59.7304 91.9118 65.8443Z" fill="#333333" stroke="white" stroke-width="1.64036" stroke-miterlimit="10"/>
<path d="M88.0309 65.8444C88.0309 69.8156 84.8109 73.0349 80.841 73.0349C76.8697 73.0349 73.6504 69.8156 73.6504 65.8444C73.6504 61.8732 76.8704 58.6538 80.841 58.6538C84.8115 58.6538 88.0309 61.8725 88.0309 65.8444Z" fill="white"/>
<path d="M82.9407 65.8443C82.9407 67.0037 82.0003 67.9447 80.8396 67.9447C79.6789 67.9447 78.7393 67.0044 78.7393 65.8443C78.7393 64.6842 79.6789 63.7433 80.8396 63.7433C82.0003 63.7433 82.9407 64.6836 82.9407 65.8443Z" fill="white" stroke="#333333" stroke-width="1.64036" stroke-miterlimit="10"/>
<path d="M217.701 65.9112C217.701 72.0239 212.744 76.9804 206.631 76.9804C200.518 76.9804 195.562 72.0239 195.562 65.9112C195.562 59.7973 200.518 54.842 206.631 54.842C212.744 54.8414 217.701 59.7973 217.701 65.9112Z" fill="#333333" stroke="white" stroke-width="1.64036" stroke-miterlimit="10"/>
<path d="M213.822 65.9114C213.822 69.8826 210.603 73.102 206.631 73.102C202.661 73.102 199.441 69.8826 199.441 65.9114C199.441 61.9402 202.661 58.7208 206.631 58.7208C210.603 58.7208 213.822 61.9395 213.822 65.9114Z" fill="white"/>
<path d="M208.732 65.9113C208.732 67.0707 207.792 68.0117 206.631 68.0117C205.472 68.0117 204.531 67.0714 204.531 65.9113C204.531 64.7513 205.472 63.8103 206.631 63.8103C207.792 63.8097 208.732 64.7506 208.732 65.9113Z" fill="white" stroke="#333333" stroke-width="1.64036" stroke-miterlimit="10"/>
<path d="M191.67 65.9116C191.67 72.0243 186.712 76.9808 180.6 76.9808C174.486 76.9808 169.531 72.0243 169.531 65.9116C169.531 59.7976 174.486 54.8424 180.6 54.8424C186.712 54.8418 191.67 59.7976 191.67 65.9116Z" fill="#333333" stroke="white" stroke-width="1.64036" stroke-miterlimit="10"/>
<path d="M187.791 65.9114C187.791 69.8826 184.571 73.102 180.6 73.102C176.629 73.102 173.41 69.8826 173.41 65.9114C173.41 61.9402 176.629 58.7208 180.6 58.7208C184.57 58.7208 187.791 61.9395 187.791 65.9114Z" fill="white"/>
<path d="M182.7 65.9114C182.7 67.0709 181.76 68.0118 180.599 68.0118C179.439 68.0118 178.498 67.0715 178.498 65.9114C178.498 64.7514 179.438 63.8104 180.599 63.8104C181.76 63.8098 182.7 64.7507 182.7 65.9114Z" fill="white" stroke="#333333" stroke-width="1.64036" stroke-miterlimit="10"/>
<path d="M6.72293 59.9919C7.52108 59.9919 8.1673 60.498 8.1673 61.2961C8.1673 62.093 7.52108 62.6003 6.72293 62.6003H3.93592C3.13776 62.6003 2.49023 62.093 2.49023 61.2961C2.49023 60.498 3.13776 59.9919 3.93592 59.9919H6.72293Z" fill="white"/>
<path d="M143.527 59.9919C144.325 59.9919 144.972 60.498 144.972 61.2961C144.972 62.093 144.325 62.6003 143.527 62.6003H140.74C139.941 62.6003 139.294 62.093 139.294 61.2961C139.294 60.498 139.941 59.9919 140.74 59.9919H143.527Z" fill="white"/>
<path d="M220.044 52.1667C220.843 52.1667 221.489 52.6728 221.489 53.4709C221.489 54.2671 220.843 54.7751 220.044 54.7751H217.258C216.459 54.7751 215.812 54.2671 215.812 53.4709C215.812 52.6728 216.459 52.1667 217.258 52.1667H220.044Z" fill="white"/>
<path d="M30.7639 14.9977H28.8076V36.5166H30.7639V14.9977Z" fill="#333333"/>
<path d="M130.491 12.3895H53.3936C51.7927 12.3895 50.3262 14.0034 50.3262 15.6037V26.0377V39.95V46.9501H133.793V39.95V26.0377V15.6037C133.793 14.0034 132.092 12.3895 130.491 12.3895Z" fill="#333333"/>
<path d="M220.921 12.3895H139.766C138.165 12.3895 137.054 14.0034 137.054 15.6037V26.0377V39.95V46.9501H223.129V39.95V26.0377V15.6037C223.129 14.0034 222.521 12.3895 220.921 12.3895Z" fill="#333333"/>
<circle cx="133.564" cy="41.0815" r="41.0815" fill="#333333"/>
<mask id="mask0_346_509" style="mask-type:alpha" maskUnits="userSpaceOnUse" x="94" y="2" width="79" height="78">
<circle cx="133.402" cy="40.9191" r="38.7171" fill="white"/>
</mask>
<g mask="url(#mask0_346_509)">
<rect x="84.6562" y="-5.59717" width="98.0462" height="98.0462" fill="white"/>
<path d="M113.696 66.2949H123.64C124.432 66.2949 125.19 65.9806 125.75 65.4211C126.309 64.8616 126.624 64.1028 126.624 63.3116C126.624 62.5204 126.309 61.7616 125.75 61.2021C125.19 60.6427 124.432 60.3284 123.64 60.3284H113.696C112.905 60.3284 112.146 60.6427 111.587 61.2021C111.027 61.7616 110.713 62.5204 110.713 63.3116C110.713 64.1028 111.027 64.8616 111.587 65.4211C112.146 65.9806 112.905 66.2949 113.696 66.2949ZM113.696 62.3172H123.64C123.904 62.3172 124.157 62.422 124.344 62.6085C124.53 62.795 124.635 63.0479 124.635 63.3116C124.635 63.5754 124.53 63.8283 124.344 64.0148C124.157 64.2013 123.904 64.3061 123.64 64.3061H113.696C113.432 64.3061 113.179 64.2013 112.993 64.0148C112.807 63.8283 112.702 63.5754 112.702 63.3116C112.702 63.0479 112.807 62.795 112.993 62.6085C113.179 62.422 113.432 62.3172 113.696 62.3172Z" fill="#333333"/>
<path d="M163.417 50.3841H149.496V21.5459C149.496 21.2822 149.391 21.0293 149.204 20.8428C149.018 20.6563 148.765 20.5515 148.501 20.5515H118.669C118.405 20.5515 118.152 20.6563 117.965 20.8428C117.779 21.0293 117.674 21.2822 117.674 21.5459V50.3841H103.752C103.488 50.3841 103.236 50.4889 103.049 50.6754C102.863 50.8619 102.758 51.1148 102.758 51.3786V57.3451C102.758 57.6088 102.863 57.8618 103.049 58.0482C103.236 58.2347 103.488 58.3395 103.752 58.3395H104.747V81.2112C104.747 81.4749 104.851 81.7278 105.038 81.9143C105.224 82.1008 105.477 82.2056 105.741 82.2056H131.596C131.86 82.2056 132.113 82.1008 132.299 81.9143C132.486 81.7278 132.59 81.4749 132.59 81.2112V58.3395H134.579V81.2112C134.579 81.4749 134.684 81.7278 134.871 81.9143C135.057 82.1008 135.31 82.2056 135.574 82.2056H161.429C161.692 82.2056 161.945 82.1008 162.132 81.9143C162.318 81.7278 162.423 81.4749 162.423 81.2112V58.3395H163.417C163.681 58.3395 163.934 58.2347 164.121 58.0482C164.307 57.8618 164.412 57.6088 164.412 57.3451V51.3786C164.412 51.1148 164.307 50.8619 164.121 50.6754C163.934 50.4889 163.681 50.3841 163.417 50.3841ZM130.602 30.4957H136.568V32.4846H130.602V30.4957ZM136.568 28.5069H130.602V22.5404H136.568V28.5069ZM119.663 22.5404H128.613V33.479C128.613 33.7427 128.718 33.9957 128.904 34.1821C129.09 34.3686 129.343 34.4734 129.607 34.4734H137.563C137.826 34.4734 138.079 34.3686 138.266 34.1821C138.452 33.9957 138.557 33.7427 138.557 33.479V22.5404H147.507V50.3841H119.663V22.5404ZM104.747 52.373H132.59V56.3507H104.747V52.373ZM130.602 80.2168H106.735V58.3395H130.602V80.2168ZM160.434 80.2168H136.568V58.3395H160.434V80.2168ZM162.423 56.3507H134.579V52.373H162.423V56.3507Z" fill="#333333"/>
<path d="M143.529 66.2949H153.473C154.265 66.2949 155.023 65.9806 155.583 65.4211C156.142 64.8616 156.457 64.1028 156.457 63.3116C156.457 62.5204 156.142 61.7616 155.583 61.2021C155.023 60.6427 154.265 60.3284 153.473 60.3284H143.529C142.738 60.3284 141.979 60.6427 141.42 61.2021C140.86 61.7616 140.546 62.5204 140.546 63.3116C140.546 64.1028 140.86 64.8616 141.42 65.4211C141.979 65.9806 142.738 66.2949 143.529 66.2949ZM143.529 62.3172H153.473C153.737 62.3172 153.99 62.422 154.177 62.6085C154.363 62.795 154.468 63.0479 154.468 63.3116C154.468 63.5754 154.363 63.8283 154.177 64.0148C153.99 64.2013 153.737 64.3061 153.473 64.3061H143.529C143.265 64.3061 143.012 64.2013 142.826 64.0148C142.64 63.8283 142.535 63.5754 142.535 63.3116C142.535 63.0479 142.64 62.795 142.826 62.6085C143.012 62.422 143.265 62.3172 143.529 62.3172Z" fill="#333333"/>
<path d="M134.579 48.3954H144.524C144.787 48.3954 145.04 48.2906 145.227 48.1041C145.413 47.9176 145.518 47.6647 145.518 47.4009V43.4233C145.518 43.1595 145.413 42.9066 145.227 42.7201C145.04 42.5336 144.787 42.4288 144.524 42.4288H134.579C134.316 42.4288 134.063 42.5336 133.876 42.7201C133.69 42.9066 133.585 43.1595 133.585 43.4233V47.4009C133.585 47.6647 133.69 47.9176 133.876 48.1041C134.063 48.2906 134.316 48.3954 134.579 48.3954ZM135.574 44.4177H143.529V46.4065H135.574V44.4177Z" fill="#333333"/>
</g>
</svg>
