<svg width="224" height="83" viewBox="0 0 224 83" fill="none" xmlns="http://www.w3.org/2000/svg">
<path d="M223.129 50.2106H137.054V65.2086H223.129V50.2106Z" fill="#333333"/>
<path d="M46.4136 50.2106V22.1617V17.1928V16.1019C46.4136 14.2056 44.623 12.3895 42.7267 12.3895H42.4841C42.4202 12.3895 42.3609 12.4045 42.2983 12.4084L42.2813 12.3895C42.2813 12.3895 26.8966 12.3895 13.7408 12.3895C9.61632 12.3895 8.00958 15.3494 6.51434 17.5495C3.34846 22.2087 0.114764 30.3141 0.0612924 38.6106L0.0541283 38.5493L0 65.2086H16.8741H19.8756H133.793V50.2106H46.4136Z" fill="#333333"/>
<path d="M43.1538 15.6499V31.8549C43.1538 31.8549 31.9444 37.3892 2.87695 41.2698C2.87695 41.2698 3.16451 22.1708 12.7045 15.6499H43.1538Z" fill="white"/>
<path d="M33.3309 76.9806C39.4442 76.9806 44.4001 72.0248 44.4001 65.9115C44.4001 59.7981 39.4442 54.8423 33.3309 54.8423C27.2175 54.8423 22.2617 59.7981 22.2617 65.9115C22.2617 72.0248 27.2175 76.9806 33.3309 76.9806Z" fill="#333333" stroke="white" stroke-width="1.64036" stroke-miterlimit="10"/>
<path d="M33.5147 73.0985C37.4848 72.9993 40.6226 69.7004 40.5234 65.7304C40.4241 61.7603 37.1252 58.6224 33.1552 58.7217C29.1851 58.821 26.0473 62.1199 26.1466 66.0899C26.2458 70.06 29.5447 73.1978 33.5147 73.0985Z" fill="white"/>
<path d="M35.4315 65.9112C35.4315 67.0706 34.4906 68.0116 33.3305 68.0116C32.1711 68.0116 31.2295 67.0713 31.2295 65.9112C31.2295 64.7511 32.1704 63.8102 33.3305 63.8102C34.4906 63.8095 35.4315 64.7505 35.4315 65.9112Z" fill="white" stroke="#333333" stroke-width="1.64036" stroke-miterlimit="10"/>
<path d="M127.272 65.9113C127.272 72.024 122.317 76.9805 116.203 76.9805C110.09 76.9805 105.135 72.024 105.135 65.9113C105.135 59.7974 110.09 54.8422 116.203 54.8422C122.317 54.8422 127.272 59.7974 127.272 65.9113Z" fill="#333333" stroke="white" stroke-width="1.64036" stroke-miterlimit="10"/>
<path d="M123.393 65.9115C123.393 69.8827 120.173 73.1021 116.203 73.1021C112.232 73.1021 109.013 69.8827 109.013 65.9115C109.013 61.9403 112.233 58.7209 116.203 58.7209C120.173 58.7209 123.393 61.9397 123.393 65.9115Z" fill="white"/>
<path d="M118.303 65.9114C118.303 67.0709 117.362 68.0118 116.202 68.0118C115.042 68.0118 114.101 67.0715 114.101 65.9114C114.101 64.7514 115.042 63.8104 116.202 63.8104C117.362 63.8098 118.303 64.7507 118.303 65.9114Z" fill="white" stroke="#333333" stroke-width="1.64036" stroke-miterlimit="10"/>
<path d="M91.9118 65.8443C91.9118 71.957 86.9553 76.9135 80.8419 76.9135C74.7293 76.9135 69.7734 71.957 69.7734 65.8443C69.7734 59.7304 74.7293 54.7751 80.8419 54.7751C86.9559 54.7745 91.9118 59.7304 91.9118 65.8443Z" fill="#333333" stroke="white" stroke-width="1.64036" stroke-miterlimit="10"/>
<path d="M88.0318 65.8444C88.0318 69.8156 84.8118 73.0349 80.8419 73.0349C76.8707 73.0349 73.6514 69.8156 73.6514 65.8444C73.6514 61.8732 76.8714 58.6538 80.8419 58.6538C84.8125 58.6538 88.0318 61.8725 88.0318 65.8444Z" fill="white"/>
<path d="M82.9416 65.8443C82.9416 67.0037 82.0013 67.9447 80.8406 67.9447C79.6799 67.9447 78.7402 67.0044 78.7402 65.8443C78.7402 64.6842 79.6799 63.7433 80.8406 63.7433C82.0013 63.7433 82.9416 64.6836 82.9416 65.8443Z" fill="white" stroke="#333333" stroke-width="1.64036" stroke-miterlimit="10"/>
<path d="M217.701 65.9113C217.701 72.024 212.744 76.9805 206.631 76.9805C200.518 76.9805 195.562 72.024 195.562 65.9113C195.562 59.7974 200.518 54.8422 206.631 54.8422C212.744 54.8415 217.701 59.7974 217.701 65.9113Z" fill="#333333" stroke="white" stroke-width="1.64036" stroke-miterlimit="10"/>
<path d="M213.822 65.9115C213.822 69.8827 210.603 73.1021 206.631 73.1021C202.661 73.1021 199.441 69.8827 199.441 65.9115C199.441 61.9403 202.661 58.7209 206.631 58.7209C210.603 58.7209 213.822 61.9397 213.822 65.9115Z" fill="white"/>
<path d="M208.732 65.9114C208.732 67.0709 207.792 68.0118 206.631 68.0118C205.472 68.0118 204.531 67.0715 204.531 65.9114C204.531 64.7514 205.472 63.8104 206.631 63.8104C207.792 63.8098 208.732 64.7507 208.732 65.9114Z" fill="white" stroke="#333333" stroke-width="1.64036" stroke-miterlimit="10"/>
<path d="M191.67 65.9116C191.67 72.0243 186.712 76.9808 180.6 76.9808C174.486 76.9808 169.531 72.0243 169.531 65.9116C169.531 59.7976 174.486 54.8424 180.6 54.8424C186.712 54.8418 191.67 59.7976 191.67 65.9116Z" fill="#333333" stroke="white" stroke-width="1.64036" stroke-miterlimit="10"/>
<path d="M187.791 65.9114C187.791 69.8826 184.571 73.102 180.6 73.102C176.629 73.102 173.41 69.8826 173.41 65.9114C173.41 61.9402 176.629 58.7208 180.6 58.7208C184.57 58.7208 187.791 61.9395 187.791 65.9114Z" fill="white"/>
<path d="M182.7 65.9114C182.7 67.0709 181.76 68.0118 180.599 68.0118C179.439 68.0118 178.498 67.0715 178.498 65.9114C178.498 64.7514 179.438 63.8104 180.599 63.8104C181.76 63.8098 182.7 64.7507 182.7 65.9114Z" fill="white" stroke="#333333" stroke-width="1.64036" stroke-miterlimit="10"/>
<path d="M6.72293 59.9919C7.52108 59.9919 8.1673 60.498 8.1673 61.2961C8.1673 62.093 7.52108 62.6003 6.72293 62.6003H3.93592C3.13776 62.6003 2.49023 62.093 2.49023 61.2961C2.49023 60.498 3.13776 59.9919 3.93592 59.9919H6.72293Z" fill="white"/>
<path d="M143.527 59.9919C144.325 59.9919 144.972 60.498 144.972 61.2961C144.972 62.093 144.325 62.6003 143.527 62.6003H140.74C139.941 62.6003 139.294 62.093 139.294 61.2961C139.294 60.498 139.941 59.9919 140.74 59.9919H143.527Z" fill="white"/>
<path d="M220.044 52.1667C220.843 52.1667 221.489 52.6728 221.489 53.4709C221.489 54.2671 220.843 54.7751 220.044 54.7751H217.258C216.459 54.7751 215.812 54.2671 215.812 53.4709C215.812 52.6728 216.459 52.1667 217.258 52.1667H220.044Z" fill="white"/>
<path d="M30.7639 14.9977H28.8076V36.5166H30.7639V14.9977Z" fill="#333333"/>
<path d="M130.491 12.3895H53.3936C51.7927 12.3895 50.3262 14.0034 50.3262 15.6037V26.0377V39.95V46.9501H133.793V39.95V26.0377V15.6037C133.793 14.0034 132.092 12.3895 130.491 12.3895Z" fill="#333333"/>
<path d="M220.921 12.3895H139.766C138.165 12.3895 137.054 14.0034 137.054 15.6037V26.0377V39.95V46.9501H223.129V39.95V26.0377V15.6037C223.129 14.0034 222.521 12.3895 220.921 12.3895Z" fill="#333333"/>
<circle cx="133.563" cy="41.0815" r="41.0815" fill="#333333"/>
<mask id="mask0_346_556" style="mask-type:alpha" maskUnits="userSpaceOnUse" x="94" y="2" width="79" height="78">
<circle cx="133.401" cy="40.919" r="38.7171" fill="white"/>
</mask>
<g mask="url(#mask0_346_556)">
<rect x="84.6553" y="-5.59729" width="98.0462" height="98.0462" fill="white"/>
<path d="M121.622 52.2591C121.989 53.4334 123.677 53.4334 124.044 52.2591L130.062 33.2491C130.356 32.4417 129.695 31.5609 128.815 31.5609H116.851C115.97 31.5609 115.383 32.3683 115.603 33.2491L121.622 52.2591ZM127.127 34.1298L122.869 47.635L118.612 34.1298H127.127Z" fill="#333333"/>
<path fill-rule="evenodd" clip-rule="evenodd" d="M167.788 27.0104V32.8822C167.788 33.5428 167.201 34.1299 166.54 34.1299H160.962L166.173 50.571H166.54C167.201 50.6444 167.788 51.1582 167.788 51.8922V57.764C167.715 58.4246 167.201 59.0118 166.467 59.0118H158.907V61.8009H158.98C159.641 61.8743 160.228 62.3881 160.228 63.122V71.1958H157.586V64.4432H152.962V77.4346H150.393V63.122C150.466 62.4615 150.98 61.8743 151.714 61.8743H151.787V59.0852L115.089 59.0118V61.8009C115.823 61.8009 116.41 62.3881 116.41 63.122V76.7006H113.841V64.4432H109.29V71.1958H106.721V63.2688C106.721 62.5349 107.308 61.9477 108.042 61.9477H108.116V59.1586H100.409C99.6751 59.1586 99.0879 58.5714 99.0879 57.8374V51.9656C99.0879 51.2316 99.6751 50.6444 100.409 50.6444H100.776L105.987 34.2033H100.409C99.6751 34.1299 99.0879 33.6162 99.0879 32.8822V27.0104C99.0879 26.2764 99.6751 25.6892 100.409 25.6892H166.54C167.201 25.7626 167.788 26.2764 167.788 27.0104ZM112.593 59.0852H110.685V61.8743H112.593V59.0852ZM154.283 61.8743H156.191V59.0852H154.283V61.8743ZM159.127 31.561H165.219V28.2581H101.73V31.561H107.749C108.63 31.561 109.217 32.4418 108.997 33.3226L102.978 52.3326C102.758 52.8464 102.317 53.2134 101.73 53.2134V56.5162H165.146V53.14C164.559 53.14 164.045 52.773 163.898 52.2592L157.879 33.2492C157.659 32.4418 158.246 31.561 159.127 31.561Z" fill="#333333"/>
<path d="M142.759 52.2591C143.126 53.4334 144.815 53.4334 145.182 52.2591L151.2 33.2491C151.494 32.4417 150.833 31.5609 149.952 31.5609H137.989C137.108 31.5609 136.521 32.3683 136.741 33.2491L142.759 52.2591ZM148.264 34.1298L144.007 47.635L139.75 34.1298H148.264Z" fill="#333333"/>
<path d="M128.227 53.1399H138.723C139.604 53.1399 140.191 52.2592 139.971 51.4518L134.686 34.9373C134.466 34.2767 133.732 33.9097 133.071 34.1299C132.704 34.2767 132.337 34.5703 132.264 34.9373L127.053 51.4518C126.686 52.3326 127.346 53.1399 128.227 53.1399ZM133.438 39.5614L136.961 50.571H129.989L133.438 39.5614Z" fill="#333333"/>
<path d="M149.365 53.1399H159.861C160.742 53.1399 161.329 52.2592 161.109 51.4518L155.898 34.9373C155.678 34.2767 154.944 33.9097 154.283 34.1299C153.916 34.2767 153.549 34.5703 153.476 34.9373L148.118 51.5252C147.898 52.3326 148.485 53.1399 149.365 53.1399ZM154.577 39.5614L158.1 50.571H151.127L154.577 39.5614Z" fill="#333333"/>
<path d="M107.014 53.1399H117.51C118.391 53.1399 118.978 52.2592 118.758 51.4518L113.473 34.9373C113.253 34.2767 112.519 33.9097 111.859 34.1299C111.492 34.2767 111.125 34.5703 111.051 34.9373L105.84 51.4518C105.546 52.3326 106.134 53.1399 107.014 53.1399ZM112.299 39.5614L115.822 50.571H108.849L112.299 39.5614Z" fill="#333333"/>
</g>
</svg>
