<svg width="285" height="64" viewBox="0 0 285 64" fill="none" xmlns="http://www.w3.org/2000/svg">
<path fill-rule="evenodd" clip-rule="evenodd" d="M129.731 19.5146V38.3795C129.731 38.3795 119.251 40.6976 112.365 40.6433C105.872 40.5921 96.0213 38.3795 96.0213 38.3795V19.5146C96.0213 19.5146 105.933 18.0398 112.365 18.0054C119.194 17.9688 129.731 19.5146 129.731 19.5146ZM112.365 35.6931C117.443 35.6931 121.559 34.6796 121.559 33.4294C121.559 32.1791 117.443 31.1656 112.365 31.1656C107.288 31.1656 103.172 32.1791 103.172 33.4294C103.172 34.6796 107.288 35.6931 112.365 35.6931Z" fill="#D72E33"/>
<path d="M57.2041 18.0054V41.3979H63.3331V36.1157C69.8027 36.1157 82.7417 37.1722 82.7417 41.3979H91.9353C91.9353 37.6249 91.9353 32.3427 63.3331 33.0973V30.0789H91.9353V18.0054C83.7632 17.5023 66.602 17.4017 63.3331 21.0237V18.0054H57.2041Z" fill="#D72E33"/>
<path fill-rule="evenodd" clip-rule="evenodd" d="M134.839 18.0054V39.8887H140.968V36.1157C140.968 36.1157 147.812 36.4478 152.204 36.4478C164.462 36.4478 169.57 33.8519 169.57 33.8519V19.5146C169.57 18.7134 159.419 17.8597 152.204 17.5828C145.83 17.3382 134.839 18.0054 134.839 18.0054ZM141.989 30.8335V27.0605H157.312C157.312 27.0605 163.441 26.8255 163.441 28.9018C163.441 31.1656 157.312 30.8335 157.312 30.8335H141.989Z" fill="#D72E33"/>
<path d="M174.677 33.0973V18.0054H192.043C193.064 21.0238 196.333 27.2115 201.236 27.8151V18.0054H208.387V38.3795C203.279 40.3918 190.204 43.209 174.677 38.3795V35.3611C182.849 36.1157 198.785 36.8703 201.236 33.8519C194.086 33.0973 178.763 32.3427 174.677 33.0973Z" fill="#D72E33"/>
<path d="M213.494 18.0054V40.6433H231.882V33.8519H239.032V40.6433H244.14V18.0054H239.032V27.8151H231.882V18.0054H213.494Z" fill="#D72E33"/>
<path fill-rule="evenodd" clip-rule="evenodd" d="M248.226 18.0054V40.6433C259.122 40.8948 281.731 40.7942 285 38.3795V19.5146C282.957 19.5146 278.871 16.4962 248.226 18.0054ZM255.376 35.7837V32.0107H270.699C270.699 32.0107 276.828 31.7757 276.828 33.8519C276.828 36.1157 270.699 35.7837 270.699 35.7837H255.376Z" fill="#D72E33"/>
<path d="M14.5703 15.7093V7.03658C14.5703 5.35953 15.9298 4 17.6069 4H28.66" stroke="#D72E33" stroke-width="6.07316"/>
<mask id="path-3-inside-1_271_3183" fill="white">
<path d="M17.6125 11.8062C12.9415 11.8062 8.46175 13.3825 5.15883 16.1884C1.85591 18.9943 0.00034938 22.7999 0.00034896 26.7681C0.000348541 30.7362 1.85591 34.5418 5.15883 37.3477C8.46175 40.1536 12.9415 41.7299 17.6125 41.7299L17.6125 37.516C14.257 37.516 11.039 36.3837 8.66631 34.368C6.29363 32.3524 4.96067 29.6186 4.96067 26.7681C4.96067 23.9175 6.29363 21.1837 8.66631 19.1681C11.039 17.1524 14.257 16.0201 17.6125 16.0201L17.6125 11.8062Z"/>
</mask>
<path d="M17.6125 11.8062L24.6574 11.8062L24.6574 4.76132L17.6125 4.76132L17.6125 11.8062ZM17.6125 41.7299L17.6125 48.7748L24.6574 48.7748L24.6574 41.7299L17.6125 41.7299ZM17.6125 37.516L24.6574 37.516L24.6574 30.4712L17.6125 30.4712L17.6125 37.516ZM17.6125 16.0201L17.6125 23.0649L24.6574 23.0649L24.6574 16.0201L17.6125 16.0201ZM17.6125 4.76132C11.4107 4.76132 5.27711 6.84416 0.597736 10.8194L9.71993 21.5574C11.6464 19.9209 14.4722 18.851 17.6125 18.851L17.6125 4.76132ZM0.597736 10.8194C-4.11657 14.8243 -7.04451 20.5263 -7.04452 26.7681L7.04521 26.7681C7.04521 25.0736 7.82839 23.1643 9.71993 21.5574L0.597736 10.8194ZM-7.04452 26.7681C-7.04452 33.0098 -4.11657 38.7118 0.597733 42.7167L9.71993 31.9787C7.82839 30.3718 7.04521 28.4625 7.04521 26.7681L-7.04452 26.7681ZM0.597733 42.7167C5.2771 46.6919 11.4107 48.7748 17.6125 48.7748L17.6125 34.6851C14.4722 34.6851 11.6464 33.6152 9.71993 31.9787L0.597733 42.7167ZM24.6574 41.7299L24.6574 37.516L10.5676 37.516L10.5676 41.7299L24.6574 41.7299ZM17.6125 30.4712C15.7878 30.4712 14.2236 29.8453 13.2274 28.999L4.10521 39.7371C7.85434 42.922 12.7263 44.5609 17.6125 44.5609L17.6125 30.4712ZM13.2274 28.999C12.2661 28.1823 12.0055 27.3449 12.0055 26.7681L-2.0842 26.7681C-2.0842 31.8923 0.321151 36.5224 4.10521 39.7371L13.2274 28.999ZM12.0055 26.7681C12.0055 26.1912 12.2661 25.3538 13.2274 24.5371L4.10521 13.799C0.321152 17.0137 -2.0842 21.6439 -2.0842 26.7681L12.0055 26.7681ZM13.2274 24.5371C14.2236 23.6908 15.7878 23.0649 17.6125 23.0649L17.6125 8.9752C12.7263 8.9752 7.85435 10.6141 4.10521 13.799L13.2274 24.5371ZM24.6574 16.0201L24.6574 11.8062L10.5676 11.8062L10.5676 16.0201L24.6574 16.0201Z" fill="#D72E33" mask="url(#path-3-inside-1_271_3183)"/>
<mask id="path-5-inside-2_271_3183" fill="white">
<path d="M22.4894 11.8062C27.1604 11.8062 31.6402 13.3826 34.9431 16.1885C38.246 18.9944 40.1016 22.8 40.1016 26.7681C40.1016 30.7362 38.246 34.5419 34.9431 37.3477C31.6402 40.1536 27.1604 41.73 22.4894 41.73L22.4894 37.5161C25.8449 37.5161 29.0629 36.3837 31.4356 34.3681C33.8083 32.3524 35.1412 29.6187 35.1412 26.7681C35.1412 23.9176 33.8083 21.1838 31.4356 19.1681C29.0629 17.1525 25.8449 16.0201 22.4894 16.0201L22.4894 11.8062Z"/>
</mask>
<path d="M22.4894 11.8062L15.4445 11.8062L15.4445 4.76138L22.4894 4.76138L22.4894 11.8062ZM22.4894 41.73L22.4894 48.7748L15.4445 48.7748L15.4445 41.73L22.4894 41.73ZM22.4894 37.5161L15.4445 37.5161L15.4445 30.4712L22.4894 30.4712L22.4894 37.5161ZM22.4894 16.0201L22.4894 23.065L15.4445 23.065L15.4445 16.0201L22.4894 16.0201ZM22.4894 4.76138C28.6912 4.76138 34.8248 6.84422 39.5042 10.8194L30.382 21.5575C28.4555 19.9209 25.6297 18.8511 22.4894 18.8511L22.4894 4.76138ZM39.5042 10.8194C44.2185 14.8243 47.1464 20.5263 47.1464 26.7681L33.0567 26.7681C33.0567 25.0736 32.2735 23.1644 30.382 21.5575L39.5042 10.8194ZM47.1464 26.7681C47.1464 33.0099 44.2185 38.7119 39.5042 42.7168L30.382 31.9787C32.2735 30.3718 33.0567 28.4626 33.0567 26.7681L47.1464 26.7681ZM39.5042 42.7168C34.8248 46.692 28.6912 48.7748 22.4894 48.7748L22.4894 34.6851C25.6297 34.6851 28.4555 33.6153 30.382 31.9787L39.5042 42.7168ZM15.4445 41.73L15.4445 37.5161L29.5343 37.5161L29.5343 41.73L15.4445 41.73ZM22.4894 30.4712C24.3141 30.4712 25.8783 29.8454 26.8745 28.999L35.9967 39.7371C32.2476 42.9221 27.3756 44.561 22.4894 44.561L22.4894 30.4712ZM26.8745 28.999C27.8358 28.1824 28.0964 27.345 28.0964 26.7681L42.1861 26.7681C42.1861 31.8923 39.7808 36.5225 35.9967 39.7371L26.8745 28.999ZM28.0964 26.7681C28.0964 26.1912 27.8358 25.3538 26.8745 24.5372L35.9967 13.7991C39.7808 17.0137 42.1861 21.6439 42.1861 26.7681L28.0964 26.7681ZM26.8745 24.5372C25.8783 23.6909 24.3141 23.065 22.4894 23.065L22.4894 8.97526C27.3756 8.97526 32.2476 10.6141 35.9967 13.7991L26.8745 24.5372ZM15.4445 16.0201L15.4445 11.8062L29.5343 11.8062L29.5343 16.0201L15.4445 16.0201Z" fill="#D72E33" mask="url(#path-5-inside-2_271_3183)"/>
<path d="M22.4961 9.20413H28.5723V15.7093H22.4961V9.20413Z" fill="#D72E33"/>
<path d="M16.732 28.0691V20.9134C16.732 20.9134 14.8187 20.6654 13.21 21.5639L13.21 29.2394C13.21 31.3217 15.8517 31.3217 15.8517 31.3217H23.4149V31.8384V40.5656L27.4027 39.7784C27.4027 39.7784 27.5315 27.4186 27.2997 22.2144C27.2432 20.9446 23.4149 20.9134 23.4149 20.9134V28.0691H16.732Z" fill="#D72E33"/>
<path d="M13.21 21.5639C14.8187 20.6654 16.732 20.9134 16.732 20.9134V28.0691H23.4149V20.9134C23.4149 20.9134 27.2432 20.9446 27.2997 22.2144C27.5315 27.4186 27.4027 39.7784 27.4027 39.7784L23.4149 40.5656V31.8384V31.3217H15.8517C15.8517 31.3217 13.21 31.3217 13.21 29.2394M13.21 21.5639C13.21 21.5639 13.21 27.1572 13.21 29.2394M13.21 21.5639L13.21 29.2394" stroke="#D72E33" stroke-width="1.76122"/>
<path d="M47.8818 54.4566H45.0992V61.7483H43.8923V53.367H47.8818V54.4566ZM47.4858 60.994C47.4858 60.6811 47.5585 60.4464 47.7037 60.29C47.8602 60.1335 48.0669 60.0553 48.324 60.0553C48.581 60.0553 48.7821 60.1335 48.9274 60.29C49.0839 60.4464 49.1621 60.6811 49.1621 60.994C49.1621 61.3181 49.0839 61.5584 48.9274 61.7148C48.7821 61.8713 48.581 61.9495 48.324 61.9495C48.0669 61.9495 47.8602 61.8713 47.7037 61.7148C47.5585 61.5584 47.4858 61.3181 47.4858 60.994ZM60.6728 63.9107H59.7844L59.5833 61.7483H53.0793L52.8782 63.9107H51.9898V60.5917H52.962C53.029 60.4688 53.1352 60.1782 53.2805 59.7201C53.4369 59.2619 53.5878 58.6081 53.7331 57.7588C53.8895 56.8983 54.0236 55.8311 54.1354 54.5571C54.2471 53.272 54.2974 51.7578 54.2862 50.0144H59.4492V60.5917H60.6728V63.9107ZM58.192 60.5917V51.1711H55.4932C55.4373 53.6408 55.292 55.6411 55.0573 57.1721C54.8227 58.7031 54.5656 59.843 54.2862 60.5917H58.192ZM62.8519 56.1664V55.0768H63.1536C63.3212 55.0768 63.528 55.0712 63.7738 55.06C64.0197 55.0488 64.2152 55.0265 64.3605 54.993C64.8075 54.8812 65.1875 54.6521 65.5004 54.3057C65.8244 53.9481 65.9865 53.5011 65.9865 52.9647C65.9865 52.2271 65.8077 51.7131 65.4501 51.4225C65.0925 51.1208 64.6399 50.9699 64.0923 50.9699C63.6565 50.9699 63.2709 51.009 62.9357 51.0873C62.6004 51.1655 62.3266 51.2661 62.1143 51.389L61.779 50.3665C61.9802 50.2435 62.3099 50.1206 62.768 49.9977C63.2374 49.8748 63.7626 49.8133 64.3437 49.8133C64.7237 49.8133 65.0925 49.858 65.4501 49.9474C65.8077 50.0368 66.1206 50.1932 66.3888 50.4168C66.6682 50.6291 66.8917 50.9252 67.0593 51.3052C67.2269 51.674 67.3107 52.1377 67.3107 52.6965C67.3107 53.2664 67.1655 53.8028 66.8749 54.3057C66.5955 54.7974 66.1597 55.1662 65.5674 55.412V55.4791C66.1932 55.602 66.6849 55.9037 67.0425 56.3843C67.4113 56.8536 67.5957 57.4906 67.5957 58.2952C67.5957 58.9434 67.4951 59.4966 67.294 59.9547C67.104 60.4129 66.8414 60.7929 66.5061 61.0946C66.1821 61.3852 65.8021 61.6031 65.3663 61.7483C64.9304 61.8824 64.4778 61.9495 64.0085 61.9495C63.4162 61.9495 62.9189 61.9104 62.5166 61.8322C62.1255 61.7539 61.8014 61.6478 61.5444 61.5137L61.8796 60.3738C62.1031 60.4967 62.3937 60.5973 62.7513 60.6755C63.1089 60.7538 63.5447 60.7929 64.0588 60.7929C64.3605 60.7929 64.6455 60.7426 64.9137 60.642C65.1819 60.5303 65.4166 60.3738 65.6177 60.1726C65.8189 59.9715 65.9753 59.7201 66.0871 59.4183C66.21 59.1054 66.2715 58.7478 66.2715 58.3455C66.2715 57.6191 66.0759 57.0939 65.6848 56.7698C65.3048 56.4346 64.7907 56.239 64.1426 56.1831C64.0308 56.1719 63.9303 56.1664 63.8409 56.1664C63.7626 56.1664 63.6621 56.1664 63.5391 56.1664H62.8519ZM69.3657 50.0144H74.579V51.1711H70.623V55.1438H74.2605V56.3005H70.623V60.5917H74.6628V61.7483H69.3657V50.0144ZM76.5521 50.1318C76.9097 50.0312 77.2897 49.9642 77.692 49.9306C78.0943 49.8971 78.491 49.8803 78.8821 49.8803C79.3291 49.8803 79.7705 49.9306 80.2064 50.0312C80.6422 50.1318 81.0333 50.3162 81.3798 50.5844C81.7374 50.8526 82.0223 51.2214 82.2347 51.6907C82.4582 52.1601 82.5699 52.7579 82.5699 53.4843C82.5699 54.1884 82.4638 54.7862 82.2514 55.2779C82.0503 55.7696 81.7765 56.1719 81.4301 56.4849C81.0948 56.7866 80.7037 57.0101 80.2567 57.1554C79.8208 57.2895 79.3682 57.3565 78.8989 57.3565C78.8542 57.3565 78.7815 57.3565 78.681 57.3565C78.5804 57.3565 78.4742 57.3565 78.3625 57.3565C78.2507 57.3453 78.139 57.3342 78.0272 57.323C77.9266 57.3118 77.854 57.3006 77.8093 57.2895V61.7483H76.5521V50.1318ZM78.9492 51.037C78.7257 51.037 78.5078 51.0481 78.2954 51.0705C78.0943 51.0817 77.9322 51.104 77.8093 51.1375V56.1328C77.854 56.1552 77.9211 56.1719 78.0105 56.1831C78.111 56.1831 78.2116 56.1887 78.3122 56.1999C78.4128 56.1999 78.5078 56.1999 78.5972 56.1999C78.6977 56.1999 78.7704 56.1999 78.8151 56.1999C79.128 56.1999 79.4297 56.1608 79.7203 56.0825C80.0108 56.0043 80.2678 55.8646 80.4913 55.6635C80.7148 55.4512 80.8936 55.1718 81.0277 54.8253C81.173 54.4677 81.2457 54.0207 81.2457 53.4843C81.2457 53.015 81.1786 52.6238 81.0445 52.3109C80.9216 51.998 80.754 51.7466 80.5416 51.5566C80.3405 51.3666 80.1002 51.2325 79.8208 51.1543C79.5415 51.0761 79.2509 51.037 78.9492 51.037ZM87.7712 50.0144H88.9781V55.4791L89.548 55.2444L92.1295 50.0144H93.5376L90.9058 55.1103L90.3527 55.6467L91.0399 56.3172L93.9566 61.7483H92.3977L89.5816 56.3005H88.9781V61.7483H87.7712V56.0993L87.218 56.334L84.4019 61.7483H82.9268L85.81 56.4849L86.4637 55.8646L85.8435 55.2779L83.1279 50.0144H84.603L87.1845 55.2779H87.7712V50.0144ZM100.717 54.071L100.818 52.5289H100.767L100.181 54.1045L95.839 61.7483H95.0009V50.0144H96.2581V57.8091L96.1408 59.3178H96.2078L96.7945 57.7421L101.153 50.0144H101.974V61.7483H100.717V54.071ZM109.701 56.334H105.376V61.7483H104.119V50.0144H105.376V55.1774H109.701V50.0144H110.958V61.7483H109.701V56.334ZM119.241 61.2958C118.962 61.5304 118.61 61.6981 118.185 61.7986C117.76 61.8992 117.313 61.9495 116.844 61.9495C116.252 61.9495 115.704 61.8377 115.201 61.6142C114.698 61.3907 114.263 61.0387 113.894 60.5582C113.536 60.0665 113.257 59.4351 113.056 58.664C112.855 57.8929 112.754 56.9654 112.754 55.8814C112.754 54.7639 112.866 53.8196 113.089 53.0485C113.324 52.2774 113.631 51.6516 114.011 51.1711C114.391 50.6905 114.827 50.3441 115.319 50.1318C115.822 49.9195 116.336 49.8133 116.861 49.8133C117.397 49.8133 117.839 49.8524 118.185 49.9306C118.543 50.0089 118.85 50.1038 119.107 50.2156L118.805 51.3555C118.582 51.2325 118.319 51.1375 118.017 51.0705C117.716 51.0034 117.369 50.9699 116.978 50.9699C116.587 50.9699 116.218 51.0593 115.872 51.2381C115.525 51.4058 115.218 51.6851 114.95 52.0763C114.682 52.4562 114.469 52.9591 114.313 53.5849C114.156 54.2107 114.078 54.9762 114.078 55.8814C114.078 57.513 114.358 58.7422 114.916 59.5692C115.475 60.385 116.218 60.7929 117.146 60.7929C117.526 60.7929 117.867 60.7426 118.168 60.642C118.47 60.5303 118.727 60.4017 118.939 60.2565L119.241 61.2958ZM122.644 56.3172H122.041V61.7483H120.783V50.0144H122.041V55.4791L122.627 55.2444L125.678 50.0144H127.12L124.052 55.0768L123.465 55.6132L124.153 56.2837L127.556 61.7483H125.963L122.644 56.3172Z" fill="#4371A1"/>
</svg>
