<svg width="235" height="57" viewBox="0 0 235 57" fill="none" xmlns="http://www.w3.org/2000/svg">
<g clip-path="url(#clip0_271_3122)">
<path d="M109.469 12.1215C109.47 13.6551 109.168 15.1738 108.582 16.5908C107.995 18.0077 107.135 19.2952 106.051 20.3797C104.966 21.4641 103.679 22.3242 102.262 22.9108C100.845 23.4974 99.3262 23.799 97.7926 23.7983C96.2591 23.7987 94.7406 23.497 93.3238 22.9103C91.907 22.3236 90.6197 21.4635 89.5354 20.3791C88.4512 19.2947 87.5912 18.0073 87.0047 16.5904C86.4183 15.1735 86.1167 13.6549 86.1174 12.1215C86.1167 10.5878 86.4183 9.06915 87.0049 7.65215C87.5915 6.23516 88.4516 4.94766 89.536 3.86324C90.6204 2.77881 91.9079 1.91873 93.3249 1.33214C94.7419 0.745547 96.2606 0.443954 97.7942 0.444596C100.891 0.445028 103.861 1.6754 106.051 3.86515C108.24 6.05489 109.469 9.02469 109.469 12.1215ZM45.2598 12.1215C45.2598 20.0673 51.3262 23.7983 57.7672 23.7983C60.3208 23.7983 62.933 23.2527 65.3563 22.2935V10.8153H58.4707V17.1668C58.1753 17.2046 57.8778 17.2248 57.5799 17.227C55.9562 17.227 52.831 16.3362 52.831 12.1215C52.831 8.322 55.7005 6.85791 58.9544 6.85791C60.9641 6.85791 63.2897 7.40185 64.8222 8.36108V1.78165C62.7848 0.951082 60.2312 0.446225 57.6092 0.446225C51.3555 0.446225 45.2598 3.91834 45.2598 12.1215ZM68.3366 0.949454V23.2837H85.2461V16.8394H75.7075V0.949454H68.3366ZM111.736 7.36277C111.736 15.149 122.581 14.2484 122.581 16.5544C122.581 17.2873 122.006 17.6423 120.057 17.6423C117.663 17.6423 114.694 16.8411 111.924 15.0301V21.7007C114.378 23.0752 117.415 23.8081 120.79 23.8081C125.926 23.8081 130.17 22.274 130.17 16.5642C130.17 8.80731 119.324 9.86588 119.324 7.53051C119.324 6.92794 119.799 6.54034 121.304 6.54034C123.798 6.51102 126.539 7.30251 128.706 8.67865V2.29465C126.508 1.12045 123.413 0.446225 120.503 0.446225C115.655 0.446225 111.736 2.67248 111.736 7.36277ZM132.001 7.36277C132.001 15.149 142.847 14.2484 142.847 16.5544C142.847 17.2873 142.272 17.6423 140.323 17.6423C137.929 17.6423 134.96 16.8411 132.19 15.0301V21.7007C134.642 23.0752 137.681 23.8081 141.056 23.8081C146.19 23.8081 150.436 22.274 150.436 16.5642C150.436 8.80731 139.59 9.86588 139.59 7.53051C139.59 6.92794 140.065 6.54034 141.57 6.54034C144.062 6.51102 146.804 7.30251 148.97 8.67865V2.29465C146.775 1.12045 143.678 0.446225 140.767 0.446225C135.919 0.446225 132.001 2.67248 132.001 7.36277ZM151.978 12.3495C151.978 20.4825 158.074 23.8081 164.388 23.8081C166.753 23.8081 168.95 23.3619 170.928 22.4727V15.7434C169.78 16.7629 167.644 17.3361 165.347 17.3361C162.409 17.3361 159.54 15.8704 159.54 12.3592C159.54 8.37085 162.439 6.83837 165.505 6.83837C167.486 6.83837 169.523 7.51097 170.771 8.37085V1.78165C168.792 0.890825 166.495 0.446225 164.199 0.446225C158.064 0.446225 151.939 3.85971 151.978 12.3495ZM187.038 0.949454V8.89688H180.972V0.947825H173.599V23.2821H180.972V15.3346H187.038V23.2821H194.38V0.949454H187.038ZM197.764 0.949454V23.2837H205.137V0.949454H197.764ZM227.538 0.949454L221.284 10.716L215.061 0.949454H208.519V23.2837H215.704V13.0416L219.375 18.7514H223.233L226.906 13.0709V23.2821H234.089V0.951082L227.538 0.949454Z" fill="url(#paint0_linear_271_3122)"/>
<path d="M98.5559 17.1977C101.227 19.3637 106.779 16.9209 107.48 13.6751C107.432 13.6263 107.441 13.6263 107.391 13.5774C104.305 15.3184 101.227 14.2484 98.0803 11.7648C96.3475 10.3903 94.3509 9.33174 92.509 9.16237C90.0743 8.93437 87.9865 10.9538 88.076 13.3967C88.076 13.4781 88.0858 13.5465 88.0956 13.5953C88.3138 15.0399 88.848 16.3867 89.6297 17.5528C94.5773 24.8374 95.2613 14.5253 98.5559 17.1977Z" fill="#0B407A"/>
<path d="M107.58 12.0824C107.362 10.133 106.114 9.4392 104.305 10.1932C101.89 11.1915 98.258 11.0336 96.2988 10.5287C96.9128 10.8951 97.517 11.3104 98.0805 11.7664C101.256 14.2793 104.354 15.3379 107.471 13.5367C107.539 13.0709 107.569 12.6068 107.569 12.1312C107.58 12.1117 107.58 12.0921 107.58 12.0824Z" fill="#1480AF"/>
<path d="M96.7843 15.5854C94.1916 14.7044 93.3806 12.9927 91.4605 14.2288C89.7294 15.3363 89.56 17.8117 91.0534 19.2269C92.8723 20.9534 95.2862 21.9134 97.794 21.9075C100.112 21.9077 102.355 21.0853 104.123 19.5867C105.892 18.0881 107.071 16.0106 107.451 13.724C106.184 16.5837 103.859 17.999 96.7843 15.5854Z" fill="#2ED3FF"/>
<path d="M90.9167 9.95382C91.2075 9.96178 91.497 9.91137 91.768 9.80556C92.0391 9.69976 92.2862 9.5407 92.4947 9.3378C92.7032 9.1349 92.869 8.89226 92.9821 8.62423C93.0953 8.35619 93.1536 8.06819 93.1536 7.77724C93.1536 7.48629 93.0953 7.19829 92.9821 6.93025C92.869 6.66221 92.7032 6.41958 92.4947 6.21667C92.2862 6.01377 92.0391 5.85472 91.768 5.74892C91.497 5.64311 91.2075 5.5927 90.9167 5.60065C90.3497 5.61616 89.8112 5.85228 89.4157 6.25878C89.0201 6.66528 88.7988 7.21007 88.7988 7.77724C88.7988 8.34441 89.0201 8.8892 89.4157 9.2957C89.8112 9.70219 90.3497 9.93831 90.9167 9.95382ZM94.2015 11.5971C94.369 11.6031 94.536 11.5753 94.6926 11.5154C94.8491 11.4555 94.992 11.3646 95.1126 11.2483C95.2332 11.1319 95.3292 10.9924 95.3947 10.8382C95.4603 10.6839 95.4941 10.518 95.4941 10.3504C95.4941 10.1828 95.4603 10.0169 95.3947 9.8626C95.3292 9.70833 95.2332 9.56885 95.1126 9.45248C94.992 9.33612 94.8491 9.24527 94.6926 9.18534C94.536 9.12542 94.369 9.09765 94.2015 9.10371C93.8787 9.11538 93.5729 9.25183 93.3487 9.48436C93.1244 9.71688 92.9991 10.0273 92.9991 10.3504C92.9991 10.6734 93.1244 10.9839 93.3487 11.2164C93.5729 11.4489 93.8787 11.5854 94.2015 11.5971Z" fill="#F3FFF9"/>
<path d="M100.91 6.55011C101.256 6.55011 101.588 6.4125 101.833 6.16756C102.078 5.92261 102.216 5.5904 102.216 5.244C102.216 4.89759 102.078 4.56538 101.833 4.32043C101.588 4.07549 101.256 3.93788 100.91 3.93788C100.563 3.93788 100.231 4.07549 99.9861 4.32043C99.7411 4.56538 99.6035 4.89759 99.6035 5.244C99.6035 5.5904 99.7411 5.92261 99.9861 6.16756C100.231 6.4125 100.563 6.55011 100.91 6.55011Z" fill="#2ED3FF"/>
<path d="M103.701 11.4684C104.317 11.4684 104.909 11.2234 105.345 10.7872C105.781 10.3511 106.026 9.75959 106.026 9.1428C106.026 8.52601 105.781 7.93449 105.345 7.49835C104.909 7.06222 104.317 6.8172 103.701 6.8172C103.084 6.8172 102.492 7.06222 102.056 7.49835C101.62 7.93449 101.375 8.52601 101.375 9.1428C101.375 9.75959 101.62 10.3511 102.056 10.7872C102.492 11.2234 103.084 11.4684 103.701 11.4684Z" fill="#0B407A"/>
<path d="M11.2404 24.6289C10.9831 23.8472 10.7454 23.1355 10.488 22.3733C9.60699 22.3114 8.81062 22.4824 7.9149 22.3033C6.47199 22.0264 5.58116 21.1258 5.14633 19.7709C4.72942 18.4452 4.97696 17.227 5.86779 16.1489C6.99639 14.7939 8.4507 14.6653 10.0434 15.0105C10.4294 15.0903 10.8252 15.1294 11.26 15.1897C13.5465 11.0531 16.872 8.7666 21.6991 8.83663C26.5197 8.90503 29.6563 11.4195 31.8516 15.4959C32.6741 15.2874 33.4639 15.0301 34.2668 14.8819C36.5224 14.4666 38.3936 15.1897 39.8365 16.9502C40.2828 17.4843 40.6883 18.0983 40.9554 18.7318C41.9211 21.0346 40.6459 22.5199 40.431 24.6484C42.0693 25.9839 43.9438 27.0652 45.0024 28.9723C44.7955 29.3485 44.5789 29.7149 44.39 30.1009C43.509 31.9216 44.7548 34.029 46.7547 34.1186C48.0608 34.1772 49.4663 32.9607 49.6633 31.6252C49.8522 30.3582 48.9012 28.9625 47.5853 28.627C47.1895 28.5277 46.7547 28.5375 46.2694 28.4886C48.779 26.7167 52.7397 27.3291 54.9285 29.3583C56.6092 30.9119 57.4707 32.8515 57.3811 35.0973C57.2834 37.6509 56.2639 39.8088 54.0474 41.2436C52.0997 42.4911 49.8718 42.2712 47.6634 42.2712C46.6977 43.8835 46.0593 45.6554 44.9144 47.1699C42.9259 49.8213 40.3332 51.5638 37.1461 52.4449C33.5568 53.4416 30.4543 53.01 26.904 52.0084C25.2755 54.1451 23.6958 55.9268 20.849 56.3241C16.5447 56.9267 13.071 54.0376 12.4293 50.1584C12.1036 48.2432 12.6817 46.6455 13.3185 44.8948C11.1818 44.8948 9.12004 45.3085 7.04524 44.5089C3.55196 43.1523 1.26707 40.7192 0.534216 36.9979C-0.0292701 34.1381 0.376244 31.4282 2.16767 29.0325C3.85976 26.7753 6.03553 25.2917 8.88553 24.9155C9.63793 24.8178 10.3903 24.7282 11.2404 24.6289ZM33.6138 30.28C33.762 27.3991 31.4559 24.5312 27.9431 24.5312C24.5394 24.5198 21.9662 27.0441 22.0069 30.2996C22.0558 33.573 24.4319 36.0484 27.7656 36.0973C31.2588 36.1461 33.6936 33.4362 33.6138 30.2784V30.28ZM17.5723 11.2209C15.2011 11.1622 13.4195 12.9927 13.3006 15.2679C13.1915 17.3361 15.3493 19.5233 17.4958 19.4728C19.8702 19.4142 21.5428 17.7319 21.5933 15.3672C21.6421 13.0123 19.9207 11.3007 17.5756 11.2209H17.5723ZM7.83836 33.415C9.61024 33.4264 11.589 31.9509 11.5987 29.6367C11.6085 27.4691 9.93759 25.7966 7.77973 25.8454C5.57302 25.8943 4.07799 27.4203 4.0389 29.596C3.99982 31.7343 5.70004 33.3743 7.83836 33.415ZM19.5738 45.9632C19.5738 44.4388 18.328 43.0529 16.8232 43.0839C15.2011 43.1229 14.0725 44.3997 14.022 45.9436C13.9732 47.4273 15.2988 48.7334 16.8525 48.7448C18.1391 48.7529 19.722 47.4859 19.5738 45.9632ZM35.6332 18.0006C35.6343 17.7174 35.5792 17.4369 35.4711 17.1752C35.3631 16.9134 35.2042 16.6757 35.0037 16.4758C34.8031 16.2759 34.5649 16.1177 34.3029 16.0104C34.0408 15.9032 33.7601 15.8489 33.477 15.8509C32.9212 15.8617 32.3912 16.0875 31.9983 16.4807C31.6053 16.8739 31.38 17.4041 31.3696 17.9599C31.3598 19.0185 32.5063 20.1259 33.5958 20.1161C34.5942 20.0966 35.6234 19.0282 35.6348 17.999L35.6332 18.0006ZM6.54202 17.1586C5.84987 17.3052 5.43459 17.6928 5.34502 18.3752C5.7603 19.3149 6.00784 19.4533 6.99802 19.2546C7.55824 18.4761 7.73902 17.5495 6.54202 17.1586ZM34.0584 11.7843C32.2376 11.8332 30.1905 10.2111 30.2996 7.85623C30.3973 5.6202 32.0699 4.08609 34.1772 4.11703C36.7015 4.14635 38.0272 6.01595 37.9979 7.97675C37.9572 10.0727 36.4638 11.8853 34.0584 11.7843ZM32.6838 8.12332C32.99 7.83669 33.3076 7.53052 33.5942 7.26343C33.4639 6.32375 33.1985 5.94755 32.6741 5.87915C32.0992 5.80912 31.6839 6.13483 31.3777 6.92632C31.5357 7.5696 31.951 7.9458 32.6838 8.12332ZM28.0131 1.92009C27.7248 3.06986 26.821 4.31735 25.4595 3.61217C24.668 3.19689 24.1941 3.08777 24.4107 1.197C24.8862 0.534175 25.5588 0.0488607 26.4594 0.208461C27.36 0.355032 27.8551 1.00972 28.0131 1.91846V1.92009Z" fill="#2ED3FF"/>
</g>
<defs>
<linearGradient id="paint0_linear_271_3122" x1="45.2647" y1="12.1215" x2="234.076" y2="12.1215" gradientUnits="userSpaceOnUse">
<stop offset="0.329"/>
<stop offset="0.381" stop-color="#071D23"/>
<stop offset="0.459" stop-color="#114451"/>
<stop offset="0.54" stop-color="#196579"/>
<stop offset="0.623" stop-color="#208099"/>
<stop offset="0.708" stop-color="#2594B2"/>
<stop offset="0.797" stop-color="#29A3C4"/>
<stop offset="0.891" stop-color="#2BACCF"/>
<stop offset="1" stop-color="#2CAFD2"/>
</linearGradient>
<clipPath id="clip0_271_3122">
<rect width="234.514" height="57" fill="white"/>
</clipPath>
</defs>
</svg>
