<svg width="279" height="57" viewBox="0 0 279 57" fill="none" xmlns="http://www.w3.org/2000/svg">
<g clip-path="url(#clip0_271_3137)">
<path d="M34.209 38.646H36.0856H37.9885V36.5238C35.7348 36.4186 34.209 36.4362 34.209 38.646Z" fill="#005593"/>
<path d="M75.6346 9.48831C67.6195 4.48108 56.3248 1.64862 43.8374 1.64862H42.4957C39.6106 1.69247 36.822 1.89416 34.1298 2.23616C30.9729 2.63077 27.9125 3.23585 25.0011 4.01631C17.3455 6.09462 10.8914 9.45324 6.46292 13.8466C2.36769 17.9068 0 22.8614 0 28.5088C0 34.1649 2.36769 39.1195 6.46292 43.1797C7.98 44.688 9.74262 46.0823 11.7069 47.3363V28.614C11.7069 25.1239 16.8106 22.2914 23.5805 21.8617V14.5219C23.5805 13.2328 24.2995 12.0314 25.5185 11.0142C27.9125 9.02354 32.262 7.69939 37.3043 7.69939C39.3651 7.69939 41.3294 7.93616 43.0569 8.31324C47.7835 9.38308 51.0369 11.742 51.0369 14.5219C51.0369 17.3105 47.7835 19.6694 43.0569 20.7392C41.3294 21.1251 39.3738 21.3443 37.3043 21.3443C32.6654 21.3443 28.6228 20.1692 26.1411 18.5382V21.8179C33.4722 22.002 39.1897 24.9397 39.1897 28.6228C39.1897 32.3234 33.4722 35.2611 26.1411 35.4452V39.6545C26.1411 40.1894 26.3428 40.6103 26.8952 40.6103L30.1048 40.6279V42.5834H25.5623H25.5097C24.3434 42.5659 23.5542 41.6626 23.5542 40.6279V35.3751C19.7132 35.1208 16.4072 34.0509 14.2675 32.6303V48.8358C17.4508 50.5371 21.0549 51.9402 24.9923 53.0012C27.9037 53.7817 30.9642 54.378 34.1386 54.7726C36.8132 55.1059 39.6106 55.3075 42.4869 55.3514V55.3426H43.8286C56.3248 55.3426 67.6195 52.5189 75.6434 47.5117C83.0797 42.8728 87.666 36.3485 87.666 28.5C87.6748 20.6691 83.0885 14.1448 75.6346 9.48831ZM48.3535 20.1342H48.3798C51.4315 20.1342 53.922 22.116 53.922 24.5275C53.922 26.8952 51.4228 28.8771 48.3798 28.8859H48.3535C45.2931 28.8859 42.7851 26.9128 42.7851 24.5275C42.7851 22.1072 45.2931 20.1342 48.3535 20.1342ZM40.4262 42.5922H37.9971V40.6191H36.0942H34.2175V42.5922H31.6131V40.0491V39.3826C31.6131 35.5943 34.2175 34.5595 38.0058 34.5595H40.4349V42.5922H40.4262ZM46.6874 42.5922H42.3028V40.6191H46.8102C47.7397 40.584 47.8274 39.5668 46.7663 39.5668H44.8283C43.0043 39.5668 41.7152 38.9003 41.7152 37.2429C41.7152 35.6294 42.9517 34.5595 44.7582 34.5595H49.1515V36.5239H44.6792C43.7497 36.5239 43.7585 37.6112 44.6354 37.6112H46.8891C50.8528 37.4972 51.0369 42.8026 46.6874 42.5922ZM58.1838 36.5414H55.6846V42.5922H53.2731V36.5414H50.6598V34.5595H58.1751V36.5414H58.1838ZM61.9458 42.5395H59.5431V34.5069H61.9458V42.5395ZM62.1388 28.4649H57.3946C56.1932 28.4649 55.3689 27.5442 55.3689 26.4743V20.4323H57.7805V25.5185C57.7805 26.0797 57.8594 26.4655 58.4206 26.4655H62.1475V28.4649H62.1388ZM70.6186 36.5239H68.4702C66.2691 36.5239 65.2694 37.3394 65.2694 38.6635C65.2694 39.9877 66.2691 40.8032 68.4702 40.8032H70.6186V42.7588H68.1282C64.6205 42.6623 63.0858 41.0663 63.0858 38.6548C63.0858 36.252 64.6205 34.6472 68.1282 34.5508H70.6186V36.5239ZM67.4617 26.3252V28.4474H66.2515H65.0414V26.3252C62.5071 26.2639 61.8757 24.0979 61.8845 22.2826L61.8932 20.4148H64.296V22.2826C64.296 24.3609 65.2782 24.4135 66.2603 24.4311C67.2337 24.4048 68.2246 24.3259 68.2246 22.2826V20.4148H70.6274L70.6362 22.2826C70.6186 24.0979 69.9872 26.2551 67.4617 26.3252Z" fill="#005593"/>
<path d="M48.3708 26.9214C50.0896 26.9214 51.5102 25.8341 51.5102 24.5274C51.5102 23.1945 50.0896 22.1159 48.3708 22.1159C46.6433 22.1159 45.2139 23.1858 45.2139 24.5274C45.2226 25.8341 46.6433 26.9214 48.3708 26.9214Z" fill="#005593"/>
<path d="M43.0662 18.275C46.1529 17.5033 48.2049 16.1353 48.2049 14.5306C48.2049 12.9433 46.1529 11.5753 43.0662 10.8036C41.4439 10.3827 39.4883 10.1459 37.3925 10.1459C31.3329 10.1459 26.5537 12.0839 26.5537 14.5306C26.5537 16.9684 31.3329 18.9152 37.3925 18.9152C39.4883 18.9152 41.4526 18.6959 43.0662 18.275Z" fill="#005593"/>
<path d="M14.6797 28.6316C14.6797 30.8063 18.468 32.5952 23.5717 32.946V29.9996H25.5272L26.1586 29.982V33.0074C31.9112 32.8759 36.366 30.9817 36.366 28.6228C36.366 26.2814 31.9112 24.396 26.1586 24.2557V28.1931H25.5272H23.5892V24.2996C18.468 24.6854 14.6797 26.4568 14.6797 28.6316Z" fill="#005593"/>
<path d="M231.034 42.785H235.287V39.3738L231.797 39.365C229.894 39.365 227.219 38.5583 227.219 35.5855C227.219 32.6127 229.894 31.8059 231.797 31.8059H235.287V28.3947H231.034C221.142 28.649 221.028 42.5219 231.034 42.785Z" fill="#005593"/>
<path d="M236.796 31.8761H241.382V42.5745H245.346V31.8761H249.932V28.3771H236.796V31.8761Z" fill="#005593"/>
<path d="M278.862 30.8765V28.3948H274.538C274.538 31.122 274.88 33.3319 272.749 33.3319H270.408V28.3948H266.444V42.5922H270.408L270.443 36.8132H272.82C273.714 36.8132 274.565 37.3394 274.556 38.7249L274.538 42.5659L278.862 42.5922V38.9705C278.862 37.6112 278.651 36.5063 276.766 35.4803C278.669 34.8314 278.862 32.262 278.862 30.8765Z" fill="#005593"/>
<path d="M126.54 28.3948C123.339 28.3948 120.428 28.3948 116.999 28.3948C116.999 33.1039 116.999 37.8568 116.999 42.5746H120.963V31.8762H124.549C125.47 31.8762 125.602 32.5514 125.602 33.5599V42.5746H129.583V31.5429C129.443 29.8768 128.259 28.5263 126.54 28.3948Z" fill="#005593"/>
<path d="M189.152 28.3948C185.951 28.3948 183.049 28.3948 179.611 28.3948C179.611 33.1039 179.611 37.8568 179.611 42.5746H183.575V31.8762H187.162C188.082 31.8762 188.214 32.5514 188.214 33.5599V42.5746H192.195V31.5429C192.055 29.8768 190.862 28.5263 189.152 28.3948Z" fill="#005593"/>
<path d="M152.217 18.2399H154.216C154.733 18.2399 154.804 18.617 154.804 19.1782V24.2118H157.022V18.0558C156.952 17.1262 156.286 16.3721 155.33 16.2932C153.541 16.2932 151.919 16.2932 149.998 16.2932C149.998 18.9239 149.998 21.5722 149.998 24.2118H152.208V18.2399H152.217Z" fill="#005593"/>
<path d="M146.622 16.2932C144.833 16.2932 143.211 16.2932 141.29 16.2932C141.29 18.924 141.29 21.5723 141.29 24.2119H143.5V18.24H145.499C146.017 18.24 146.087 18.6171 146.087 19.1783V24.2119H148.305V18.0559C148.244 17.1176 147.578 16.3722 146.622 16.2932Z" fill="#005593"/>
<path d="M149.734 35.2523V42.5746H153.707V35.5242C153.707 32.683 154.461 31.8937 156.592 31.8937V31.8762H158.346V42.5746H162.309C162.309 37.8568 162.309 33.1039 162.309 28.3948C158.872 28.3948 159.416 28.3948 156.215 28.3948C151.576 28.3071 149.734 31.4465 149.734 35.2523Z" fill="#005593"/>
<path d="M194.545 35.2523V42.5746H198.517V35.5242C198.517 32.683 199.272 31.8937 201.402 31.8937V31.8762H203.148V42.5746H207.111C207.111 37.8568 207.111 33.1039 207.111 28.3948C203.674 28.3948 204.217 28.3948 201.017 28.3948C196.378 28.3071 194.545 31.4465 194.545 35.2523Z" fill="#005593"/>
<path d="M209.479 35.2523V42.5746H213.452V38.9442H218.091V42.5746H222.055C222.055 37.8568 222.055 33.1038 222.055 28.3948C218.626 28.3948 219.161 28.3948 215.96 28.3948C211.321 28.3071 209.479 31.4465 209.479 35.2523ZM216.346 31.8762H218.1V35.4365H213.461C213.478 32.6654 214.241 31.8937 216.355 31.8937V31.8762H216.346Z" fill="#005593"/>
<path d="M165.826 24.2119V22.1862V22.116V21.9932V21.8705V21.7477V21.6249V21.4846V21.3619V21.2391V21.1163V20.9936V20.8708V20.748V20.6252V20.5025V20.3797V20.2569V20.2394V16.302C163.905 16.302 164.212 16.302 162.423 16.302C159.828 16.2582 158.802 18.012 158.802 20.1342V24.2206H161.029V22.1862H163.616V24.2119H165.826ZM161.02 20.2306C161.029 18.6785 161.45 18.2488 162.634 18.2488V18.24H163.616V20.2306H161.02Z" fill="#005593"/>
<path d="M173.289 39.0844H169.702V39.0669C168.782 39.0669 168.65 38.4004 168.65 37.4007V28.3947H164.669V39.4264C164.8 41.0926 165.993 42.443 167.703 42.5833C170.913 42.5833 173.815 42.5833 177.244 42.5833C177.244 37.8743 177.244 33.1301 177.244 28.4035H173.28V39.0844H173.289Z" fill="#005593"/>
<path d="M260.122 39.0844H256.536V39.0669C255.615 39.0669 255.483 38.4004 255.483 37.4007V28.3947H251.511V39.4264C251.642 41.0926 252.826 42.443 254.545 42.5833C257.746 42.5833 260.657 42.5833 264.086 42.5833C264.086 37.8743 264.086 33.1301 264.086 28.4035H260.122V39.0844Z" fill="#005593"/>
<path d="M136.598 22.2562V22.265H132.371L132.38 24.2117H137.712C138.676 24.1328 139.334 23.3787 139.413 22.4491V21.4144C139.413 18.7836 139.413 18.9239 139.413 16.2844H137.203H137.194V19.4676H135.204C134.686 19.4676 134.616 19.0993 134.616 18.5381V16.2931H132.389V19.6605C132.468 20.5901 133.125 21.3442 134.09 21.4231C135.151 21.4231 136.151 21.4231 137.194 21.4231C137.177 21.923 137.08 22.2562 136.598 22.2562Z" fill="#005593"/>
<path d="M129.276 16.2932C127.487 16.2932 125.865 16.2932 123.944 16.2932C123.944 18.924 123.944 21.5723 123.944 24.2119H126.163V22.686H128.75C130.688 22.686 130.968 21.4232 130.968 20.5376V18.0559C130.898 17.1176 130.232 16.3722 129.276 16.2932ZM128.75 20.0816C128.75 20.52 128.425 20.7305 128.083 20.7305H126.163V18.24H128.162V18.2488C128.68 18.2488 128.75 18.6171 128.75 19.1783V20.0816Z" fill="#005593"/>
<path d="M119.226 19.1783C119.226 18.6171 119.297 18.2488 119.814 18.2488V18.24H122.392V16.2932H118.691C117.727 16.3722 117.069 17.1176 116.99 18.0559V24.2119H119.218V19.1783H119.226Z" fill="#005593"/>
<path d="M140.518 28.3071H138.87C136.896 28.3071 135.108 29.1138 133.81 30.4117C132.512 31.7095 131.705 33.5072 131.705 35.4715C131.705 37.4446 132.512 39.2335 133.81 40.5314C135.108 41.8292 136.896 42.636 138.87 42.636H140.518C142.491 42.636 144.28 41.8292 145.578 40.5314C146.876 39.2335 147.683 37.4358 147.683 35.4715C147.683 33.4985 146.876 31.7095 145.578 30.4117C144.28 29.1051 142.491 28.3071 140.518 28.3071ZM143.131 38.0848C142.456 38.76 141.535 39.1721 140.518 39.1721H138.87C137.852 39.1721 136.932 38.7512 136.256 38.0848C135.581 37.4183 135.169 36.4888 135.169 35.4715C135.169 34.4543 135.581 33.5335 136.256 32.8583C136.923 32.1831 137.852 31.7709 138.87 31.7709H140.518C141.535 31.7709 142.456 32.1918 143.131 32.8583C143.807 33.5335 144.219 34.4543 144.219 35.4715C144.219 36.4888 143.807 37.4095 143.131 38.0848Z" fill="#005593"/>
<path d="M102.863 42.5746H104.415V16.2932H102.863V42.5746Z" fill="#005593"/>
</g>
<defs>
<clipPath id="clip0_271_3137">
<rect width="278.862" height="57" fill="white"/>
</clipPath>
</defs>
</svg>
