<svg width="210" height="57" viewBox="0 0 210 57" fill="none" xmlns="http://www.w3.org/2000/svg">
<path fill-rule="evenodd" clip-rule="evenodd" d="M47.6317 17.2992L46.9915 17.669L33.7604 25.3057L43.9754 42.9827C47.1124 39.9913 49.1937 36.0632 49.9069 31.7885C50.6201 27.5137 49.9266 23.1231 47.9305 19.276L55.2005 15.0807C57.4236 19.191 58.5872 23.7903 58.5865 28.4629C58.5688 35.8472 55.6873 42.9369 50.548 48.2413C45.4086 53.5456 38.4117 56.6513 31.0288 56.9053V48.5433C35.62 48.3352 39.998 46.5466 43.4205 43.4805L30.0614 35.7868L16.7306 43.4805C20.1569 46.5496 24.5405 48.3386 29.1366 48.5433V56.9053C24.2958 56.7537 19.5737 55.3693 15.4177 52.8834C11.2618 50.3975 7.80928 46.8924 5.38735 42.6998C2.96543 38.5073 1.65417 33.7662 1.57776 28.9256C1.50135 24.0849 2.6623 19.3049 4.9507 15.038L12.2349 19.2333C10.2389 23.0804 9.54534 27.4711 10.2586 31.7458C10.9717 36.0206 13.0531 39.9486 16.1901 42.9401L26.405 25.2631L13.1739 17.6263L12.5195 17.2566L5.87546 13.4595C8.4273 9.34355 11.9881 5.94703 16.2207 3.59164C20.4532 1.23625 25.2172 0 30.0614 0C34.9055 0 39.6696 1.23625 43.9021 3.59164C48.1346 5.94703 51.6955 9.34355 54.2473 13.4595L47.6317 17.2992ZM40.4471 11.312L30.0614 17.2992H46.707C45.0777 14.8747 42.9421 12.8321 40.4471 11.312ZM20.2589 10.9992H39.9207C36.919 9.31228 33.5334 8.42618 30.0898 8.42618C26.6462 8.42618 23.2606 9.31228 20.2589 10.9992ZM13.4442 17.2992H30.0614L19.7325 11.312C17.2273 12.8289 15.0817 14.8717 13.4442 17.2992Z" fill="#363789"/>
<path fill-rule="evenodd" clip-rule="evenodd" d="M117.387 42.5177V15.0281H110.799V25.6655H102.747V15.0281H96.1455V42.5177H102.747V30.7851H110.799V42.5177H117.387ZM135.342 33.5156C135.342 36.4595 133.676 37.782 130.817 37.782H128.37V29.4626H130.788C133.804 29.4626 135.342 30.899 135.342 33.5156ZM139.182 15.0281H121.783V42.5177H129.081C136.551 42.5177 142.27 40.8538 142.27 33.473C142.27 27.6849 138.173 24.9403 131.23 24.9403H128.384V20.0197H138.628L139.182 15.0281ZM165.218 23.9874C165.218 17.9576 160.95 15.0281 153.424 15.0281H144.731V42.5177H151.318V33.4019H154.305C160.822 33.4019 165.218 30.4439 165.218 23.9874ZM158.431 23.9874C158.431 27.2015 156.724 28.6378 153.751 28.6378H151.318V19.7068H153.509C156.81 19.7068 158.446 21.1006 158.446 23.9874H158.431ZM173.668 19.0669C176.841 19.0669 178.506 21.1716 178.705 26.0921H169.258V30.7425H178.748C178.549 35.8906 176.799 38.2798 173.427 38.2798C171.51 38.2716 169.669 37.5343 168.277 36.2177L165.133 39.7872C166.262 40.9351 167.618 41.8354 169.115 42.4303C170.611 43.0253 172.216 43.3021 173.825 43.243C181.167 43.243 185.463 38.2086 185.463 28.6378C185.463 19.4366 181.365 14.4165 174.266 14.4165C170.999 14.3185 167.817 15.4735 165.375 17.6447L168.476 21.2569C169.865 19.8921 171.722 19.1087 173.668 19.0669ZM200.131 38.0807C196.716 38.0807 194.34 35.2365 194.34 28.6662C194.34 22.096 196.83 19.1522 200.287 19.1522C202.122 19.152 203.886 19.8602 205.21 21.129L208.468 17.3319C206.107 15.2787 203.06 14.1873 199.932 14.2743C192.818 14.2743 187.512 19.465 187.512 28.6662C187.512 38.1233 192.505 43.1577 199.818 43.1577C201.482 43.1905 203.134 42.8918 204.68 42.2789C206.227 41.666 207.635 40.7513 208.824 39.5881L205.851 35.7768C204.304 37.2458 202.263 38.0829 200.131 38.1233V38.0807ZM78.5897 42.5177L82.7156 31.1407L85.248 24.1154L85.5468 23.2906H85.6747C85.4411 24.3094 85.2982 25.3469 85.248 26.3908V31.866C85.248 31.866 85.248 31.866 85.248 31.9371C85.248 32.0082 85.248 32.2357 85.248 32.3779V41.764H91.7212V15.0281H83.8964L79.6283 26.533L77.0389 33.6436L76.7544 34.3832H76.6406C76.8661 33.35 76.99 32.2974 77.0105 31.2403V25.694C77.0176 25.6183 77.0176 25.5421 77.0105 25.4665V25.3811C77.0105 25.0682 77.0105 24.7554 77.0105 24.4283V15.0281H70.6084V42.5177H78.5897Z" fill="#363789"/>
</svg>
