<svg width="203" height="57" viewBox="0 0 203 57" fill="none" xmlns="http://www.w3.org/2000/svg">
<g clip-path="url(#clip0_271_3174)">
<path d="M76.4484 29.2515C74.4761 33.4989 71.1118 36.9449 66.9129 39.0183C62.714 41.0918 57.9327 41.6683 53.3613 40.6522C48.7899 39.6362 44.703 37.0886 41.7778 33.4316C38.8526 29.7747 37.2647 25.228 37.2774 20.5451C37.2901 15.8622 38.9026 11.3242 41.8476 7.68319C44.7926 4.04219 48.8933 1.51679 53.4701 0.525531C58.047 -0.465727 62.8251 0.136668 67.0127 2.23288C71.2002 4.3291 74.5458 7.79327 76.495 12.0513C77.6592 14.6008 73.8402 16.3505 72.6915 13.801C71.13 10.4057 68.4548 7.64613 65.1096 5.97997C61.7643 4.31382 57.9501 3.84118 54.2994 4.64043C50.6486 5.43969 47.3808 7.46283 45.0377 10.3743C42.6947 13.2858 41.4173 16.9107 41.4173 20.6479C41.4173 24.3851 42.6947 28.0101 45.0377 30.9215C47.3808 33.833 50.6486 35.8562 54.2994 36.6554C57.9501 37.4547 61.7643 36.9821 65.1096 35.3159C68.4548 33.6497 71.13 30.8902 72.6915 27.4948C73.8177 24.9454 77.6264 26.7107 76.4484 29.2515ZM55.2098 22.7863C54.9199 22.7895 54.6322 22.7353 54.3633 22.6268C54.0944 22.5183 53.8497 22.3577 53.6432 22.1541C53.4293 21.9495 53.2606 21.7024 53.1478 21.4288C53.0351 21.1551 52.9808 20.8609 52.9885 20.565C52.982 20.2657 53.0367 19.9682 53.1492 19.6908C53.2618 19.4134 53.4299 19.1619 53.6432 18.9518C53.8449 18.7392 54.0879 18.5701 54.3573 18.4549C54.6267 18.3396 54.9168 18.2807 55.2098 18.2816H77.7887C78.0806 18.2788 78.37 18.3355 78.6393 18.448C78.9086 18.5605 79.1522 18.7266 79.3554 18.9362C79.5686 19.1464 79.7366 19.3979 79.8491 19.6753C79.9617 19.9527 80.0164 20.2502 80.01 20.5495C80.0178 20.8454 79.9636 21.1396 79.8508 21.4133C79.7381 21.687 79.5693 21.934 79.3554 22.1386C79.1489 22.3421 78.9041 22.5028 78.6352 22.6113C78.3663 22.7198 78.0786 22.774 77.7887 22.7708L55.2098 22.7846V22.7863Z" fill="#61BA3E"/>
<path d="M113.443 29.0077C113.443 24.9521 111.077 22.7014 105.487 22.7014H97.9478C97.6656 22.7034 97.3859 22.6491 97.1249 22.5417C96.8639 22.4344 96.627 22.2761 96.4278 22.0762C96.2215 21.8807 96.0575 21.6449 95.9461 21.3834C95.8347 21.122 95.7782 20.8404 95.7801 20.5562C95.7754 20.2625 95.8301 19.9709 95.9412 19.699C96.0522 19.427 96.2172 19.1804 96.4261 18.974C96.6235 18.7702 96.86 18.6085 97.1216 18.4987C97.3831 18.3889 97.6642 18.3331 97.9478 18.3349H104.795C109.009 18.3349 111.991 15.7405 111.991 11.6158C111.991 7.72253 109.101 5.24908 104.947 5.24908H91.6951V36.1811H104.857C110.021 36.1811 113.443 33.3276 113.443 29.0077ZM112.509 19.8791L112.92 20.1382C116.281 22.2282 117.872 24.8536 117.872 28.6035C117.872 35.086 113.512 40.2505 104.513 40.2505H89.2994C88.7002 40.2511 88.1248 40.0159 87.6975 39.5957C87.2703 39.1756 87.0255 38.6042 87.0159 38.0051V3.43371C87.0157 3.13378 87.0746 2.83675 87.1893 2.5596C87.3039 2.28246 87.4721 2.03064 87.6842 1.81856C87.8963 1.60648 88.1481 1.43829 88.4253 1.32361C88.7024 1.20894 88.9994 1.15003 89.2994 1.15026H104.513C112.075 1.15026 116.366 5.83462 116.366 11.3135C116.372 12.8647 116.057 14.4003 115.441 15.8235C114.824 17.2467 113.918 18.5265 112.782 19.582L112.509 19.8791ZM198.47 47.4705C198.796 47.7777 199.224 47.9537 199.672 47.9649C200.12 47.976 200.556 47.8215 200.897 47.531C201.163 47.1268 201.657 47.455 201.467 47.8039C201.249 48.053 200.978 48.2505 200.674 48.382C200.37 48.5134 200.041 48.5756 199.71 48.5639C199.378 48.5793 199.046 48.5188 198.74 48.3872C198.434 48.2555 198.162 48.0561 197.945 47.8039C197.907 47.7348 197.897 47.6541 197.915 47.5776C197.936 47.5008 197.984 47.4345 198.051 47.3919C198.118 47.3493 198.198 47.3335 198.276 47.3479C198.354 47.3622 198.423 47.4072 198.47 47.4705ZM1.07028 50.229C1.07477 50.1337 1.11626 50.0439 1.18595 49.9787C1.25563 49.9136 1.34799 49.8782 1.44338 49.8801H4.85128C4.92984 49.8928 5.00129 49.9331 5.05286 49.9937C5.10443 50.0543 5.13275 50.1313 5.13275 50.2108C5.13275 50.2904 5.10443 50.3674 5.05286 50.428C5.00129 50.4886 4.92984 50.5289 4.85128 50.5416H1.80783V55.9497C1.80783 56.0465 1.76949 56.1394 1.70119 56.208C1.63289 56.2767 1.54019 56.3154 1.44338 56.3159C1.39467 56.3169 1.34625 56.3082 1.30089 56.2905C1.25554 56.2727 1.21415 56.2461 1.1791 56.2123C1.14438 56.178 1.11687 56.1371 1.09818 56.092C1.0795 56.0469 1.07001 55.9985 1.07028 55.9497V50.229ZM14.2321 50.229C14.236 50.1324 14.2766 50.0409 14.3456 49.9732C14.4146 49.9055 14.5068 49.8666 14.6035 49.8645H16.8161C17.3395 49.8473 17.8542 50.0044 18.2774 50.3136C18.5247 50.5065 18.7226 50.7554 18.8547 51.0398C18.9868 51.3242 19.0495 51.636 19.0374 51.9494C19.0437 52.2739 18.9742 52.5954 18.8345 52.8883C18.6948 53.1813 18.4886 53.4376 18.2325 53.6369C17.7834 53.934 17.2479 54.0756 16.7107 54.0411H14.9748V55.9359C14.9748 56.4074 14.2148 56.4074 14.2148 55.9359L14.2286 50.229H14.2321ZM14.9921 53.3864H16.6123C16.994 53.4089 17.3757 53.3191 17.7074 53.1273C17.8947 52.9951 18.0459 52.818 18.147 52.6122C18.2481 52.4063 18.2959 52.1784 18.286 51.9494C18.303 51.7275 18.2611 51.5052 18.1647 51.3047C18.0683 51.1043 17.9206 50.9328 17.7367 50.8076C17.4394 50.599 17.0802 50.4973 16.7176 50.5192H14.9766L14.9904 53.3864H14.9921ZM28.0382 49.7816C28.122 49.7778 28.2047 49.8018 28.2735 49.8499C28.3422 49.898 28.3931 49.9676 28.4182 50.0476L30.2888 53.6991L32.0386 50.0476C32.067 49.9679 32.1199 49.8993 32.1897 49.8515C32.2595 49.8037 32.3426 49.7793 32.4272 49.7816C32.5193 49.7834 32.6073 49.8206 32.6726 49.8857C32.7379 49.9507 32.7756 50.0384 32.7778 50.1305C32.7773 50.2143 32.7534 50.2963 32.7087 50.3672L30.807 54.3295C30.1973 55.6388 29.4148 56.3159 28.2662 56.3159C28.0296 56.3159 27.8776 56.1864 27.8776 55.9877C27.8783 55.9416 27.8886 55.896 27.9078 55.854C27.9269 55.812 27.9546 55.7744 27.989 55.7436C28.0233 55.7128 28.0637 55.6894 28.1076 55.675C28.1514 55.6605 28.1978 55.6552 28.2437 55.6595C28.5976 55.6509 28.9414 55.5404 29.234 55.3413C29.5265 55.1421 29.7555 54.8628 29.8933 54.5368L27.7256 50.3896C27.6824 50.3212 27.6586 50.2425 27.6565 50.1616C27.6582 50.0651 27.6974 49.9729 27.7657 49.9047C27.834 49.8364 27.9261 49.7972 28.0226 49.7954L28.0382 49.7816ZM41.7303 50.2307C41.7338 50.1335 41.7745 50.0414 41.8439 49.9733C41.9133 49.9052 42.0061 49.8662 42.1034 49.8645H46.5235C46.572 49.8636 46.6202 49.8724 46.6653 49.8902C46.7104 49.9081 46.7515 49.9348 46.7863 49.9687C46.821 50.0026 46.8486 50.0431 46.8675 50.0878C46.8865 50.1325 46.8963 50.1805 46.8966 50.229V55.9359C46.9346 56.4074 46.1366 56.4074 46.1366 55.9359V50.5416H42.4609V55.9497C42.4609 56.4213 41.7009 56.4213 41.7009 55.9497L41.7303 50.2307ZM56.4967 50.2307C56.5002 50.1338 56.5406 50.0419 56.6097 49.9739C56.6787 49.9058 56.7712 49.8667 56.8681 49.8645H61.2968C61.3449 49.8638 61.3926 49.8728 61.4371 49.8909C61.4817 49.9089 61.5221 49.9357 61.5561 49.9697C61.5901 50.0037 61.6169 50.0442 61.635 50.0887C61.653 50.1332 61.662 50.1809 61.6613 50.229V55.9359C61.6613 56.4074 60.9013 56.4074 60.9013 55.9359V50.5416H57.2274V55.9497C57.2274 56.4213 56.4674 56.4213 56.4674 55.9497L56.4967 50.2307ZM70.669 55.7753L72.9507 50.1754C72.9835 50.0657 73.0507 49.9694 73.1425 49.901C73.2343 49.8325 73.3458 49.7955 73.4603 49.7954C73.578 49.7896 73.6941 49.8241 73.7896 49.8932C73.885 49.9623 73.9541 50.0618 73.9854 50.1754L76.2136 55.7753C76.2398 55.8379 76.2555 55.9044 76.2602 55.9722C76.2609 56.02 76.2515 56.0675 76.2326 56.1115C76.2137 56.1555 76.1857 56.195 76.1505 56.2275C76.1153 56.2599 76.0736 56.2846 76.0283 56.2998C75.9829 56.315 75.9348 56.3205 75.8871 56.3159C75.8039 56.3206 75.7216 56.2968 75.6538 56.2485C75.586 56.2001 75.5367 56.1301 75.514 56.0499L74.9665 54.6577H71.923L71.353 56.0482C71.331 56.1288 71.2819 56.1994 71.2139 56.2482C71.146 56.2969 71.0634 56.3208 70.9799 56.3159C70.9102 56.3213 70.8406 56.304 70.7815 56.2667C70.7223 56.2293 70.6768 56.1739 70.6517 56.1086C70.6355 56.0657 70.6284 56.0198 70.631 55.9739C70.6321 55.906 70.645 55.8388 70.669 55.7753ZM72.1061 54.0324H74.7316L73.4154 50.7316L72.1061 54.0324ZM94.2497 50.1461C94.2571 50.0514 94.2996 49.9628 94.369 49.8979C94.4384 49.833 94.5296 49.7965 94.6246 49.7954C94.7201 49.7936 94.8125 49.8293 94.8819 49.8948C94.9514 49.9604 94.9923 50.0506 94.9959 50.1461V52.7094H95.6816L98.1085 49.9561C98.1461 49.9069 98.1944 49.8668 98.2498 49.839C98.3051 49.8112 98.3661 49.7963 98.428 49.7954C98.4983 49.7967 98.5666 49.8193 98.6237 49.8604C98.6808 49.9014 98.724 49.9589 98.7476 50.0252C98.7648 50.0684 98.7717 50.115 98.77 50.1616C98.7653 50.2566 98.7245 50.3462 98.656 50.4121L96.3052 52.9978L98.732 55.6923C98.8011 55.7666 98.8374 55.8651 98.8374 55.9653C98.8386 56.0122 98.8302 56.059 98.8125 56.1025C98.7949 56.1461 98.7685 56.1855 98.735 56.2184C98.7014 56.2513 98.6614 56.277 98.6175 56.2937C98.5737 56.3105 98.5268 56.318 98.4798 56.3159C98.4098 56.314 98.3414 56.2948 98.2806 56.2602C98.2197 56.2255 98.1683 56.1765 98.1309 56.1173L95.6955 53.3709H95.0115V55.9497C95.0115 56.4213 94.2515 56.4213 94.2515 55.9497L94.2497 50.1461ZM109.876 49.7954C110.519 49.8077 111.143 50.0092 111.671 50.3747C112.199 50.7402 112.608 51.2534 112.845 51.8501C113.083 52.4468 113.139 53.1004 113.007 53.7289C112.875 54.3574 112.56 54.933 112.103 55.3835C111.645 55.8339 111.064 56.1393 110.434 56.2612C109.803 56.3831 109.15 56.3162 108.558 56.0688C107.965 55.8214 107.458 55.4046 107.101 54.8706C106.745 54.3366 106.553 53.7092 106.551 53.0669C106.553 52.6313 106.641 52.2005 106.811 51.7994C106.981 51.3983 107.229 51.035 107.54 50.7306C107.852 50.4261 108.221 50.1867 108.626 50.0262C109.031 49.8656 109.463 49.7872 109.899 49.7954H109.876ZM109.876 55.6233C110.323 55.6261 110.762 55.5098 111.148 55.2863C111.535 55.0628 111.855 54.7403 112.075 54.352C112.292 53.9584 112.406 53.5163 112.406 53.0669C112.406 52.6175 112.292 52.1754 112.075 51.7818C111.853 51.395 111.533 51.0735 111.147 50.8497C110.761 50.6259 110.323 50.5077 109.877 50.5071C109.431 50.5064 108.993 50.6233 108.606 50.846C108.219 51.0686 107.898 51.3892 107.675 51.7754C107.452 52.1616 107.334 52.5998 107.334 53.0459C107.334 53.4919 107.452 53.9302 107.675 54.3164C107.898 54.7027 108.219 55.0233 108.605 55.2461C108.992 55.4688 109.43 55.5858 109.876 55.5853V55.6233ZM122.542 50.229C122.539 50.1378 122.564 50.0478 122.614 49.9716C122.664 49.8954 122.737 49.8368 122.822 49.8041C122.878 49.7817 122.938 49.7711 122.998 49.773C123.083 49.7724 123.165 49.7947 123.238 49.8376C123.31 49.8805 123.37 49.9424 123.41 50.0165L125.691 53.82L127.973 50.0165C128.013 49.9423 128.072 49.8805 128.145 49.8378C128.217 49.7952 128.3 49.7733 128.384 49.7747C128.475 49.7705 128.565 49.7949 128.642 49.8445C128.718 49.894 128.777 49.9663 128.811 50.0511C128.833 50.1076 128.844 50.1682 128.842 50.229V55.9428C128.842 56.0376 128.804 56.1286 128.737 56.1956C128.67 56.2627 128.579 56.3004 128.484 56.3004C128.389 56.3004 128.299 56.2627 128.231 56.1956C128.164 56.1286 128.127 56.0376 128.127 55.9428V51.1496L126.026 54.542C125.998 54.6201 125.946 54.6875 125.878 54.7352C125.81 54.7829 125.729 54.8085 125.646 54.8085C125.563 54.8085 125.482 54.7829 125.414 54.7352C125.346 54.6875 125.295 54.6201 125.266 54.542L123.166 51.1496V55.9428C123.166 56.0376 123.128 56.1286 123.061 56.1956C122.994 56.2627 122.903 56.3004 122.808 56.3004C122.714 56.3004 122.623 56.2627 122.556 56.1956C122.489 56.1286 122.451 56.0376 122.451 55.9428L122.542 50.229ZM138.518 50.229C138.522 50.1324 138.563 50.0409 138.632 49.9732C138.701 49.9055 138.793 49.8666 138.889 49.8645H143.318C143.367 49.8624 143.416 49.8703 143.462 49.8877C143.508 49.9051 143.55 49.9316 143.586 49.9656C143.621 49.9997 143.65 50.0406 143.669 50.0858C143.688 50.1311 143.698 50.1798 143.698 50.229V55.9359C143.736 56.4074 142.938 56.4074 142.938 55.9359V50.5416H139.256V55.9497C139.256 56.4213 138.496 56.4213 138.496 55.9497L138.518 50.229ZM152.72 55.7597L154.956 50.1616C154.988 50.0513 155.055 49.9544 155.147 49.8858C155.239 49.8171 155.351 49.7806 155.466 49.7816C155.583 49.7783 155.698 49.8137 155.793 49.8824C155.888 49.9511 155.958 50.0493 155.991 50.1616L158.15 55.7753C158.18 55.8367 158.196 55.9039 158.197 55.9722C158.197 56.0197 158.187 56.0668 158.168 56.1104C158.149 56.154 158.121 56.1932 158.087 56.2255C158.052 56.2578 158.01 56.2826 157.965 56.2981C157.921 56.3137 157.873 56.3197 157.825 56.3159C157.742 56.3197 157.661 56.2955 157.593 56.2473C157.525 56.1991 157.476 56.1296 157.452 56.0499L156.905 54.6577H153.861L153.291 56.0482C153.267 56.1274 153.217 56.1964 153.15 56.2448C153.082 56.2931 153.001 56.3181 152.918 56.3159C152.872 56.319 152.825 56.3124 152.781 56.2966C152.738 56.2807 152.698 56.2559 152.664 56.2237C152.63 56.1915 152.604 56.1527 152.586 56.1097C152.568 56.0667 152.56 56.0204 152.561 55.9739C152.591 55.9004 152.635 55.8331 152.69 55.7753L152.72 55.7597ZM154.112 54.0324H156.737L155.428 50.7316L154.112 54.0324ZM167.205 50.1374C167.205 49.6659 167.965 49.6659 167.965 50.1374V52.6869H171.768V50.1616C171.768 50.1129 171.778 50.0648 171.797 50.0199C171.815 49.975 171.843 49.9343 171.878 49.9002C171.912 49.8661 171.954 49.8393 171.999 49.8213C172.044 49.8033 172.092 49.7945 172.141 49.7954C172.19 49.794 172.238 49.8025 172.284 49.8203C172.329 49.8382 172.371 49.865 172.406 49.8991C172.44 49.9333 172.468 49.9742 172.487 50.0193C172.505 50.0644 172.515 50.1128 172.514 50.1616V55.9497C172.512 56.0099 172.495 56.0688 172.466 56.1213C172.436 56.1738 172.394 56.2185 172.344 56.2518C172.294 56.285 172.236 56.3058 172.176 56.3125C172.116 56.3191 172.056 56.3114 171.999 56.29C171.931 56.263 171.873 56.2161 171.831 56.1554C171.79 56.0948 171.768 56.0231 171.768 55.9497V53.3726H167.965V55.9514C167.965 56.423 167.205 56.423 167.205 55.9514V50.1426V50.1374ZM187.446 50.1841V55.9428C187.446 55.9879 187.437 56.0324 187.419 56.0737C187.401 56.1151 187.375 56.1525 187.342 56.1837C187.31 56.2149 187.272 56.2393 187.229 56.2555C187.187 56.2717 187.143 56.2793 187.098 56.2779C187.006 56.2807 186.917 56.247 186.85 56.1842C186.783 56.1214 186.743 56.0346 186.74 55.9428V51.1047L182.89 56.0948C182.846 56.1599 182.787 56.2137 182.718 56.2521C182.65 56.2905 182.573 56.3123 182.494 56.3159C182.44 56.3191 182.385 56.3109 182.333 56.2919C182.282 56.2729 182.235 56.2434 182.196 56.2054C182.155 56.1685 182.123 56.1231 182.102 56.0724C182.08 56.0217 182.069 55.967 182.069 55.9117V50.153C182.072 50.0621 182.109 49.9755 182.173 49.9112C182.239 49.847 182.327 49.811 182.418 49.811C182.512 49.8095 182.602 49.8443 182.67 49.9081C182.739 49.9719 182.78 50.0597 182.785 50.153V54.9997L186.642 50.0079C186.682 49.9465 186.737 49.8962 186.802 49.8615C186.867 49.8268 186.939 49.8089 187.013 49.8093C187.07 49.8048 187.127 49.8125 187.181 49.8318C187.234 49.8511 187.283 49.8816 187.324 49.9213C187.365 49.961 187.397 50.009 187.419 50.062C187.44 50.1151 187.449 50.172 187.446 50.229V50.1841ZM202.365 50.1841V55.9428C202.361 56.0343 202.321 56.1206 202.254 56.1832C202.188 56.2458 202.099 56.2798 202.007 56.2779C201.916 56.2798 201.827 56.2458 201.76 56.1832C201.694 56.1206 201.654 56.0343 201.65 55.9428V51.1047L197.8 56.0948C197.757 56.154 197.701 56.203 197.637 56.2385C197.573 56.274 197.501 56.2951 197.428 56.3004C197.373 56.3031 197.318 56.2947 197.267 56.2757C197.215 56.2567 197.168 56.2275 197.128 56.1898C197.088 56.1525 197.056 56.1072 197.035 56.0568C197.012 56.0062 197.001 55.9514 197.002 55.8962V50.153C197.004 50.0604 197.042 49.9723 197.109 49.9077C197.142 49.8759 197.181 49.851 197.224 49.8344C197.267 49.8178 197.313 49.8099 197.359 49.811C197.451 49.811 197.541 49.8455 197.606 49.9112C197.673 49.9742 197.713 50.061 197.717 50.153V54.9997L201.574 50.0079C201.616 49.9481 201.672 49.8991 201.737 49.8648C201.802 49.8306 201.874 49.8122 201.947 49.811C202.03 49.809 202.112 49.8326 202.182 49.8786C202.251 49.9247 202.305 49.9909 202.336 50.0683C202.356 50.1193 202.366 50.174 202.365 50.229V50.1841ZM200.479 40.1797C200.001 40.2014 199.53 40.0639 199.139 39.7888C198.748 39.5137 198.459 39.1166 198.318 38.6597L185.386 7.02126L172.407 38.6511C172.259 39.1142 171.962 39.515 171.561 39.7905C171.161 40.0659 170.68 40.2004 170.194 40.1728C169.901 40.1903 169.606 40.1473 169.329 40.0466C169.053 39.9459 168.8 39.7896 168.586 39.5873C168.372 39.385 168.201 39.141 168.085 38.8703C167.969 38.5997 167.91 38.3082 167.911 38.0137C167.939 37.689 168.013 37.3712 168.132 37.0689L182.282 3.38362C182.49 2.71273 182.91 2.12764 183.48 1.71667C184.049 1.30569 184.737 1.09113 185.439 1.10535C186.136 1.09047 186.818 1.3061 187.379 1.71873C187.94 2.13136 188.35 2.71786 188.543 3.38708L202.524 37.0188C202.643 37.3211 202.717 37.6406 202.745 37.9619C202.761 38.4131 202.635 38.858 202.386 39.2347C202.137 39.6115 201.777 39.9013 201.356 40.064C201.077 40.1716 200.778 40.2205 200.479 40.2073V40.1832V40.1797ZM162.883 29.2253C161.009 33.2838 157.865 36.6223 153.927 38.7365C149.988 40.8508 145.468 41.626 141.05 40.945C136.632 40.2641 132.556 38.164 129.437 34.962C126.317 31.7599 124.325 27.6298 123.76 23.1955C123.195 18.7611 124.088 14.2633 126.305 10.3814C128.521 6.49951 131.941 3.44434 136.047 1.67734C140.153 -0.0896686 144.723 -0.47254 149.066 0.586549C153.409 1.64564 157.289 4.08917 160.121 7.54808C160.796 8.35989 161.403 9.22353 161.933 10.1355C162.29 10.7522 163.028 12.2946 163.066 12.4173C164.152 15.0116 164.695 17.7994 164.664 20.6097C164.673 20.8793 164.628 21.1479 164.531 21.3997C164.434 21.6514 164.288 21.8811 164.1 22.075C163.913 22.269 163.688 22.4231 163.44 22.5284C163.192 22.6336 162.925 22.6878 162.655 22.6876C162.474 22.7338 162.287 22.757 162.1 22.7567H139.522C139.232 22.7597 138.944 22.7054 138.675 22.597C138.406 22.4885 138.162 22.3279 137.955 22.1245C137.741 21.9199 137.572 21.6729 137.46 21.3992C137.347 21.1255 137.293 20.8313 137.3 20.5354C137.294 20.2361 137.348 19.9386 137.461 19.6612C137.574 19.3838 137.742 19.1323 137.955 18.9222C138.158 18.7123 138.401 18.5459 138.671 18.433C138.94 18.3202 139.23 18.2633 139.522 18.2658H160.32C159.717 14.4255 157.752 10.9304 154.785 8.41914C151.818 5.9079 148.046 4.54827 144.159 4.58873C140.272 4.6292 136.529 6.06706 133.615 8.63953C130.7 11.212 128.809 14.7473 128.286 18.5993C127.764 22.4513 128.645 26.3627 130.768 29.6188C132.892 32.8748 136.116 35.258 139.852 36.3328C143.587 37.4076 147.585 37.1022 151.114 35.4725C154.643 33.8427 157.468 30.9974 159.073 27.4566C160.244 24.9469 164.056 26.7122 162.883 29.253V29.2288V29.2253ZM32.6327 40.3403C32.2634 40.3386 31.8989 40.2558 31.5649 40.098C31.231 39.9401 30.9357 39.7109 30.6999 39.4266L17.7903 23.6048L4.91865 39.3973C4.6884 39.6861 4.3971 39.9205 4.06563 40.0835C3.73416 40.2466 3.37073 40.3343 3.00138 40.3403C2.54615 40.3293 2.10342 40.1892 1.72469 39.9364C1.34597 39.6836 1.04682 39.3284 0.86207 38.9122C0.677316 38.496 0.614547 38.0359 0.681069 37.5854C0.74759 37.135 0.940666 36.7127 1.23783 36.3676L14.8764 19.8463L2.72847 5.15062C2.36893 4.70954 2.18228 4.15265 2.20338 3.58399C2.18705 2.96039 2.41761 2.35558 2.84491 1.9011C3.27222 1.44663 3.86169 1.17926 4.4851 1.15717C5.22092 1.19517 5.91183 1.51989 6.41101 2.06226L17.8214 16.067L29.2317 2.06226C29.4538 1.79531 29.7285 1.57712 30.0388 1.42137C30.3492 1.26562 30.6883 1.17567 31.035 1.15717C31.6727 1.18488 32.2747 1.45888 32.7145 1.9215C33.1542 2.38411 33.3974 2.99928 33.3927 3.63753C33.3755 4.19026 33.1803 4.72399 32.8383 5.15753L20.8113 19.9084L34.3894 36.4246C34.7659 36.8392 34.9663 37.385 34.9456 37.9446C34.956 38.2553 34.9038 38.5649 34.7923 38.855C34.6807 39.1452 34.5119 39.4099 34.296 39.6335C34.0801 39.8572 33.8215 40.0351 33.5355 40.1569C33.2494 40.2786 32.9419 40.3416 32.631 40.3421L32.6327 40.3403Z" fill="black"/>
</g>
<defs>
<clipPath id="clip0_271_3174">
<rect width="202.091" height="57" fill="white" transform="translate(0.655273)"/>
</clipPath>
</defs>
</svg>
