<svg width="32" height="33" viewBox="0 0 32 33" fill="none" xmlns="http://www.w3.org/2000/svg">
<path d="M30.8643 21.4379C30.7632 21.555 30.6854 21.6955 30.561 21.7736C30.1645 22.0156 29.7058 21.7189 29.7058 21.2193C29.698 20.3449 29.7058 19.4628 29.7058 18.5884C29.7058 18.4791 29.7058 18.3777 29.7058 18.2528C20.5311 18.2528 11.3798 18.2528 2.18189 18.2528C2.18189 18.3933 2.18189 18.5338 2.18189 18.6821C2.18189 19.4784 2.18189 20.2825 2.18189 21.0788C2.18189 21.5159 2.05749 21.7423 1.76981 21.836C1.47436 21.9297 1.24888 21.8048 1.01562 21.4457C1.01562 20.1185 1.01562 18.7914 1.01562 17.4643C1.20223 17.1442 1.48991 17.0505 1.84756 17.0583C2.78835 17.0739 3.72914 17.0661 4.6777 17.0583C4.80988 17.0583 4.94983 17.0349 5.06646 16.9725C8.12985 15.4267 11.1855 13.881 14.2489 12.3353C14.28 12.3197 14.3111 12.2963 14.3188 12.2885C14.1089 12.0543 13.8912 11.8279 13.6891 11.5859C13.5647 11.4375 13.4713 11.2658 13.3858 11.0862C13.2303 10.7662 13.3392 10.4305 13.6269 10.2821C13.9223 10.1338 14.2489 10.2353 14.4121 10.5554C14.6687 11.0394 15.0341 11.3673 15.5706 11.4922C16.4881 11.703 17.4211 11.0862 17.5688 10.165C17.7243 9.17359 17.0479 8.28363 16.076 8.19775C15.5007 8.15091 15.3529 7.97917 15.3451 7.40928C15.3451 6.94088 15.3451 6.47248 15.3451 5.98066C15.2207 5.95724 15.0963 5.92601 14.9797 5.90259C13.0204 5.46542 11.5975 3.74014 11.5276 1.71821C11.5198 1.2342 11.7375 1 12.2351 1C14.6998 1 17.1723 1 19.637 1C20.1424 1 20.3601 1.2342 20.3368 1.74944C20.2357 3.84944 18.7895 5.52006 16.7369 5.92601C16.6669 5.94163 16.6047 5.95724 16.527 5.98066C16.527 6.33977 16.527 6.69887 16.527 7.05798C18.9217 7.64348 19.5904 10.7115 17.5144 12.2494C17.5922 12.2963 17.6621 12.3353 17.7321 12.3743C20.7411 13.8966 23.75 15.4189 26.759 16.9334C26.899 17.0037 27.07 17.0427 27.2255 17.0427C28.1585 17.0505 29.0915 17.0583 30.0246 17.0427C30.3822 17.0349 30.6699 17.1286 30.8565 17.4487C30.8643 18.7836 30.8643 20.1107 30.8643 21.4379ZM24.3332 17.0427C24.2243 16.9803 24.1854 16.949 24.1466 16.9334C21.4797 15.5829 18.8128 14.2323 16.1382 12.8896C16.0294 12.8349 15.835 12.8427 15.7184 12.9052C13.0904 14.2245 10.4624 15.5516 7.8344 16.8788C7.76442 16.9178 7.69444 16.9647 7.57004 17.0427C13.1759 17.0427 18.7118 17.0427 24.3332 17.0427ZM12.7794 2.18661C12.9193 3.63085 14.4432 4.87992 15.9905 4.83308C17.5533 4.79404 19.015 3.53717 19.0928 2.18661C16.9935 2.18661 14.8942 2.18661 12.7794 2.18661Z" fill="#333333" stroke="#333333" stroke-width="0.5" stroke-miterlimit="10"/>
<path d="M1.00778 25.7706C1.06998 25.6925 1.11663 25.6144 1.1866 25.5442C1.36543 25.3724 1.56758 25.3178 1.80084 25.4115C2.05741 25.513 2.17404 25.7159 2.17404 25.9814C2.17404 26.8401 2.17404 27.6988 2.17404 28.5576C2.17404 28.6825 2.17404 28.8074 2.17404 28.9635C11.3487 28.9635 20.5077 28.9635 29.6979 28.9635C29.6979 28.3077 29.6979 27.6598 29.6979 27.004C29.6979 26.684 29.6979 26.3639 29.6979 26.036C29.6979 25.6847 29.8457 25.4661 30.1256 25.388C30.3899 25.31 30.6154 25.4115 30.802 25.7003C30.8175 25.7237 30.8409 25.7393 30.8564 25.7628C30.8564 27.0899 30.8564 28.417 30.8564 29.7442C30.6854 30.0642 30.421 30.1579 30.0634 30.1579C20.6399 30.1501 11.2165 30.1501 1.79306 30.1579C1.43541 30.1579 1.17105 30.0642 1 29.7442C1.00778 28.4248 1.00778 27.0977 1.00778 25.7706Z" fill="#333333" stroke="#333333" stroke-width="0.5" stroke-miterlimit="10"/>
<path d="M1.00781 29.752C1.17886 30.072 1.44322 30.1657 1.80087 30.1657C11.2243 30.1579 20.6477 30.1579 30.0712 30.1657C30.4288 30.1657 30.6932 30.0642 30.8642 29.752C30.8642 30.0252 30.8642 30.2984 30.8642 30.5717C20.9121 30.5717 10.96 30.5717 1.00781 30.5717C1.00781 30.2984 1.00781 30.0252 1.00781 29.752Z" fill="white" stroke="#333333" stroke-width="0.5" stroke-miterlimit="10"/>
<path d="M1.00781 23.4286C1.15554 23.21 1.32659 23.007 1.62205 23.0304C1.8864 23.046 2.11965 23.2568 2.15853 23.5222C2.20518 23.772 2.06523 24.0297 1.83197 24.139C1.59095 24.2561 1.30327 24.1858 1.13221 23.975C1.08556 23.9126 1.04669 23.8501 1.00781 23.7877C1.00781 23.6628 1.00781 23.5457 1.00781 23.4286Z" fill="#333333" stroke="#333333" stroke-width="0.5" stroke-miterlimit="10"/>
<path d="M30.8644 23.7798C30.7089 23.9125 30.5767 24.0999 30.3979 24.1702C30.1413 24.2717 29.8536 24.0921 29.7447 23.8267C29.6437 23.5769 29.7214 23.2958 29.9469 23.1319C30.1802 22.9679 30.4834 22.9914 30.6855 23.2021C30.7477 23.2724 30.8022 23.3505 30.8644 23.4285C30.8644 23.5456 30.8644 23.6627 30.8644 23.7798Z" fill="#333333" stroke="#333333" stroke-width="0.5" stroke-miterlimit="10"/>
<path d="M15.3525 23.6394C15.3525 22.6245 15.3525 21.6096 15.3525 20.6026C15.3525 20.1654 15.5625 19.9156 15.9279 19.9078C16.3011 19.9 16.5188 20.1576 16.5188 20.6104C16.5188 22.6167 16.5188 24.623 16.5188 26.6293C16.5188 27.0509 16.2933 27.3241 15.9434 27.3319C15.5858 27.3397 15.3525 27.0587 15.3525 26.6215C15.3525 25.6223 15.3525 24.6308 15.3525 23.6394Z" fill="#333333" stroke="#333333" stroke-width="0.5" stroke-miterlimit="10"/>
<path d="M5.27685 23.6316C5.27685 24.6621 5.28463 25.7004 5.27685 26.7309C5.27685 27.0744 5.03582 27.3164 4.72482 27.332C4.41381 27.3476 4.16501 27.1134 4.12613 26.7699C4.11836 26.6762 4.11836 26.5747 4.11836 26.4811C4.11836 24.8026 4.11836 23.1242 4.11836 21.4458C4.11836 21.1179 4.10281 20.7822 4.12613 20.4543C4.14946 20.1342 4.37494 19.9235 4.67039 19.9078C4.9503 19.8922 5.1991 20.064 5.2613 20.3294C5.28463 20.4387 5.28463 20.5636 5.28463 20.6807C5.27685 21.6565 5.27685 22.6402 5.27685 23.6316Z" fill="#333333" stroke="#333333" stroke-width="0.5" stroke-miterlimit="10"/>
<path d="M11.6133 23.6081C11.6133 22.6323 11.6133 21.6565 11.6133 20.6806C11.6133 20.5869 11.6055 20.4854 11.621 20.3918C11.6677 20.1263 11.831 19.9546 12.1031 19.9156C12.3752 19.8765 12.624 20.0092 12.7173 20.2512C12.764 20.3683 12.7795 20.5011 12.7795 20.626C12.7795 22.6245 12.7795 24.6308 12.7795 26.6293C12.7795 26.6839 12.7795 26.7464 12.7718 26.801C12.7251 27.1211 12.4763 27.3475 12.1809 27.3397C11.8699 27.3319 11.621 27.0821 11.621 26.7464C11.6133 25.6925 11.6133 24.6542 11.6133 23.6081Z" fill="#333333" stroke="#333333" stroke-width="0.5" stroke-miterlimit="10"/>
<path d="M20.259 23.6082C20.259 24.6152 20.259 25.6223 20.259 26.6215C20.259 27.0509 20.0413 27.3241 19.6915 27.3241C19.3338 27.3319 19.0928 27.0509 19.0928 26.6137C19.0928 24.5996 19.0928 22.5933 19.0928 20.5792C19.0928 20.2123 19.2561 19.9702 19.536 19.9078C19.9325 19.8141 20.2513 20.0873 20.2513 20.5245C20.2668 21.5628 20.259 22.5855 20.259 23.6082Z" fill="#333333" stroke="#333333" stroke-width="0.5" stroke-miterlimit="10"/>
<path d="M26.5957 23.6081C26.5957 22.64 26.5957 21.6798 26.5957 20.7118C26.5957 20.6181 26.5957 20.5166 26.6035 20.4229C26.6346 20.1419 26.8445 19.9389 27.1166 19.9155C27.4043 19.8921 27.6453 20.0404 27.7231 20.3136C27.7542 20.4229 27.762 20.5478 27.762 20.6571C27.762 22.64 27.762 24.6151 27.762 26.598C27.762 26.6683 27.762 26.7385 27.7542 26.801C27.7075 27.1211 27.4587 27.3475 27.1633 27.3396C26.8523 27.3318 26.6035 27.0898 26.6035 26.7463C26.5879 25.6924 26.5957 24.6541 26.5957 23.6081Z" fill="#333333" stroke="#333333" stroke-width="0.5" stroke-miterlimit="10"/>
<path d="M9.03206 23.6082C9.03206 24.6153 9.03206 25.6145 9.03206 26.6216C9.03206 27.0275 8.86879 27.2539 8.55001 27.3164C8.26233 27.371 7.97465 27.1915 7.8969 26.9104C7.88135 26.848 7.87357 26.7777 7.87357 26.7075C7.87357 24.6465 7.8658 22.5933 7.87357 20.5324C7.87357 20.1264 8.12238 19.8922 8.48003 19.9078C8.80659 19.9235 9.02429 20.1577 9.03206 20.5402C9.03984 21.0632 9.03206 21.5941 9.03206 22.1171C9.03206 22.6168 9.03206 23.1086 9.03206 23.6082Z" fill="#333333" stroke="#333333" stroke-width="0.5" stroke-miterlimit="10"/>
<path d="M22.8398 23.6315C22.8398 22.6166 22.8398 21.6018 22.8398 20.5869C22.8398 20.1497 23.0653 19.8999 23.423 19.8999C23.7107 19.8999 23.9439 20.0951 23.9906 20.3839C24.0061 20.4932 24.0061 20.5947 24.0061 20.704C24.0061 22.6322 24.0061 24.5683 24.0061 26.4965C24.0061 26.6058 24.0061 26.7151 23.9906 26.8166C23.9517 27.1055 23.7184 27.3162 23.4385 27.3241C23.1586 27.3319 22.9098 27.1289 22.8632 26.8478C22.8398 26.7307 22.8398 26.6136 22.8398 26.4965C22.8398 25.5441 22.8398 24.5917 22.8398 23.6315Z" fill="#333333" stroke="#333333" stroke-width="0.5" stroke-miterlimit="10"/>
<path d="M23.8519 33H7.72195C7.4421 33 7.1833 32.8549 7.03563 32.6179C6.88869 32.3801 6.87503 32.0833 7.00018 31.833L15.0651 15.703C15.3387 15.1563 16.2347 15.1563 16.5079 15.703L24.5729 31.833C24.6981 32.0833 24.6844 32.3801 24.5375 32.6179C24.3909 32.8549 24.1317 33 23.8519 33ZM9.02667 31.387H22.5472L15.7869 17.8669L9.02667 31.387Z" fill="#333333"/>
<path d="M9.02667 31.387H22.5472L15.7869 17.8669L9.02667 31.387Z" fill="white"/>
<path d="M15.7858 25.7418C15.3406 25.7418 14.9795 25.3804 14.9795 24.9351V21.7091C14.9795 21.2639 15.3406 20.9025 15.7858 20.9025C16.231 20.9025 16.5925 21.2639 16.5925 21.7091V24.9351C16.5925 25.3804 16.231 25.7418 15.7858 25.7418Z" fill="#333333"/>
<path d="M15.7858 29.7742C15.3406 29.7742 14.9795 29.4131 14.9795 28.9679V28.1612C14.9795 27.7159 15.3406 27.3549 15.7858 27.3549C16.231 27.3549 16.5925 27.7159 16.5925 28.1612V28.9679C16.5925 29.4131 16.231 29.7742 15.7858 29.7742Z" fill="#333333"/>
</svg>
