<svg width="40" height="40" viewBox="0 0 40 40" fill="none" xmlns="http://www.w3.org/2000/svg">
<g clip-path="url(#clip0_271_2487)">
<path d="M30.9615 0C30.9615 4.28533 30.9615 8.57066 30.9615 12.8775C30.5198 12.8775 30.1212 12.8775 29.6795 12.8775C29.6795 9.01211 29.6795 5.179 29.6795 1.31359C20.1993 1.31359 10.773 1.31359 1.3143 1.31359C1.3143 9.89502 1.3143 18.4764 1.3143 27.0686C2.58551 27.0686 3.84595 27.0686 5.16025 27.0686C5.16025 25.3674 5.16025 23.6662 5.16025 21.9435C9.69566 21.9435 14.1772 21.9435 18.6911 21.9435C18.6911 25.7981 18.6911 29.642 18.6911 33.5182C15.9117 33.5182 13.1538 33.5182 10.3528 33.5182C10.3528 34.3795 10.3528 35.2086 10.3528 36.07C14.7374 36.07 19.1328 36.07 23.5497 36.07C23.4851 35.9946 23.4312 35.9192 23.3773 35.8654C21.6537 34.2503 20.6949 32.2692 20.6518 29.9112C20.5979 26.4549 20.6302 22.9987 20.6302 19.5424C20.6302 19.4886 20.641 19.4455 20.6518 19.3378C20.8349 19.3378 21.0073 19.3486 21.1796 19.3378C22.397 19.2732 23.6466 19.3378 24.8424 19.1225C26.9647 18.7241 28.6022 17.5074 29.798 15.7093C29.9596 15.4724 30.1104 15.2463 30.2936 14.9771C30.6491 15.4616 30.9507 15.9354 31.3062 16.3661C32.8898 18.2719 34.9259 19.2624 37.4037 19.3271C38.244 19.3486 39.0951 19.3271 39.9569 19.3271C39.9677 19.4455 39.9892 19.5209 39.9892 19.5962C39.9892 23.0417 40.0323 26.4872 39.9677 29.9327C39.9138 32.8075 38.6211 35.1009 36.2187 36.6514C34.3765 37.8466 32.4158 38.8694 30.4983 39.9569C30.3905 40.0215 30.1751 39.9785 30.0566 39.9031C28.6992 39.1494 27.3633 38.3634 26.0059 37.6097C25.7689 37.4805 25.4673 37.4051 25.198 37.4051C20.07 37.3943 14.9421 37.3943 9.81417 37.4051C9.53407 37.4051 9.32938 37.319 9.13547 37.1252C6.18368 34.175 3.23189 31.2248 0.269324 28.2746C0.0754107 28.0808 0 27.8977 0 27.6285C0.010773 18.5518 0 9.46433 0.010773 0.387618C0.010773 0.258412 0.0215459 0.129206 0.0323189 0C10.342 0 20.6518 0 30.9615 0ZM21.9445 20.6299C21.9445 20.8345 21.9445 20.9529 21.9445 21.0606C21.9445 23.8923 21.9337 26.7241 21.9445 29.5559C21.9553 32.3769 23.2157 34.498 25.6396 35.9192C27.1048 36.7699 28.5807 37.5989 30.0458 38.4495C30.2612 38.5787 30.4121 38.5572 30.606 38.4388C32.0711 37.5882 33.5578 36.7699 35.0121 35.9085C37.4468 34.4764 38.6749 32.3445 38.6965 29.5236C38.718 26.7026 38.6965 23.8923 38.6965 21.0713C38.6965 20.9314 38.6965 20.8022 38.6965 20.6191C35.3245 20.8237 32.502 19.79 30.3043 17.2167C28.1174 19.8008 25.2949 20.8237 21.9445 20.6299ZM17.3876 32.2369C17.3876 29.2113 17.3876 26.2288 17.3876 23.2355C13.7355 23.2355 10.1158 23.2355 6.48532 23.2355C6.48532 24.5276 6.48532 25.7981 6.48532 27.1009C7.77808 27.1009 9.03851 27.1009 10.342 27.1009C10.342 28.8345 10.342 30.5249 10.342 32.2369C12.7121 32.2369 15.0283 32.2369 17.3876 32.2369ZM2.38082 28.393C4.60005 30.611 6.81928 32.8291 9.01697 35.0256C9.01697 32.8614 9.01697 30.6326 9.01697 28.393C6.77619 28.393 4.55696 28.393 2.38082 28.393Z" fill="#EF3900"/>
<path d="M3.87793 6.41729C3.87793 5.136 3.87793 3.887 3.87793 2.60571C11.6129 2.60571 19.3264 2.60571 27.0721 2.60571C27.0721 3.86547 27.0721 5.12523 27.0721 6.41729C19.3479 6.41729 11.6345 6.41729 3.87793 6.41729ZM25.7794 3.887C18.9062 3.887 12.0546 3.887 5.19223 3.887C5.19223 4.31769 5.19223 4.72684 5.19223 5.136C12.0654 5.136 18.917 5.136 25.7794 5.136C25.7794 4.72684 25.7794 4.32846 25.7794 3.887Z" fill="#EF3900"/>
<path d="M3.88867 10.2934C3.88867 9.86274 3.88867 9.46435 3.88867 9.04443C10.751 9.04443 17.6027 9.04443 24.4866 9.04443C24.4866 9.45359 24.4866 9.86274 24.4866 10.2934C17.6242 10.2934 10.7726 10.2934 3.88867 10.2934Z" fill="#EF3900"/>
<path d="M3.88867 12.8774C3.88867 12.4467 3.88867 12.0483 3.88867 11.6284C10.7618 11.6284 17.6027 11.6284 24.4866 11.6284C24.4866 12.0376 24.4866 12.4467 24.4866 12.8774C17.6242 12.8774 10.7726 12.8774 3.88867 12.8774Z" fill="#EF3900"/>
<path d="M3.87793 15.4509C3.87793 15.0202 3.87793 14.6326 3.87793 14.2126C10.7403 14.2126 17.6027 14.2126 24.4866 14.2126C24.4866 14.611 24.4866 15.0202 24.4866 15.4509C17.6242 15.4509 10.7726 15.4509 3.87793 15.4509Z" fill="#EF3900"/>
<path d="M3.88867 18.0351C3.88867 17.6152 3.88867 17.2168 3.88867 16.7861C7.96085 16.7861 12.0223 16.7861 16.1052 16.7861C16.1052 17.2061 16.1052 17.6044 16.1052 18.0351C12.0438 18.0351 7.9824 18.0351 3.88867 18.0351Z" fill="#EF3900"/>
<path d="M3.89941 19.3594C7.99314 19.3594 12.0438 19.3594 16.116 19.3594C16.116 19.7793 16.116 20.1777 16.116 20.6084C12.0438 20.6084 7.99314 20.6084 3.89941 20.6084C3.89941 20.1992 3.89941 19.7901 3.89941 19.3594Z" fill="#EF3900"/>
<path d="M25.8125 10.3042C25.8125 9.87348 25.8125 9.4751 25.8125 9.05518C26.2326 9.05518 26.642 9.05518 27.0729 9.05518C27.0729 9.4751 27.0729 9.88425 27.0729 10.3042C26.6528 10.3042 26.2542 10.3042 25.8125 10.3042Z" fill="#EF3900"/>
<path d="M27.0836 11.6284C27.0836 12.0483 27.0836 12.4467 27.0836 12.8774C26.6635 12.8774 26.2649 12.8774 25.834 12.8774C25.834 12.4683 25.834 12.0591 25.834 11.6284C26.2434 11.6284 26.6312 11.6284 27.0836 11.6284Z" fill="#EF3900"/>
<path d="M25.834 14.2019C26.2541 14.2019 26.6527 14.2019 27.0729 14.2019C27.0729 14.6218 27.0729 15.031 27.0729 15.4617C26.6527 15.4617 26.2649 15.4617 25.834 15.4617C25.834 15.0525 25.834 14.6434 25.834 14.2019Z" fill="#EF3900"/>
<path d="M18.6911 16.7859C18.6911 17.195 18.6911 17.5934 18.6911 18.0241C18.2709 18.0241 17.8616 18.0241 17.4414 18.0241C17.4414 17.6042 17.4414 17.2058 17.4414 16.7859C17.84 16.7859 18.2386 16.7859 18.6911 16.7859Z" fill="#EF3900"/>
<path d="M18.691 19.3701C18.691 19.79 18.691 20.1884 18.691 20.6191C18.2709 20.6191 17.8723 20.6191 17.4521 20.6191C17.4521 20.21 17.4521 19.8008 17.4521 19.3701C17.8507 19.3701 18.2493 19.3701 18.691 19.3701Z" fill="#EF3900"/>
<path d="M35.6158 22.1587C35.9713 22.4925 36.2514 22.7617 36.51 22.9985C33.3643 26.1425 30.2186 29.2866 27.1052 32.3983C26.1464 31.44 25.1445 30.4386 24.1318 29.4265C24.3796 29.1896 24.6813 28.8989 24.9937 28.619C25.6616 29.2973 26.3511 29.9864 27.0729 30.7078C29.9492 27.8222 32.8041 24.9689 35.6158 22.1587Z" fill="#EF3900"/>
<path d="M34.495 34.7348C34.2688 34.3472 34.0748 33.9919 33.8594 33.6258C33.9563 33.5504 34.0533 33.4858 34.1395 33.4212C35.4215 32.506 36.0894 31.2678 36.1217 29.7065C36.1432 28.5544 36.1217 27.4131 36.1217 26.261C36.1217 26.1211 36.1217 25.9811 36.1217 25.8196C36.5634 25.8196 36.9512 25.8196 37.3498 25.8196C37.3714 25.8734 37.3929 25.9057 37.3929 25.9488C37.3929 27.3808 37.4575 28.8236 37.3498 30.2557C37.2205 32.1937 36.1971 33.6581 34.495 34.7348Z" fill="#EF3900"/>
<path d="M7.75684 25.7658C7.75684 25.3352 7.75684 24.9368 7.75684 24.5168C10.5363 24.5168 13.3049 24.5168 16.0951 24.5168C16.0951 24.926 16.0951 25.3244 16.0951 25.7658C13.3265 25.7658 10.5686 25.7658 7.75684 25.7658Z" fill="#EF3900"/>
<path d="M11.6455 27.0901C13.1429 27.0901 14.5973 27.0901 16.0947 27.0901C16.0947 27.51 16.0947 27.9084 16.0947 28.3391C14.6188 28.3391 13.1429 28.3391 11.6455 28.3391C11.6455 27.9407 11.6455 27.5315 11.6455 27.0901Z" fill="#EF3900"/>
<path d="M11.6455 29.6851C13.1322 29.6851 14.5973 29.6851 16.1055 29.6851C16.1055 30.0942 16.1055 30.5034 16.1055 30.934C14.6188 30.934 13.1429 30.934 11.6455 30.934C11.6455 30.5249 11.6455 30.1265 11.6455 29.6851Z" fill="#EF3900"/>
</g>
<defs>
<clipPath id="clip0_271_2487">
<rect width="40" height="40" fill="white"/>
</clipPath>
</defs>
</svg>
