<svg width="33" height="31" viewBox="0 0 33 31" fill="none" xmlns="http://www.w3.org/2000/svg">
<path d="M32.6937 11.6742C32.5513 12.1416 32.4027 12.6091 32.2635 13.0799C30.5612 18.838 28.8589 24.5928 27.1566 30.351C27.1411 30.3984 27.1256 30.4458 27.1101 30.5C20.2731 30.5 13.433 30.5 6.58044 30.5C6.48759 30.185 6.39164 29.8666 6.29569 29.5482C4.55316 23.6444 2.80753 17.744 1.065 11.8402C1.04643 11.7826 1.02167 11.7284 1 11.6708C1 11.4439 1 11.2203 1 10.9934C3.14489 10.9934 5.28979 10.9934 7.43778 10.9968C7.56158 10.9968 7.6142 10.9595 7.66062 10.8342C8.89247 7.44705 10.1305 4.06328 11.3685 0.679519C11.3902 0.621937 11.4119 0.567743 11.4397 0.5C11.7461 0.635486 12.0464 0.764198 12.3559 0.899684C11.124 4.2699 9.89837 7.61979 8.66962 10.9866C14.1263 10.9866 19.5643 10.9866 25.0271 10.9866C23.7984 7.62318 22.5727 4.2699 21.3409 0.899684C21.6473 0.764198 21.9413 0.635486 22.2539 0.5C22.2787 0.560969 22.3035 0.61855 22.3251 0.679519C23.5601 4.0599 24.7981 7.43688 26.03 10.8173C26.0795 10.9561 26.1383 10.9968 26.2745 10.9968C28.4163 10.99 30.555 10.9934 32.6968 10.9934C32.6937 11.2203 32.6937 11.4473 32.6937 11.6742ZM2.18232 12.0874C2.20089 12.1484 2.21327 12.2026 2.22875 12.2568C3.90009 17.9066 5.57144 23.5597 7.2366 29.2095C7.28612 29.3822 7.35111 29.4263 7.51206 29.4263C13.7425 29.4195 19.9729 29.4229 26.2064 29.4263C26.3456 29.4263 26.4045 29.389 26.4509 29.2332C28.0201 23.9086 29.5955 18.584 31.1678 13.2628C31.2823 12.8733 31.3968 12.4837 31.5113 12.0874C21.7278 12.0874 11.9597 12.0874 2.18232 12.0874Z" fill="#333333" stroke="#333333" stroke-width="0.5" stroke-miterlimit="10"/>
<path d="M12.043 20.6265C12.2937 20.3522 12.5227 20.1049 12.7517 19.8509C13.7731 20.9686 14.8038 22.0999 15.8283 23.2211C17.8617 20.9957 19.8859 18.7805 21.8915 16.5823C22.1453 16.86 22.3713 17.1073 22.6096 17.3681C22.5972 17.3816 22.5632 17.4257 22.5229 17.4697C20.4585 19.7289 18.3941 21.9882 16.3328 24.2508C16.2461 24.3456 16.1563 24.3727 16.0387 24.3897C15.658 24.4439 15.3949 24.288 15.1288 23.9866C14.1538 22.8824 13.151 21.8087 12.1575 20.7214C12.1203 20.6807 12.0739 20.6536 12.043 20.6265Z" fill="#333333" stroke="#333333" stroke-width="0.5" stroke-miterlimit="10"/>
</svg>
