<svg width="26" height="26" viewBox="0 0 26 26" fill="none" xmlns="http://www.w3.org/2000/svg">
<path d="M14.0332 16.4893L13.5581 16.2532C12.7562 15.8548 12.0355 15.4747 11.3727 14.9515C10.7008 14.421 10.1091 13.7606 9.52395 12.8156L9.28114 12.4235L9.57112 12.0648C9.63672 11.9836 9.71939 11.8918 9.77592 11.829C9.78438 11.8196 9.79226 11.8108 9.79941 11.8029L9.80021 11.802C10.0005 11.5795 10.2066 11.3446 10.3257 11.0774C10.4314 10.8404 10.4573 10.6063 10.3177 10.3292C9.88907 9.48129 9.67301 8.88393 9.51914 8.45854L9.51654 8.45135C9.51652 8.45129 9.5165 8.45123 9.51648 8.45117C9.29641 7.84336 9.15746 7.64005 9.01069 7.53528C8.86314 7.42995 8.58696 7.34067 7.84529 7.34067C7.35832 7.34067 6.83389 7.66413 6.39664 8.30394C5.96622 8.93374 5.70371 9.76114 5.70371 10.5084C5.70371 12.1721 6.8555 14.1433 8.63126 15.8715C10.3895 17.5827 12.6227 18.9196 14.5375 19.3737L14.0332 16.4893ZM14.0332 16.4893L14.3597 16.071M14.0332 16.4893L14.3597 16.071M14.3597 16.071C14.4559 15.9477 14.5397 15.8377 14.6176 15.7354C14.7242 15.5953 14.8199 15.4696 14.9217 15.3439C15.0893 15.1369 15.2225 14.9961 15.3445 14.902C15.4581 14.8144 15.5494 14.7773 15.6386 14.7647C15.7311 14.7516 15.8737 14.7578 16.0984 14.8384C16.1904 14.8735 16.892 15.1433 17.6109 15.4708C17.9804 15.639 18.3407 15.8164 18.6213 15.9799C18.7621 16.062 18.8705 16.1336 18.9457 16.192C18.9825 16.2205 19.0027 16.2394 19.012 16.2485M14.3597 16.071L19.012 16.2485M19.012 16.2485C19.1003 16.4263 19.1501 16.7425 19.0678 17.1587C18.9844 17.5808 18.775 18.0443 18.4281 18.4484C17.7599 19.2268 16.5269 19.8439 14.5376 19.3737L19.012 16.2485Z" stroke="#EF3900" stroke-width="1.3"/>
<path d="M0.661243 25.1489L0.661457 25.1481L2.30094 19.2293L2.37188 18.9731L2.24305 18.7407C-1.10206 12.705 1.1994 6.63328 5.67707 3.26949C10.1494 -0.0902865 16.7092 -0.680586 21.8599 4.25623C29.3537 11.9411 24.011 25.1185 13.1424 25.1424C12.9647 25.1262 12.7775 25.1128 12.5804 25.0987C11.3099 25.008 9.62993 24.8881 7.47703 23.7993L7.25863 23.6889L7.02162 23.7499C4.43968 24.4147 2.93516 24.8073 2.04836 25.0387C1.82096 25.098 1.63417 25.1468 1.48025 25.1868C1.09651 25.2866 0.931155 25.3283 0.848488 25.3462C0.841509 25.3477 0.83587 25.3489 0.831421 25.3498C0.828522 25.3498 0.82526 25.3498 0.821603 25.3498C0.7063 25.3498 0.634673 25.2444 0.661243 25.1489Z" stroke="#EF3900" stroke-width="1.3"/>
</svg>
