<svg width="47" height="40" viewBox="0 0 47 40" fill="none" xmlns="http://www.w3.org/2000/svg">
<g clip-path="url(#clip0_271_2512)">
<path d="M26.4036 29.0305C27.6138 29.4737 28.824 29.8061 29.9241 30.2493C30.0341 30.2493 30.0341 30.2493 30.1441 30.2493C31.3543 29.8061 32.5645 29.3629 33.8847 28.9197C33.7747 28.8089 33.6647 28.8089 33.5547 28.6981C31.7944 27.1468 31.2443 24.7092 32.2345 22.6039C33.2246 20.4986 35.4249 19.2798 37.7353 19.6122C39.9356 19.9446 41.6959 21.7175 42.0259 23.9335C42.466 26.9252 40.3757 29.6953 37.2952 29.9169C35.4249 30.0277 33.8847 30.8034 32.2345 31.2466C32.7845 32.0222 33.3346 32.7978 33.6647 33.5734C33.9947 34.4599 34.1047 35.3463 34.3248 36.3435C34.3248 36.3435 34.5448 36.3435 34.6548 36.3435C37.7353 36.3435 40.7057 36.3435 43.7862 36.3435C44.3363 36.3435 44.4463 36.1219 44.4463 35.6787C44.4463 35.2355 44.4463 34.6815 44.4463 34.2383C44.4463 33.0194 43.6762 32.0222 42.576 31.579C42.356 31.4682 42.0259 31.3574 41.8059 31.2466C41.3658 31.025 41.1458 30.5817 41.3658 30.1385C41.4758 29.6953 41.9159 29.5845 42.356 29.6953C44.8864 30.3601 46.2066 32.0222 46.2066 34.6815C46.2066 35.2355 46.2066 35.6787 46.2066 36.2327C46.2066 37.2299 45.5465 37.8948 44.5563 38.1164C44.3363 38.1164 44.1162 38.1164 43.8962 38.1164C40.9258 38.1164 37.9553 38.1164 34.9849 38.1164C34.7648 38.1164 34.5448 38.1164 34.3248 38.1164C34.3248 38.2272 34.2148 38.338 34.2148 38.4488C33.8847 39.446 33.1146 40.1108 32.0144 40.1108C29.4841 40.1108 26.9537 40.1108 24.4233 40.1108C21.1228 40.1108 17.7123 40.1108 14.4118 40.1108C12.9816 40.1108 12.3215 39.5568 11.9914 38.1164C11.7714 38.1164 11.6614 38.1164 11.4414 38.1164C8.80097 38.1164 6.16057 38.1164 3.52018 38.1164C0.769768 38.2272 -0.000346988 37.8948 0.109669 34.6815C0.109669 34.3491 0.109669 33.9058 0.219686 33.5734C0.549735 31.6898 2.08996 30.1385 3.96024 29.8061C4.40031 29.6953 4.84037 29.9169 4.95039 30.3601C4.95039 30.6925 4.84038 31.025 4.40031 31.2466C4.18028 31.3574 3.85023 31.4682 3.63019 31.4682C2.42001 31.9114 1.75992 32.9086 1.6499 34.2383C1.6499 34.7923 1.6499 35.3463 1.6499 35.9003C1.6499 36.2327 1.75992 36.3435 2.08996 36.3435C5.28044 36.3435 8.58093 36.3435 11.7714 36.3435C11.7714 36.3435 11.8814 36.3435 11.9914 36.2327C11.8814 34.2383 12.4315 32.5762 14.0818 31.2466C12.3215 30.8034 10.7813 30.0277 9.021 29.9169C6.38061 29.8061 4.29029 27.7009 4.18028 25.1524C3.96024 22.3823 5.72051 20.1662 8.3609 19.6122C10.5612 19.169 12.7616 20.277 13.8617 22.2715C14.9619 24.266 14.5218 26.8144 12.8716 28.3657C12.7616 28.4765 12.5415 28.5873 12.4315 28.8089C12.9816 29.0305 13.4217 29.1413 13.8617 29.3629C14.5218 29.5845 15.1819 29.8061 15.842 30.1385C15.952 30.1385 16.062 30.2493 16.1721 30.2493C17.3822 29.9169 18.4824 29.4737 19.8026 29.0305C15.952 26.2604 16.6121 21.4959 18.9225 19.169C21.3428 16.8421 25.4134 16.9529 27.7238 19.5014C29.8141 22.0499 30.0341 26.482 26.4036 29.0305ZM23.1031 38.338C26.0735 38.338 28.934 38.338 31.9044 38.338C32.5645 38.338 32.6745 38.2272 32.6745 37.5624C32.6745 36.8975 32.6745 36.1219 32.6745 35.4571C32.6745 33.9058 31.7944 32.5762 30.2542 32.0222C28.7139 31.4682 27.2837 30.9142 25.7435 30.4709C24.6433 30.1385 23.4331 29.8061 22.333 30.1385C20.1327 30.6925 17.9323 31.3574 15.842 32.2438C14.5218 32.7978 13.7517 33.9058 13.7517 35.4571C13.7517 36.2327 13.7517 36.8975 13.7517 37.6732C13.7517 38.338 13.8617 38.4488 14.5218 38.4488C17.2722 38.338 20.1327 38.338 23.1031 38.338ZM23.1031 28.2549C25.7435 28.2549 27.6138 26.3712 27.7238 23.7119C27.7238 21.1635 25.8535 19.169 23.2131 19.169C20.5727 19.169 18.7024 21.0527 18.7024 23.7119C18.4824 26.3712 20.4627 28.2549 23.1031 28.2549ZM36.9652 21.1635C35.0949 21.1635 33.4446 22.7147 33.4446 24.7092C33.4446 26.5928 34.9849 28.2549 36.8552 28.2549C38.7254 28.2549 40.3757 26.7036 40.3757 24.7092C40.4857 22.8255 38.9455 21.1635 36.9652 21.1635ZM9.13102 28.2549C11.0013 28.2549 12.6515 26.7036 12.6515 24.82C12.6515 22.9363 11.2213 21.2743 9.24103 21.2743C7.26074 21.2743 5.61049 22.7147 5.61049 24.5984C5.61049 26.5928 7.15072 28.1441 9.13102 28.2549Z" fill="#EF3900"/>
<path d="M19.0321 3.76731C19.4722 3.76731 20.1323 3.87812 20.4623 3.65651C20.7924 3.4349 20.7924 2.88089 20.9024 2.43767C21.0124 1.99446 21.1224 1.66205 21.3425 1.21884C21.6725 0.443213 22.3326 0 23.1027 0C23.8728 0 24.5329 0.443213 24.863 1.21884C25.083 1.88366 25.3031 2.65928 25.5231 3.3241C25.6331 3.65651 25.7431 3.76731 26.0732 3.76731C26.7333 3.76731 27.3934 3.76731 28.0535 3.76731C29.0436 3.76731 29.7037 4.32133 29.9237 5.09695C30.1438 5.87258 29.9237 6.759 29.1536 7.31302C28.6035 7.75623 28.0535 8.08864 27.5034 8.53186C27.2833 8.64266 27.1733 8.86427 27.2833 9.08587C27.5034 9.75069 27.7234 10.4155 27.9434 10.9695C28.2735 11.856 27.9434 12.7424 27.2833 13.1856C26.6232 13.7396 25.7431 13.6288 24.973 13.0748C24.4229 12.7424 23.8728 12.2992 23.4328 11.9668C23.2127 11.7452 22.9927 11.7452 22.7727 11.9668C22.2226 12.41 21.6725 12.7424 21.1224 13.1856C20.3523 13.7396 19.4722 13.7396 18.8121 13.1856C18.152 12.7424 17.932 11.856 18.152 10.9695C18.372 10.3047 18.5921 9.63989 18.8121 8.97507C18.9221 8.64266 18.9221 8.53186 18.5921 8.31025C18.042 7.97784 17.4919 7.53463 16.9418 7.09141C16.1717 6.5374 15.9517 5.76177 16.1717 4.87535C16.3917 4.09972 17.1618 3.54571 18.042 3.54571C18.372 3.76731 18.7021 3.76731 19.0321 3.76731ZM19.6922 5.42936C19.2521 5.42936 18.7021 5.42936 18.262 5.42936C18.152 5.42936 17.932 5.54017 17.8219 5.65097C17.932 5.76177 17.932 5.98338 18.042 6.09418C18.8121 6.6482 19.5822 7.20222 20.2423 7.75623C20.6824 8.08864 20.7924 8.42105 20.5723 8.86427C20.2423 9.75069 20.0223 10.6371 19.6922 11.5235C19.6922 11.6343 19.6922 11.856 19.6922 11.9668C19.8022 11.9668 20.0223 11.9668 20.1323 11.856C20.9024 11.3019 21.5625 10.8587 22.3326 10.3047C22.8827 9.8615 23.1027 9.8615 23.6528 10.3047C24.4229 10.8587 25.083 11.4127 25.8531 11.856C25.9632 11.9668 26.1832 11.9668 26.2932 11.9668C26.2932 11.856 26.4032 11.6343 26.2932 11.5235C26.0732 10.6371 25.7431 9.75069 25.4131 8.86427C25.193 8.31025 25.4131 7.97784 25.8531 7.64543C26.6232 7.09141 27.2833 6.5374 28.0535 5.98338C28.1635 5.87258 28.2735 5.76177 28.2735 5.54017C28.1635 5.42936 27.9434 5.31856 27.8334 5.31856C26.9533 5.31856 25.9632 5.31856 25.083 5.31856C24.5329 5.31856 24.2029 5.09695 24.0929 4.54294C23.8728 3.65651 23.5428 2.88089 23.2127 1.99446C23.2127 1.88366 22.9927 1.66205 22.8827 1.55125C22.7727 1.66205 22.6627 1.77285 22.5526 1.99446C22.2226 2.88089 22.0026 3.65651 21.6725 4.54294C21.5625 5.09695 21.2324 5.31856 20.6824 5.31856C20.4623 5.42936 20.0223 5.42936 19.6922 5.42936Z" fill="#EF3900"/>
<path d="M8.25063 6.20508C8.91073 6.20508 9.57083 6.53749 9.79086 7.31311C10.0109 7.75632 10.1209 8.31034 10.3409 8.86436C10.451 8.97516 10.561 9.19677 10.781 9.19677C11.2211 9.19677 11.7712 9.19677 12.3212 9.19677C13.2014 9.19677 13.7515 9.63998 13.9715 10.4156C14.1915 11.1912 13.9715 11.856 13.2014 12.4101C12.8713 12.7425 12.4313 12.9641 12.1012 13.2965C11.9912 13.4073 11.8812 13.6289 11.9912 13.8505C12.1012 14.2937 12.3212 14.8477 12.4313 15.291C12.6513 16.0666 12.4313 16.8422 11.7712 17.2854C11.1111 17.7286 10.451 17.7286 9.79086 17.1746C9.3508 16.8422 9.02075 16.6206 8.58068 16.2882C8.47066 16.1774 8.14062 16.1774 8.0306 16.2882C7.59053 16.5098 7.15047 16.8422 6.82042 17.1746C6.16032 17.6178 5.3902 17.6178 4.84012 17.1746C4.18002 16.7314 3.95999 16.0666 4.18002 15.291C4.29004 14.8477 4.40006 14.4045 4.62009 13.9613C4.73011 13.4073 4.62009 13.2965 4.40006 13.0749C3.95999 12.8533 3.62994 12.5209 3.18988 12.1885C2.52978 11.7452 2.30975 11.0804 2.52978 10.3048C2.74981 9.63998 3.29989 9.19677 4.07001 9.08596C4.62009 9.08596 5.17017 9.08596 5.72025 9.08596C5.94029 9.08596 6.16032 8.97516 6.16032 8.75355C6.38035 8.31034 6.49037 7.75632 6.7104 7.31311C6.93043 6.53749 7.59053 6.20508 8.25063 6.20508ZM8.36065 7.97793H8.25063C8.0306 8.64275 7.81057 9.30757 7.59053 9.97239C7.26048 10.748 7.15047 10.8588 6.38035 10.8588C5.72025 10.8588 5.06016 10.8588 4.40006 10.8588C4.95014 11.4128 5.50022 11.7452 5.94029 12.1885C6.60039 12.6317 6.60039 12.8533 6.38035 13.6289C6.16032 14.2937 5.94029 14.9585 5.72025 15.6234C6.27034 15.2909 6.82042 14.9585 7.26048 14.6261C8.14062 14.0721 8.25063 14.0721 9.13076 14.6261C9.68085 14.9585 10.1209 15.4018 10.671 15.7342C10.671 15.6234 10.671 15.6234 10.671 15.6234C10.451 15.0693 10.3409 14.4045 10.1209 13.8505C9.79086 12.8533 9.90088 12.7425 10.671 12.1885C11.2211 11.856 11.6611 11.4128 12.2112 11.0804C12.2112 11.0804 12.2112 10.9696 12.1012 10.9696C11.3311 10.9696 10.671 10.9696 9.90088 10.9696C9.3508 10.9696 9.13076 10.748 8.91073 10.194C8.80071 9.41837 8.58068 8.75355 8.36065 7.97793Z" fill="#EF3900"/>
<path d="M37.955 6.20508C38.6151 6.20508 39.2752 6.53749 39.4953 7.31311C39.6053 7.75632 39.8253 8.19954 39.9353 8.64275C40.0454 9.08596 40.2654 9.19677 40.5954 9.08596C41.0355 9.08596 41.4756 9.08596 41.9156 9.08596C42.7958 9.08596 43.3458 9.52918 43.5659 10.3048C43.7859 10.9696 43.5659 11.7452 42.7958 12.1885C42.4657 12.4101 42.1357 12.7425 41.6956 12.9641C41.4756 13.1857 41.3655 13.2965 41.4756 13.6289C41.6956 14.0721 41.8056 14.6261 41.9156 15.1801C42.1357 15.845 41.8056 16.6206 41.2555 16.953C40.7054 17.3962 40.0454 17.3962 39.3853 16.953C38.9452 16.6206 38.5051 16.2882 38.0651 15.9558C37.845 15.7342 37.625 15.7342 37.405 15.9558C37.0749 16.2882 36.6348 16.5098 36.1948 16.8422C35.5347 17.2854 34.7646 17.2854 34.2145 16.8422C33.6644 16.399 33.4444 15.7342 33.6644 14.8477C33.7744 14.4045 33.9944 13.9613 34.1045 13.5181C34.2145 13.1857 34.1045 13.0749 33.8844 12.8533C33.4444 12.6317 33.1143 12.2993 32.6743 11.9669C32.0142 11.5236 31.7941 10.8588 32.0142 10.194C32.2342 9.41837 32.7843 8.97516 33.5544 8.97516C34.1045 8.97516 34.5445 8.97516 35.0946 8.97516C35.4247 8.97516 35.5347 8.86436 35.6447 8.53195C35.7547 7.97793 35.9747 7.53472 36.1948 6.9807C36.6348 6.53749 37.1849 6.20508 37.955 6.20508ZM33.9944 10.8588V10.9696C34.5445 11.4128 35.0946 11.7452 35.6447 12.1885C36.3048 12.6317 36.3048 12.8533 36.0848 13.6289C35.8647 14.2937 35.6447 14.9585 35.4247 15.7342C36.1948 15.1801 36.7449 14.8477 37.2949 14.4045C37.735 14.0721 38.1751 14.0721 38.6151 14.4045C39.1652 14.8477 39.8253 15.291 40.4854 15.7342C40.2654 14.9585 40.0454 14.1829 39.8253 13.5181C39.6053 12.8533 39.6053 12.6317 40.1554 12.1885C40.7054 11.7452 41.2555 11.4128 41.8056 10.9696V10.8588C41.1455 10.8588 40.3754 10.8588 39.7153 10.8588C39.1652 10.8588 38.8352 10.6372 38.6151 10.0832C38.3951 9.41838 38.1751 8.75356 37.955 8.08874C37.625 8.75356 37.405 9.41838 37.1849 10.0832C36.9649 10.6372 36.6348 10.8588 36.0848 10.8588C35.4247 10.748 34.7646 10.8588 33.9944 10.8588Z" fill="#EF3900"/>
</g>
<defs>
<clipPath id="clip0_271_2512">
<rect width="46.2069" height="40" fill="white"/>
</clipPath>
</defs>
</svg>
