<svg width="40" height="40" viewBox="0 0 40 40" fill="none" xmlns="http://www.w3.org/2000/svg">
<g clip-path="url(#clip0_271_2477)">
<path d="M19.0688 40C18.2845 39.7553 17.6178 39.3638 17.2747 38.5711C17.1864 38.3851 17.1374 38.1796 17.0492 37.9349C16.3629 38.0915 15.6668 38.0523 15.0394 37.6707C14.4021 37.289 14.0296 36.7115 13.8629 35.9579C13.1472 36.1047 12.4511 36.0851 11.8237 35.6936C11.1962 35.3022 10.8237 34.7247 10.6668 33.9809C9.49034 34.2256 8.49034 33.9711 7.83348 32.9239C7.19622 31.906 7.38249 30.9077 8.05896 29.929C7.29426 29.4984 6.54916 29.0873 5.77465 28.6469C5.50995 29.3027 5.26485 29.9486 5.00995 30.5848C4.74524 31.2601 4.54916 31.3482 3.88249 31.1133C2.77465 30.7218 1.66681 30.3499 0.56877 29.929C0.362887 29.8507 0.127593 29.6648 0.0491619 29.469C-0.117505 29.0188 0.323672 28.6371 0.813868 28.7937C1.75504 29.1069 2.68642 29.4495 3.61779 29.7724C3.73544 29.8116 3.86289 29.8507 4.00995 29.8997C5.74524 25.4661 7.48053 21.0521 9.22563 16.599C8.57857 16.3347 7.95112 16.09 7.33348 15.8356C5.09818 14.9449 2.86289 14.0543 0.627593 13.1539C0.500142 13.105 0.362887 13.0462 0.24524 12.9581C0.000142289 12.7722 -0.0684852 12.4884 0.0981815 12.2731C0.215829 12.1067 0.480534 12.0088 0.706025 11.9599C0.833476 11.9305 1.00014 12.0382 1.1472 12.0969C4.04916 13.2518 6.95112 14.4164 9.85308 15.5713C10.6374 15.8845 10.706 16.0313 10.4119 16.8339C10.3825 16.9024 10.3629 16.9807 10.3335 17.0883C11.3139 17.2645 12.2747 17.4407 13.2354 17.5972C13.3433 17.6168 13.4805 17.5385 13.5982 17.4798C15.1178 16.7947 16.6276 16.0998 18.157 15.4245C18.4021 15.3168 18.7158 15.2679 18.9805 15.2875C20.9413 15.4343 22.9021 15.6105 24.8629 15.7671C25.0492 15.7768 25.2354 15.6888 25.4217 15.6496C25.4511 15.5909 25.4805 15.5322 25.5001 15.4637C25.2354 15.2386 24.9609 15.033 24.706 14.7883C24.1668 14.2794 24.1766 14.0347 24.7158 13.5356C29.0982 9.425 33.4903 5.32419 37.8727 1.22338C38.2158 0.900407 38.559 0.577432 38.9021 0.264244C39.2747 -0.0783055 39.5982 -0.0978798 39.8629 0.185947C40.108 0.459987 40.0492 0.802536 39.6962 1.1353C36.7845 3.85612 33.8727 6.58673 30.9609 9.30755C29.2354 10.9224 27.5198 12.5275 25.755 14.1815C29.3923 17.7636 33.0197 21.3359 36.657 24.9278C37.3531 24.2819 38.0394 23.6359 38.7256 22.9997C38.8237 22.9117 38.9119 22.8138 39.0099 22.7355C39.3041 22.5006 39.6374 22.5104 39.8531 22.7355C40.0688 22.9704 40.0688 23.3129 39.8139 23.5772C39.608 23.7925 39.3825 23.9882 39.1668 24.1938C38.5197 24.8006 37.8727 25.4074 37.2256 26.0044C36.7747 26.4252 36.5197 26.435 36.0982 25.9946C35.7452 25.6325 35.4119 25.2508 35.1276 24.9278C34.5786 25.4172 34.108 25.8282 33.608 26.2784C34.9119 27.0418 35.5688 28.0891 35.0296 29.5278C34.559 30.7903 33.5296 31.2111 32.1962 31.0643C32.1668 31.8571 31.9217 32.552 31.3041 33.0707C30.6864 33.5894 29.9707 33.7558 29.1864 33.5992C28.706 35.6936 28.3237 36.0166 26.1472 36.183C26.108 38.346 23.8433 39.4519 22.0099 38.1796C21.5786 39.0702 20.9511 39.7357 19.9609 39.9902C19.6374 40 19.3531 40 19.0688 40ZM34.1178 24.0959C31.4903 21.5121 28.8923 18.9479 26.2845 16.3836C26.1668 16.4815 26.059 16.5598 25.9707 16.6479C25.6864 16.9415 25.3629 17.0198 24.9511 16.9807C22.9805 16.7947 21.0001 16.6381 19.0296 16.4717C18.8923 16.4619 18.7354 16.4522 18.608 16.5109C16.7943 17.333 14.9805 18.1551 13.1668 18.987C12.7452 19.1828 12.5197 19.5547 12.4903 20.0147C12.4217 21.0325 13.3825 21.6785 14.3629 21.2576C15.4707 20.7781 16.5688 20.2593 17.6766 19.7602C18.0394 19.5938 18.3727 19.7113 18.5099 20.0147C18.6472 20.3083 18.5394 20.641 18.206 20.7976C16.9707 21.3653 15.755 21.9623 14.4903 22.4419C13.1766 22.941 11.7354 22.0993 11.3923 20.7291C11.1962 19.9657 11.3727 19.2708 11.8335 18.576C11.157 18.4585 10.5197 18.3411 9.86289 18.2334C8.6374 21.3555 7.43151 24.4482 6.20602 27.5605C7.03936 28.0205 7.84328 28.4708 8.67661 28.9405C8.8923 28.598 9.08838 28.2848 9.28446 27.9618C9.94132 26.9146 10.559 25.838 11.2648 24.8299C11.8531 23.998 12.7354 23.724 13.7256 23.9295C14.706 24.135 15.3335 24.7712 15.559 25.7401C15.6472 26.1023 15.6276 26.484 15.657 26.8754C16.4315 26.8852 17.1178 27.1495 17.6276 27.7759C18.1374 28.3925 18.2452 29.1265 18.1374 29.9095C18.9805 29.9095 19.657 30.1933 20.1668 30.8197C20.6766 31.4362 20.7845 32.1703 20.6766 32.9533C21.7943 32.963 22.608 33.4328 23.0492 34.4213C23.4903 35.4 23.2158 36.32 22.6374 37.1617C23.3825 37.7489 24.1864 37.6902 24.657 37.0345C25.1178 36.3983 24.9119 35.5762 24.157 35.1064C23.9119 34.9498 23.6374 34.8324 23.4413 34.6366C23.3041 34.4996 23.206 34.2354 23.2452 34.0592C23.2845 33.8928 23.5001 33.6971 23.6864 33.6384C23.8335 33.5894 24.0688 33.6873 24.2256 33.7852C24.8335 34.1375 25.4217 34.529 26.0394 34.8715C26.5001 35.126 26.9707 35.0868 27.4021 34.7834C27.8237 34.4898 27.9805 34.0592 27.9119 33.5503C27.8531 33.1001 27.5884 32.7967 27.206 32.5716C26.5296 32.1605 25.8433 31.7494 25.1766 31.3188C24.8531 31.1133 24.7845 30.7903 24.9511 30.5065C25.1178 30.2324 25.4413 30.1541 25.7747 30.3107C25.8825 30.3597 25.9805 30.4282 26.0786 30.4869C27.0197 31.0643 27.9707 31.6418 28.9119 32.229C29.3237 32.4835 29.755 32.5618 30.2158 32.3562C30.6668 32.1507 30.9315 31.7886 30.9707 31.2992C31.0099 30.7511 30.7747 30.3401 30.3139 30.0563C29.1864 29.3614 28.0492 28.6665 26.9217 27.9716C26.5198 27.7269 26.4119 27.4137 26.608 27.1005C26.7943 26.7971 27.1472 26.7482 27.5296 26.9831C28.0884 27.3159 28.6374 27.6584 29.1962 28.001C30.1374 28.5784 31.0786 29.1754 32.0296 29.7333C32.8629 30.2226 33.8237 29.792 34.0001 28.872C34.108 28.3337 33.8531 27.8346 33.2747 27.4822C31.9707 26.6797 30.657 25.8772 29.3433 25.0648C29.2354 24.9963 29.1178 24.9376 29.0197 24.8495C28.7747 24.6342 28.706 24.3602 28.9021 24.0861C29.0688 23.8316 29.3237 23.7436 29.6178 23.8806C29.7452 23.9393 29.8727 24.0176 29.9903 24.0861C30.8531 24.6146 31.7158 25.1431 32.5884 25.6814C33.0982 25.1627 33.5982 24.644 34.1178 24.0959ZM9.8923 32.9141C10.4413 32.9141 10.8139 32.6303 11.0884 32.1703C12.059 30.5946 13.0296 29.0286 14.0001 27.4529C14.1276 27.2571 14.255 27.0614 14.3531 26.8461C14.706 26.0142 14.1766 25.104 13.2943 25.0355C12.7158 24.9963 12.3139 25.2801 12.0099 25.7597C10.9805 27.4431 9.93151 29.1265 8.8923 30.8099C8.82367 30.9175 8.75504 31.035 8.70602 31.1524C8.36289 32.0039 8.98053 32.9141 9.8923 32.9141ZM17.0394 29.4005C17.0001 28.8035 16.6472 28.2946 16.1178 28.1282C15.5296 27.9422 14.9609 28.1478 14.608 28.7154C13.7452 30.0954 12.8923 31.4754 12.0394 32.8652C11.6276 33.5405 11.8041 34.3235 12.4315 34.7052C13.059 35.0868 13.8139 34.8911 14.2452 34.1962C15.0884 32.8554 15.9217 31.5048 16.7452 30.1443C16.8825 29.9192 16.9413 29.655 17.0394 29.4005ZM19.5884 32.4247C19.5394 31.8179 19.1962 31.3384 18.6472 31.1622C18.0786 30.986 17.5099 31.1818 17.157 31.7299C16.5099 32.7477 15.8727 33.7754 15.2452 34.8128C14.8237 35.5077 14.9903 36.3004 15.6374 36.6821C16.2648 37.0541 17.0099 36.8485 17.4511 36.1536C18.0786 35.1651 18.6962 34.1669 19.2943 33.1686C19.4315 32.9435 19.4903 32.6694 19.5884 32.4247ZM20.6374 34.1375C20.4021 34.1473 20.0394 34.2745 19.8237 34.6073C19.3041 35.4 18.7943 36.2026 18.3335 37.0247C18.0198 37.5826 18.2747 38.2872 18.8041 38.6298C19.3629 38.9821 20.108 38.894 20.4805 38.346C21.0099 37.5728 21.5197 36.7898 21.9511 35.9579C22.3923 35.1162 21.7354 34.1375 20.6374 34.1375Z" fill="#EF3900"/>
<path d="M27.706 22.892C27.7158 23.4401 27.3628 23.7142 26.9609 23.5967C26.8236 23.5576 26.706 23.4793 26.5785 23.401C25.1668 22.5397 23.7452 21.6882 22.353 20.7976C21.7452 20.4061 21.1079 20.1614 20.402 20.0831C20.1962 20.0636 19.9903 20.0146 19.7942 19.9559C19.5099 19.858 19.3726 19.6329 19.4119 19.3491C19.4511 19.0457 19.6668 18.8108 19.9707 18.8597C20.7746 18.987 21.6079 18.9772 22.3432 19.4274C23.9805 20.4453 25.6373 21.4435 27.2648 22.4614C27.4707 22.5789 27.6177 22.7942 27.706 22.892Z" fill="#EF3900"/>
</g>
<defs>
<clipPath id="clip0_271_2477">
<rect width="40" height="40" fill="white"/>
</clipPath>
</defs>
</svg>
