<svg width="32" height="24" viewBox="0 0 32 24" fill="none" xmlns="http://www.w3.org/2000/svg">
<path d="M27.2002 12.5332H19.7336C19.4392 12.5332 19.2002 12.2944 19.2002 12V5.59985C19.2002 5.30566 19.4392 5.06665 19.7336 5.06665H24.6892C26.3677 5.06665 27.7336 6.43237 27.7336 8.11084V12C27.7336 12.2944 27.4946 12.5332 27.2002 12.5332ZM20.2668 11.4666H26.667V8.11084C26.667 7.02075 25.7795 6.1333 24.6892 6.1333H20.2668V11.4666Z" fill="#333333"/>
<path d="M24.0005 14.6665H22.4004C22.1062 14.6665 21.8672 14.4277 21.8672 14.1333C21.8672 13.8389 22.1062 13.5999 22.4004 13.5999H24.0005C24.2949 13.5999 24.5339 13.8389 24.5339 14.1333C24.5339 14.4277 24.2949 14.6665 24.0005 14.6665Z" fill="#333333"/>
<path d="M25.6006 23.2C23.5417 23.2 21.8672 21.5254 21.8672 19.4666C21.8672 17.408 23.5417 15.7334 25.6006 15.7334C27.6592 15.7334 29.3337 17.408 29.3337 19.4666C29.3337 21.5254 27.6592 23.2 25.6006 23.2ZM25.6006 16.8C24.1301 16.8 22.9338 17.9963 22.9338 19.4666C22.9338 20.937 24.1301 22.1333 25.6006 22.1333C27.0708 22.1333 28.2671 20.937 28.2671 19.4666C28.2671 17.9963 27.0708 16.8 25.6006 16.8Z" fill="#333333"/>
<path d="M26.1445 21.0667H25.0549C24.4736 21.0667 24 20.593 24 20.0112V18.9216C24 18.3403 24.4736 17.8667 25.0554 17.8667H26.145C26.7263 17.8667 27.2 18.3403 27.2 18.9221V20.0117C27.2 20.593 26.7263 21.0667 26.1445 21.0667ZM26.1333 18.9221L25.0554 18.9333L25.0667 20.0112L26.1333 20V18.9221Z" fill="#333333"/>
<path d="M6.40015 23.2C4.34155 23.2 2.66699 21.5254 2.66699 19.4666C2.66699 17.408 4.34155 15.7334 6.40015 15.7334C8.45898 15.7334 10.1335 17.408 10.1335 19.4666C10.1335 21.5254 8.45898 23.2 6.40015 23.2ZM6.40015 16.8C4.92993 16.8 3.73364 17.9963 3.73364 19.4666C3.73364 20.937 4.92993 22.1333 6.40015 22.1333C7.87061 22.1333 9.06689 20.937 9.06689 19.4666C9.06689 17.9963 7.87061 16.8 6.40015 16.8Z" fill="#333333"/>
<path d="M6.94434 21.0667H5.85474C5.27344 21.0667 4.7998 20.593 4.7998 20.0112V18.9216C4.7998 18.3403 5.27344 17.8667 5.85522 17.8667H6.94482C7.52612 17.8667 7.99976 18.3403 7.99976 18.9221V20.0117C7.99976 20.593 7.52612 21.0667 6.94434 21.0667ZM6.93311 18.9221L5.85522 18.9333L5.86646 20.0112L6.93311 20V18.9221Z" fill="#333333"/>
<path d="M19.7334 16.8H0.533447C0.239014 16.8 0 16.561 0 16.2666V2.93286C0 1.75684 0.956787 0.800049 2.13281 0.800049H18.1338C19.3098 0.800049 20.2666 1.75684 20.2666 2.93286V16.2666C20.2666 16.561 20.0278 16.8 19.7334 16.8ZM1.06665 15.7334H19.2V2.93286C19.2 2.34497 18.7217 1.8667 18.1338 1.8667H2.13281C1.54517 1.8667 1.06665 2.34497 1.06665 2.93286V15.7334Z" fill="#333333"/>
<path d="M27.1997 10.3999H21.8665C21.572 10.3999 21.333 10.1611 21.333 9.8667V7.7334C21.333 7.43896 21.572 7.19995 21.8665 7.19995H27.1619C27.4258 7.19995 27.6499 7.39307 27.6895 7.65381C27.7129 7.81055 27.7332 7.95776 27.7332 8.11084V9.8667C27.7332 10.1611 27.4941 10.3999 27.1997 10.3999ZM22.3997 9.33325H26.6665V8.2666H22.3997V9.33325Z" fill="#333333"/>
<path d="M31.4668 18.9333H28.614C28.3879 18.9333 28.187 18.7908 28.1111 18.5781C27.7346 17.5146 26.7256 16.8 25.6003 16.8C24.4749 16.8 23.4658 17.5146 23.0894 18.5781C23.0137 18.7908 22.812 18.9333 22.5864 18.9333H19.7336C19.4392 18.9333 19.2002 18.6943 19.2002 18.3999V12C19.2002 11.7056 19.4392 11.4666 19.7336 11.4666H28.8003C30.5649 11.4666 32.0002 12.9019 32.0002 14.6665V18.3999C32.0002 18.6943 31.7612 18.9333 31.4668 18.9333ZM28.9705 17.8667H30.9336V14.6665C30.9336 13.49 29.9768 12.5332 28.8003 12.5332H20.2668V17.8667H22.2302C22.843 16.5764 24.1528 15.7334 25.6003 15.7334C27.0476 15.7334 28.3577 16.5764 28.9705 17.8667Z" fill="#333333"/>
<path d="M3.38623 18.9333H0.533447C0.239014 18.9333 0 18.6943 0 18.3999V16.2666C0 15.9722 0.239014 15.7334 0.533447 15.7334H6.3999C6.69434 15.7334 6.93335 15.9722 6.93335 16.2666C6.93335 16.561 6.69434 16.8 6.3999 16.8C5.27466 16.8 4.26562 17.5146 3.88916 18.5781C3.81323 18.7908 3.61182 18.9333 3.38623 18.9333ZM1.06665 17.8667H3.02979C3.22144 17.4634 3.48096 17.104 3.7915 16.8H1.06665V17.8667Z" fill="#333333"/>
<path d="M19.7339 18.9333H9.41431C9.18823 18.9333 8.98706 18.7908 8.91138 18.5781C8.53491 17.5146 7.52588 16.8 6.40039 16.8C6.1062 16.8 5.86719 16.561 5.86719 16.2666C5.86719 15.9722 6.1062 15.7334 6.40039 15.7334H19.7339C20.0283 15.7334 20.2671 15.9722 20.2671 16.2666V18.3999C20.2671 18.6943 20.0283 18.9333 19.7339 18.9333ZM9.77051 17.8667H19.2004V16.8H9.00903C9.31934 17.104 9.57861 17.4634 9.77051 17.8667Z" fill="#333333"/>
<path d="M31.4663 16.8H29.333C29.0386 16.8 28.7998 16.561 28.7998 16.2666V14.1333C28.7998 13.8389 29.0386 13.5999 29.333 13.5999H31.4126C31.6665 13.5999 31.885 13.7786 31.9353 14.0276C31.9778 14.2378 31.9998 14.4534 31.9998 14.6665V16.2666C31.9998 16.561 31.7607 16.8 31.4663 16.8ZM29.8665 15.7334H30.9331V14.6665H29.8665V15.7334Z" fill="#333333"/>
<path d="M10.1328 9.8667C9.83838 9.8667 9.59961 9.62769 9.59961 9.33325V7.19995C9.59961 6.90552 9.83838 6.6665 10.1328 6.6665C10.4272 6.6665 10.6663 6.90552 10.6663 7.19995V9.33325C10.6663 9.62769 10.4272 9.8667 10.1328 9.8667Z" fill="#333333"/>
<path d="M10.1328 12.5332C9.83838 12.5332 9.59961 12.2944 9.59961 12V11.4666C9.59961 11.1721 9.83838 10.9333 10.1328 10.9333C10.4272 10.9333 10.6663 11.1721 10.6663 11.4666V12C10.6663 12.2944 10.4272 12.5332 10.1328 12.5332Z" fill="#333333"/>
<path d="M15.4667 14.6664H4.8002C4.61514 14.6664 4.444 14.5705 4.34634 14.4138C4.24918 14.2565 4.24014 14.0602 4.32291 13.8947L9.65616 3.22821C9.83707 2.86664 10.4296 2.86664 10.6103 3.22821L15.9435 13.8947C16.0263 14.0602 16.0172 14.2565 15.9201 14.4138C15.8232 14.5705 15.6518 14.6664 15.4667 14.6664ZM5.66299 13.5998H14.6039L10.1335 4.65912L5.66299 13.5998Z" fill="#333333"/>
</svg>
