<svg width="32" height="30" viewBox="0 0 32 30" fill="none" xmlns="http://www.w3.org/2000/svg">
<g clip-path="url(#clip0_346_766)">
<path d="M31 29.112C31 29.408 31 29.704 31 29.9826C21.0058 29.9826 11.0116 29.9826 1 29.9826C1 19.9884 1 9.99419 1 0C1.296 0 1.59199 0 1.87057 0C1.26117 0.226349 1.03482 0.679048 1.05223 1.32327C1.06965 2.94254 1.05223 4.57922 1.05223 6.19849C1.05223 6.80789 1.03482 7.39988 1.05223 8.00928C1.06965 8.72316 1.71387 9.19327 2.39292 9.00174C2.86303 8.86245 3.14161 8.46198 3.14161 7.86999C3.14161 6.54672 3.14161 5.24086 3.14161 3.91759C3.14161 3.81312 3.15902 3.72606 3.15902 3.62159C3.17644 3.62159 3.21126 3.60418 3.22867 3.60418C3.29832 3.69124 3.36796 3.7957 3.45502 3.86535C5.5444 5.95473 7.61637 8.0267 9.68833 10.0987C9.7928 10.2031 9.87986 10.2902 9.98433 10.3772C10.5763 10.8125 11.3947 10.5165 11.5862 9.80267C11.7081 9.34997 11.5165 9.00174 11.2031 8.67092C9.11375 6.58154 7.00696 4.47475 4.91759 2.36796C4.84794 2.29832 4.76088 2.21126 4.65641 2.08938C4.83053 2.08938 4.935 2.08938 5.05688 2.08938C6.32792 2.08938 7.58154 2.08938 8.85258 2.08938C8.99187 2.08938 9.13117 2.08938 9.25305 2.05456C9.84504 1.95009 10.2107 1.39292 10.0888 0.800929C9.98433 0.383053 9.67092 0.174115 9.30528 0C13.78 0 18.2722 0 22.747 0C22.6599 0.034823 22.5728 0.0870574 22.4858 0.12188C21.859 0.452699 21.7545 1.30586 22.2594 1.79338C22.5032 2.03714 22.8166 2.08938 23.1474 2.08938C24.4359 2.08938 25.7417 2.08938 27.0302 2.08938C27.1346 2.08938 27.2391 2.10679 27.3784 2.10679C27.2565 2.22867 27.1869 2.31573 27.0998 2.38537C25.0279 4.45734 22.9385 6.54672 20.8665 8.61869C20.3093 9.17585 20.2397 9.80267 20.7098 10.2554C21.1799 10.7081 21.7893 10.6558 22.3465 10.0987C24.4359 8.00928 26.5252 5.91991 28.6146 3.84794C28.6843 3.77829 28.7713 3.69124 28.8932 3.58677C28.8932 3.77829 28.8932 3.88276 28.8932 3.98723C28.8932 5.25827 28.8932 6.5119 28.8932 7.78294C28.8932 7.92223 28.8932 8.07893 28.928 8.21822C29.0325 8.7928 29.5897 9.14103 30.1468 9.01915C30.5821 8.93209 30.8085 8.61869 30.9826 8.23563C30.9826 12.7104 30.9826 17.2026 30.9826 21.6773C30.9478 21.6077 30.9129 21.5206 30.8607 21.451C30.5299 20.8067 29.6593 20.6849 29.1718 21.2246C28.9454 21.4684 28.8932 21.7644 28.8932 22.0952C28.8932 23.3836 28.8932 24.6895 28.8932 25.9779C28.8932 26.0824 28.8758 26.1869 28.8758 26.2739C28.841 26.2913 28.8062 26.3088 28.7887 26.3262C28.7191 26.2391 28.6669 26.1172 28.5798 26.0476C26.4382 23.906 24.2966 21.7644 22.155 19.6227C22.0505 19.5183 21.946 19.4138 21.8241 19.3268C21.4759 19.083 21.0929 19.0656 20.7272 19.2745C20.3442 19.4835 20.1875 19.8143 20.2049 20.2496C20.2223 20.5804 20.4138 20.8241 20.6402 21.0505C22.7992 23.2095 24.9582 25.3685 27.1346 27.545C27.2217 27.632 27.2914 27.7017 27.4132 27.841C27.2391 27.841 27.1346 27.841 27.0302 27.841C25.7591 27.841 24.4707 27.841 23.1997 27.841C23.0429 27.841 22.8862 27.8584 22.7295 27.8758C22.1898 27.9977 21.859 28.5374 21.9634 29.0772C22.0679 29.6169 22.4858 29.9303 23.0952 29.9303C25.289 29.9303 27.4829 29.9129 29.6767 29.9303C30.321 29.9478 30.7737 29.7214 31 29.112ZM3.22867 26.3262C3.19385 26.3088 3.17644 26.3088 3.14161 26.2913C3.14161 26.1869 3.14161 26.0824 3.14161 25.9779C3.14161 24.6721 3.14161 23.3662 3.14161 22.0604C3.14161 21.4858 2.86303 21.0679 2.39292 20.9286C1.69646 20.7197 1.05223 21.2246 1.05223 22.0081C1.05223 24.2368 1.05223 26.4655 1.05223 28.6941C1.05223 29.5299 1.4527 29.9303 2.28845 29.9303C4.4823 29.9303 6.67615 29.9303 8.86999 29.9303C8.97446 29.9303 9.06152 29.9303 9.16599 29.9303C9.65351 29.8781 10.0192 29.5299 10.0888 29.025C10.1584 28.5897 9.89727 28.1021 9.46198 27.9454C9.27046 27.8758 9.06152 27.8584 8.86999 27.8584C7.58154 27.8584 6.29309 27.8584 5.00464 27.8584C4.90017 27.8584 4.79571 27.841 4.65641 27.841C4.77829 27.7191 4.84794 27.632 4.935 27.5624C7.07661 25.4208 9.21822 23.2792 11.3598 21.1375C11.4643 21.0331 11.5514 20.946 11.6384 20.8416C11.8822 20.4933 11.917 20.1277 11.7255 19.7446C11.534 19.3616 11.2031 19.1875 10.7678 19.1875C10.4196 19.1875 10.1759 19.379 9.93209 19.6053C7.86013 21.6773 5.80557 23.7319 3.7336 25.8038C3.55949 25.9605 3.40279 26.1346 3.22867 26.3262Z" fill="white"/>
<path d="M31.0004 29.112C30.7741 29.7214 30.3214 29.9478 29.6771 29.9304C27.4833 29.913 25.2894 29.9304 23.0956 29.9304C22.4862 29.9304 22.0683 29.617 21.9638 29.0772C21.8594 28.5374 22.1902 27.9977 22.73 27.8758C22.8867 27.841 23.0434 27.841 23.2001 27.841C24.4711 27.841 25.7596 27.841 27.0306 27.841C27.1351 27.841 27.2395 27.841 27.4136 27.841C27.2918 27.7191 27.2221 27.632 27.1351 27.545C24.976 25.386 22.817 23.2095 20.6406 21.0505C20.4142 20.8242 20.2227 20.5804 20.2053 20.2496C20.1879 19.8143 20.362 19.4835 20.7276 19.2745C21.0933 19.0656 21.4763 19.083 21.8246 19.3268C21.9464 19.4138 22.0509 19.5183 22.1554 19.6228C24.297 21.7644 26.4386 23.906 28.5802 26.0476C28.6673 26.1347 28.7195 26.2391 28.7892 26.3262C28.824 26.3088 28.8588 26.2914 28.8762 26.274C28.8762 26.1695 28.8936 26.065 28.8936 25.978C28.8936 24.6895 28.8936 23.3836 28.8936 22.0952C28.8936 21.7818 28.9459 21.4684 29.1722 21.2246C29.6597 20.6849 30.5303 20.8067 30.8611 21.451C30.8959 21.5206 30.9308 21.6077 30.983 21.6773C31.0004 24.1672 31.0004 26.6396 31.0004 29.112Z" fill="#333333"/>
<path d="M9.3049 0C9.67054 0.174115 9.98394 0.383053 10.071 0.800929C10.2103 1.39292 9.82724 1.95009 9.23525 2.05456C9.11337 2.08938 8.97408 2.08938 8.83479 2.08938C7.56375 2.08938 6.31012 2.08938 5.03908 2.08938C4.93461 2.08938 4.83014 2.08938 4.63862 2.08938C4.7605 2.21126 4.83014 2.29832 4.89979 2.36796C7.00658 4.47475 9.09596 6.56413 11.2027 8.67092C11.5162 8.98433 11.7077 9.33256 11.5858 9.80267C11.3943 10.5165 10.5759 10.8125 9.98394 10.3772C9.87948 10.2902 9.77501 10.2031 9.68795 10.0987C7.61598 8.0267 5.54401 5.95473 3.47205 3.88276C3.38499 3.79571 3.31534 3.70865 3.2457 3.62159C3.22829 3.62159 3.19346 3.639 3.17605 3.639C3.17605 3.74347 3.15864 3.83053 3.15864 3.935C3.15864 5.25827 3.15864 6.56413 3.15864 7.88741C3.15864 8.46198 2.88006 8.87986 2.40995 9.01915C1.7309 9.21068 1.08667 8.74057 1.06926 8.0267C1.05185 7.41729 1.06926 6.8253 1.06926 6.2159C1.06926 4.59663 1.08667 2.95995 1.06926 1.34068C1.03444 0.679048 1.26079 0.226349 1.87019 0C4.36003 0 6.83247 0 9.3049 0Z" fill="#333333"/>
<path d="M31.0003 8.23564C30.8262 8.60128 30.6173 8.9321 30.1646 9.01915C29.6074 9.12362 29.0503 8.77539 28.9458 8.21822C28.911 8.07893 28.911 7.92223 28.911 7.78294C28.911 6.5119 28.911 5.25827 28.911 3.98723C28.911 3.88276 28.911 3.77829 28.911 3.58677C28.7891 3.70865 28.702 3.77829 28.6324 3.84794C26.543 5.93732 24.4536 8.0267 22.3642 10.0987C21.8071 10.6558 21.1803 10.7255 20.7276 10.2554C20.2575 9.80267 20.3271 9.17586 20.8843 8.61869C22.9562 6.54672 25.0456 4.45734 27.1176 2.38537C27.2046 2.29832 27.2743 2.22867 27.3962 2.10679C27.2395 2.10679 27.1524 2.08938 27.0479 2.08938C25.7595 2.08938 24.4536 2.08938 23.1652 2.08938C22.8344 2.08938 22.5209 2.03714 22.2772 1.79338C21.7722 1.30586 21.8767 0.47011 22.5035 0.12188C22.5906 0.069646 22.6776 0.034823 22.7647 0C25.2371 0 27.7096 0 30.182 0C30.5825 0.139292 30.861 0.417876 31.0003 0.81834C31.0003 3.29077 31.0003 5.7632 31.0003 8.23564Z" fill="#333333"/>
<path d="M31 0.81834C30.8607 0.417876 30.5821 0.139292 30.1816 0C30.4602 0 30.7214 0 31 0C31 0.278584 31 0.539756 31 0.81834Z" fill="white"/>
<path d="M3.22819 26.3262C3.40231 26.1521 3.55901 25.9605 3.73313 25.7864C5.80509 23.7144 7.85965 21.6599 9.93162 19.5879C10.158 19.3616 10.4191 19.17 10.7674 19.17C11.2027 19.17 11.5335 19.3442 11.725 19.7272C11.9165 20.1103 11.8817 20.4759 11.6379 20.8241C11.5509 20.9286 11.4638 21.0331 11.3594 21.1201C9.21775 23.2617 7.07613 25.4034 4.93452 27.545C4.84746 27.632 4.77782 27.7017 4.65594 27.8236C4.81264 27.8236 4.8997 27.841 5.00417 27.841C6.29262 27.841 7.58107 27.841 8.86952 27.841C9.07846 27.841 9.28739 27.8584 9.46151 27.928C9.8968 28.0847 10.158 28.5548 10.0883 29.0075C10.0187 29.5125 9.65304 29.8607 9.16551 29.9129C9.06104 29.9303 8.97399 29.9129 8.86952 29.9129C6.67567 29.9129 4.48182 29.9129 2.28797 29.9129C1.45222 29.9129 1.05176 29.5125 1.05176 28.6767C1.05176 26.448 1.05176 24.2194 1.05176 21.9907C1.05176 21.2072 1.67857 20.7023 2.39244 20.9112C2.86255 21.0505 3.14114 21.4509 3.14114 22.0429C3.14114 23.3488 3.14114 24.6547 3.14114 25.9605C3.14114 26.065 3.14114 26.1695 3.14114 26.2739C3.17596 26.2913 3.21078 26.3088 3.22819 26.3262Z" fill="#333333"/>
</g>
<defs>
<clipPath id="clip0_346_766">
<rect width="30" height="30" fill="white" transform="translate(1)"/>
</clipPath>
</defs>
</svg>
