<svg width="40" height="40" viewBox="0 0 40 40" fill="none" xmlns="http://www.w3.org/2000/svg">
<g clip-path="url(#clip0_271_2524)">
<path d="M34.4124 31.4093C33.3934 32.4272 32.4192 33.4004 31.4113 34.4071C31.4897 34.4854 31.5905 34.5972 31.6913 34.6979C32.8671 35.8724 34.0429 37.0469 35.2187 38.2326C35.8122 38.8254 35.7114 39.2952 34.9164 39.5525C32.0272 40.4697 29.4068 39.9664 27.212 37.8858C25.0283 35.8165 24.39 33.2326 25.1403 30.3243C25.2187 30.0223 25.1739 29.8433 24.9611 29.6308C23.3598 28.0424 21.7697 26.4541 20.1795 24.8657C19.81 25.2572 19.4628 25.6263 19.0821 26.029C19.0709 25.9954 19.0933 26.0626 19.1269 26.1185C19.642 26.8679 19.586 27.6397 18.9365 28.2885C15.5994 31.633 12.2624 34.9887 8.89172 38.3109C7.25678 39.9328 4.86036 39.9104 3.20303 38.2997C2.55353 37.6621 1.90404 37.0245 1.27694 36.3758C-0.31321 34.7426 -0.335606 32.3489 1.27694 30.7382C4.6252 27.3825 7.99586 24.0379 11.3665 20.7046C12.0272 20.0447 12.7551 20.0223 13.6286 20.6039C13.9981 20.2236 14.3564 19.8433 14.7484 19.4518C14.7036 19.3959 14.614 19.2952 14.5132 19.1945C13.1246 17.8075 11.7361 16.4317 10.3587 15.0447C10.1459 14.8209 9.96675 14.7874 9.66439 14.8769C4.59161 16.3198 -0.413994 12.2371 0.0227364 6.96859C0.0787274 6.30864 0.257899 5.64868 0.459466 5.0111C0.661034 4.31759 1.18735 4.21692 1.69127 4.72027C2.87828 5.90596 4.06529 7.09164 5.2523 8.27732C5.36428 8.38918 5.43147 8.5234 5.49866 8.61289C6.55129 7.56144 7.52554 6.5771 8.57817 5.52564C8.43259 5.39141 8.21982 5.23481 8.04065 5.04466C6.94323 3.95965 5.8458 2.86345 4.74838 1.76725C4.17727 1.19678 4.28925 0.738171 5.03953 0.458529C10.0563 -1.37592 15.4651 2.59499 15.1627 7.91938C15.1291 8.56815 14.9387 9.20573 14.8268 9.8545C14.8044 9.98873 14.8044 10.1789 14.8828 10.2572C16.6745 12.0693 18.4662 13.8702 20.3027 15.6934C20.4259 15.5816 20.5267 15.5033 20.6274 15.4026C23.1918 12.8411 25.7562 10.2796 28.2982 7.69566C28.5894 7.39365 28.8245 7.02452 29.0261 6.64421C29.3844 5.93951 29.5636 5.0894 30.0675 4.51893C30.5603 3.95965 31.3553 3.65763 32.0272 3.25495C32.9679 2.68448 33.9197 2.11401 34.8716 1.55473C35.3867 1.24153 35.5994 1.2639 36.0138 1.67777C36.6745 2.33772 37.3464 2.99768 38.0071 3.65763C38.3878 4.03795 38.4214 4.27285 38.1414 4.73146C37.212 6.2639 36.2937 7.79634 35.3531 9.31759C35.2299 9.51893 34.9947 9.65316 34.8156 9.80976C34.7932 9.83213 34.7708 9.83213 34.7372 9.84331C33.0239 10.3802 31.7025 11.4541 30.4707 12.7404C28.4662 14.8657 26.3497 16.8903 24.2781 18.9485C24.1773 19.0491 24.0541 19.1162 23.9197 19.2057C24.0653 19.3623 24.1437 19.463 24.2333 19.5413C26.0474 21.3534 27.8615 23.1543 29.6644 24.9775C29.866 25.1901 30.0451 25.2124 30.3139 25.1453C33.2478 24.3735 35.8458 25.0335 37.9175 27.237C40.0003 29.4518 40.4931 32.0916 39.5412 34.9775C39.3061 35.6822 38.8021 35.7829 38.2758 35.2572C36.9768 33.982 35.7002 32.6957 34.4124 31.4093ZM38.4662 33.6464C38.5222 33.6353 38.567 33.6241 38.623 33.6129C38.6454 33.0872 38.7349 32.5614 38.6902 32.0357C38.3766 27.718 34.2445 25.0447 30.1795 26.5212C29.7652 26.6666 29.474 26.5995 29.1605 26.2863C27.9847 25.0894 26.7865 23.9149 25.5994 22.7292C24.7596 21.8903 23.9421 21.029 23.147 20.2124C22.352 21.0066 21.6129 21.7449 20.8738 22.4831C21.4897 23.2102 21.4897 23.2102 21.0754 23.982C22.7999 25.6822 24.5356 27.4048 26.2937 29.1162C26.6297 29.4406 26.6969 29.765 26.5401 30.2013C25.1739 33.9373 27.4695 37.897 31.3889 38.5793C32.1504 38.7136 32.9007 38.7247 33.7069 38.5122C33.5838 38.378 33.483 38.2773 33.3934 38.1766C32.3296 37.114 31.2545 36.0402 30.1907 34.9775C29.698 34.4854 29.698 34.2057 30.2019 33.7136C31.3665 32.5502 32.5423 31.3869 33.7069 30.2124C34.2893 29.6308 34.5132 29.6308 35.0955 30.2124C36.2041 31.3646 37.3352 32.5055 38.4662 33.6464ZM15.6666 18.5905C16.3161 18.1207 16.3721 18.1319 17.156 18.7807C17.8951 18.0312 18.623 17.293 19.418 16.4876C19.3284 16.4205 19.1941 16.3422 19.0821 16.2303C17.3016 14.4518 15.5323 12.6621 13.7405 10.8948C13.3822 10.548 13.2926 10.2124 13.4718 9.74264C14.7596 6.20797 12.7215 2.39365 9.07089 1.48761C8.16383 1.2639 7.25678 1.21915 6.29373 1.45405C6.42811 1.59947 6.5289 1.71132 6.64088 1.812C7.71591 2.88582 8.80213 3.95965 9.87716 5.04466C10.2915 5.45853 10.2915 5.77173 9.87716 6.19678C8.65656 7.42721 7.42475 8.64645 6.19295 9.87687C5.75622 10.3131 5.46507 10.3019 5.01714 9.8545C3.9981 8.8366 2.96787 7.82989 1.96003 6.80081C1.80325 6.64421 1.68007 6.45405 1.54569 6.27508C1.22094 7.13638 1.23214 7.93056 1.38892 8.71356C2.1392 12.6174 6.04737 14.8433 9.78757 13.4787C10.2131 13.3221 10.5267 13.3892 10.8402 13.7136C11.5009 14.3959 12.184 15.0558 12.8559 15.727C13.7965 16.6778 14.7372 17.6397 15.6666 18.5905ZM6.08097 38.2102C6.87604 38.2102 7.53673 37.8634 8.09665 37.293C11.2321 34.1498 14.39 31.0066 17.5367 27.8634C18.3878 27.0133 18.3766 27.1587 17.5479 26.331C16.0026 24.7986 14.4572 23.2438 12.9119 21.7113C12.5647 21.3646 12.4751 21.3646 12.128 21.7113C11.904 21.935 11.6689 22.1699 11.4449 22.3936C8.3878 25.4473 5.34189 28.5122 2.28477 31.5659C1.07537 32.7851 1.07537 34.3623 2.28477 35.5816C2.88948 36.1856 3.49418 36.7896 4.09888 37.3825C4.6476 37.9194 5.29709 38.2102 6.08097 38.2102ZM19.8772 21.4764C23.595 17.7404 27.3128 14.0044 30.9746 10.3243C30.4259 9.7762 29.8548 9.19455 29.3061 8.64645C25.6218 12.3489 21.904 16.0737 18.1974 19.7874C18.7237 20.3355 19.3061 20.906 19.8772 21.4764ZM36.8312 4.42945C36.2937 3.89253 35.7786 3.38918 35.2411 2.85226C33.8861 3.65763 32.4975 4.48537 31.1202 5.3243C31.0306 5.38023 30.9634 5.4809 30.9186 5.58157C30.6722 6.12967 30.4147 6.66658 30.2019 7.22587C30.1571 7.33772 30.2019 7.55025 30.2803 7.63974C30.829 8.22139 31.3889 8.78067 31.9712 9.32877C32.072 9.41826 32.296 9.463 32.4304 9.41826C32.9903 9.21692 33.539 8.97083 34.0989 8.73593C34.1997 8.69119 34.3005 8.62408 34.3564 8.54578C35.1963 7.16994 36.025 5.78291 36.8312 4.42945ZM19.7092 23.3221C18.5782 22.1923 17.4359 21.0402 16.3161 19.9216C15.7674 20.4697 15.2187 21.029 14.7148 21.5212C15.8346 22.6509 16.988 23.803 18.0966 24.9216C18.623 24.3959 19.1829 23.8478 19.7092 23.3221Z" fill="#EF3900"/>
<path d="M13.4716 24.6419C13.3932 24.7426 13.2812 24.9663 13.1132 25.1341C10.3025 27.9529 7.48052 30.7717 4.65857 33.5905C4.61378 33.6352 4.58018 33.6688 4.53539 33.7135C4.19944 34.0155 3.8299 34.0379 3.57234 33.7695C3.29239 33.4898 3.31478 33.1319 3.63953 32.8075C4.56898 31.8679 5.50963 30.9283 6.45028 29.9887C8.36518 28.0648 10.2801 26.152 12.2062 24.2281C12.3069 24.1274 12.4077 24.0267 12.5197 23.9596C12.9452 23.7023 13.4716 24.0044 13.4716 24.6419Z" fill="#EF3900"/>
<path d="M15.7895 26.879C15.7111 26.9908 15.5992 27.2146 15.4312 27.3823C13.3035 29.5188 11.1647 31.6553 9.0258 33.7917C8.29792 34.5076 7.59243 35.2459 6.85335 35.9506C6.70777 36.0848 6.5062 36.219 6.31583 36.2414C5.85671 36.2973 5.50956 35.7604 5.72233 35.3465C5.77832 35.2235 5.8791 35.1228 5.97989 35.0222C8.83543 32.1698 11.7022 29.3063 14.5577 26.4539C14.6473 26.3644 14.7369 26.275 14.8489 26.219C15.252 25.9841 15.7671 26.2861 15.7895 26.879Z" fill="#EF3900"/>
</g>
<defs>
<clipPath id="clip0_271_2524">
<rect width="40" height="40" fill="white"/>
</clipPath>
</defs>
</svg>
