<svg width="32" height="32" viewBox="0 0 32 32" fill="none" xmlns="http://www.w3.org/2000/svg">
<path d="M31.2966 21.7339C31.1941 21.8527 31.1152 21.9952 30.989 22.0744C30.5867 22.32 30.1213 22.019 30.1213 21.5121C30.1134 20.6251 30.1213 19.7302 30.1213 18.8432C30.1213 18.7323 30.1213 18.6294 30.1213 18.5026C20.8138 18.5026 11.53 18.5026 2.19878 18.5026C2.19878 18.6452 2.19878 18.7878 2.19878 18.9382C2.19878 19.746 2.19878 20.5618 2.19878 21.3696C2.19878 21.8131 2.07258 22.0428 1.78073 22.1378C1.481 22.2328 1.25226 22.1061 1.01562 21.7418C1.01562 20.3955 1.01562 19.0491 1.01562 17.7027C1.20493 17.378 1.49678 17.283 1.85961 17.2909C2.81403 17.3068 3.76844 17.2988 4.73074 17.2909C4.86483 17.2909 5.00681 17.2672 5.12513 17.2038C8.23289 15.6357 11.3328 14.0676 14.4405 12.4995C14.4721 12.4836 14.5036 12.4599 14.5115 12.452C14.2985 12.2144 14.0777 11.9847 13.8726 11.7392C13.7464 11.5887 13.6518 11.4145 13.565 11.2323C13.4072 10.9076 13.5177 10.5671 13.8095 10.4166C14.1092 10.2661 14.4405 10.3691 14.6062 10.6938C14.8665 11.1848 15.2372 11.5174 15.7814 11.6441C16.7122 11.858 17.6587 11.2323 17.8086 10.2978C17.9663 9.29198 17.2801 8.38912 16.2941 8.30201C15.7105 8.25449 15.5606 8.08025 15.5527 7.50211C15.5527 7.02693 15.5527 6.55174 15.5527 6.0528C15.4265 6.02904 15.3003 5.99736 15.182 5.9736C13.1943 5.5301 11.7508 3.77983 11.6798 1.72862C11.6719 1.23759 11.8928 1 12.3976 1C14.898 1 17.4063 1 19.9067 1C20.4194 1 20.6403 1.23759 20.6166 1.7603C20.5141 3.89071 19.047 5.58553 16.9646 5.99736C16.8936 6.0132 16.8305 6.02904 16.7516 6.0528C16.7516 6.41711 16.7516 6.78141 16.7516 7.14572C19.181 7.7397 19.8594 10.8522 17.7534 12.4124C17.8322 12.4599 17.9032 12.4995 17.9742 12.5391C21.0268 14.0834 24.0793 15.6278 27.1319 17.1642C27.2739 17.2355 27.4474 17.2751 27.6051 17.2751C28.5517 17.283 29.4982 17.2909 30.4447 17.2751C30.8076 17.2672 31.0994 17.3622 31.2887 17.6869C31.2966 19.0412 31.2966 20.3875 31.2966 21.7339ZM24.6709 17.2751C24.5605 17.2117 24.521 17.18 24.4816 17.1642C21.7761 15.7941 19.0706 14.424 16.3572 13.0618C16.2468 13.0063 16.0496 13.0143 15.9313 13.0776C13.2653 14.4161 10.5992 15.7624 7.93316 17.1088C7.86217 17.1484 7.79118 17.1959 7.66498 17.2751C13.352 17.2751 18.9681 17.2751 24.6709 17.2751ZM12.9497 2.2038C13.0917 3.66895 14.6377 4.93611 16.2074 4.8886C17.7928 4.849 19.2757 3.57392 19.3546 2.2038C17.2249 2.2038 15.0952 2.2038 12.9497 2.2038Z" fill="#333333" stroke="#333333" stroke-width="0.5" stroke-miterlimit="10"/>
<path d="M1.00789 26.1294C1.07099 26.0502 1.11832 25.971 1.18931 25.8997C1.37072 25.7255 1.5758 25.67 1.81244 25.7651C2.07273 25.868 2.19105 26.074 2.19105 26.3432C2.19105 27.2144 2.19105 28.0856 2.19105 28.9567C2.19105 29.0835 2.19105 29.2102 2.19105 29.3686C11.4986 29.3686 20.7903 29.3686 30.1136 29.3686C30.1136 28.7033 30.1136 28.046 30.1136 27.3807C30.1136 27.056 30.1136 26.7313 30.1136 26.3987C30.1136 26.0423 30.2635 25.8205 30.5474 25.7413C30.8156 25.6621 31.0443 25.7651 31.2336 26.0581C31.2494 26.0819 31.2731 26.0977 31.2889 26.1215C31.2889 27.4678 31.2889 28.8142 31.2889 30.1605C31.1153 30.4853 30.8471 30.5803 30.4843 30.5803C20.9244 30.5724 11.3645 30.5724 1.80455 30.5803C1.44171 30.5803 1.17353 30.4853 1 30.1605C1.00789 28.8221 1.00789 27.4757 1.00789 26.1294Z" fill="#333333" stroke="#333333" stroke-width="0.5" stroke-miterlimit="10"/>
<path d="M1.00781 30.1685C1.18134 30.4932 1.44952 30.5882 1.81236 30.5882C11.3723 30.5803 20.9322 30.5803 30.4921 30.5882C30.855 30.5882 31.1231 30.4852 31.2967 30.1685C31.2967 30.4456 31.2967 30.7228 31.2967 31C21.2004 31 11.1041 31 1.00781 31C1.00781 30.7228 1.00781 30.4456 1.00781 30.1685Z" fill="white" stroke="#333333" stroke-width="0.5" stroke-miterlimit="10"/>
<path d="M1.00781 23.7534C1.15768 23.5317 1.33121 23.3258 1.63094 23.3495C1.89913 23.3654 2.13576 23.5792 2.1752 23.8485C2.22252 24.1019 2.08054 24.3633 1.84391 24.4741C1.59939 24.5929 1.30755 24.5217 1.13402 24.3078C1.08669 24.2445 1.04725 24.1811 1.00781 24.1177C1.00781 23.991 1.00781 23.8722 1.00781 23.7534Z" fill="#333333" stroke="#333333" stroke-width="0.5" stroke-miterlimit="10"/>
<path d="M31.2972 24.1097C31.1395 24.2444 31.0054 24.4345 30.824 24.5057C30.5637 24.6087 30.2718 24.4265 30.1614 24.1573C30.0589 23.9038 30.1377 23.6187 30.3665 23.4524C30.6031 23.2861 30.9107 23.3098 31.1158 23.5237C31.1789 23.595 31.2341 23.6742 31.2972 23.7534C31.2972 23.8722 31.2972 23.9909 31.2972 24.1097Z" fill="#333333" stroke="#333333" stroke-width="0.5" stroke-miterlimit="10"/>
<path d="M15.5605 23.9672C15.5605 22.9376 15.5605 21.9081 15.5605 20.8864C15.5605 20.4429 15.7735 20.1895 16.1442 20.1816C16.5228 20.1737 16.7437 20.435 16.7437 20.8943C16.7437 22.9297 16.7437 24.9651 16.7437 27.0005C16.7437 27.4281 16.515 27.7053 16.16 27.7132C15.7972 27.7212 15.5605 27.4361 15.5605 26.9926C15.5605 25.9788 15.5605 24.973 15.5605 23.9672Z" fill="#333333" stroke="#333333" stroke-width="0.5" stroke-miterlimit="10"/>
<path d="M5.33863 23.9594C5.33863 25.0048 5.34651 26.0581 5.33863 27.1035C5.33863 27.452 5.09411 27.6975 4.7786 27.7133C4.46309 27.7292 4.21068 27.4916 4.17124 27.1431C4.16335 27.0481 4.16335 26.9451 4.16335 26.8501C4.16335 25.1473 4.16335 23.4446 4.16335 21.7419C4.16335 21.4092 4.14758 21.0687 4.17124 20.736C4.19491 20.4113 4.42365 20.1975 4.72338 20.1817C5.00734 20.1658 5.25975 20.3401 5.32285 20.6093C5.34651 20.7202 5.34651 20.8469 5.34651 20.9657C5.33863 21.9557 5.33863 22.9536 5.33863 23.9594Z" fill="#333333" stroke="#333333" stroke-width="0.5" stroke-miterlimit="10"/>
<path d="M11.7666 23.9356C11.7666 22.9457 11.7666 21.9557 11.7666 20.9657C11.7666 20.8707 11.7587 20.7677 11.7745 20.6727C11.8218 20.4034 11.9875 20.2292 12.2635 20.1896C12.5396 20.15 12.792 20.2846 12.8867 20.5301C12.934 20.6489 12.9498 20.7836 12.9498 20.9103C12.9498 22.9377 12.9498 24.9731 12.9498 27.0006C12.9498 27.056 12.9498 27.1194 12.9419 27.1748C12.8946 27.4995 12.6422 27.7292 12.3424 27.7213C12.0269 27.7133 11.7745 27.4599 11.7745 27.1194C11.7666 26.0502 11.7666 24.9969 11.7666 23.9356Z" fill="#333333" stroke="#333333" stroke-width="0.5" stroke-miterlimit="10"/>
<path d="M20.5377 23.9356C20.5377 24.9572 20.5377 25.9789 20.5377 26.9926C20.5377 27.4282 20.3168 27.7054 19.9618 27.7054C19.599 27.7133 19.3545 27.4282 19.3545 26.9847C19.3545 24.9414 19.3545 22.906 19.3545 20.8627C19.3545 20.4905 19.5201 20.245 19.8041 20.1816C20.2064 20.0866 20.5298 20.3638 20.5298 20.8073C20.5455 21.8606 20.5377 22.8981 20.5377 23.9356Z" fill="#333333" stroke="#333333" stroke-width="0.5" stroke-miterlimit="10"/>
<path d="M26.9668 23.9355C26.9668 22.9534 26.9668 21.9793 26.9668 20.9973C26.9668 20.9022 26.9668 20.7993 26.9747 20.7042C27.0063 20.4191 27.2192 20.2132 27.4953 20.1895C27.7871 20.1657 28.0317 20.3162 28.1105 20.5934C28.1421 20.7042 28.15 20.831 28.15 20.9418C28.15 22.9534 28.15 24.9571 28.15 26.9688C28.15 27.04 28.15 27.1113 28.1421 27.1747C28.0948 27.4994 27.8424 27.7291 27.5426 27.7211C27.2271 27.7132 26.9747 27.4677 26.9747 27.1192C26.9589 26.0501 26.9668 24.9967 26.9668 23.9355Z" fill="#333333" stroke="#333333" stroke-width="0.5" stroke-miterlimit="10"/>
<path d="M9.1485 23.9356C9.1485 24.9573 9.1485 25.971 9.1485 26.9926C9.1485 27.4045 8.98286 27.6341 8.65946 27.6975C8.36762 27.7529 8.07577 27.5708 7.9969 27.2857C7.98112 27.2223 7.97323 27.151 7.97323 27.0798C7.97323 24.9889 7.96534 22.906 7.97323 20.8152C7.97323 20.4034 8.22564 20.1658 8.58847 20.1817C8.91976 20.1975 9.14061 20.4351 9.1485 20.8232C9.15639 21.3538 9.1485 21.8923 9.1485 22.4229C9.1485 22.9298 9.1485 23.4288 9.1485 23.9356Z" fill="#333333" stroke="#333333" stroke-width="0.5" stroke-miterlimit="10"/>
<path d="M23.1562 23.9593C23.1562 22.9298 23.1562 21.9002 23.1562 20.8706C23.1562 20.4271 23.385 20.1737 23.7478 20.1737C24.0397 20.1737 24.2763 20.3717 24.3236 20.6647C24.3394 20.7756 24.3394 20.8786 24.3394 20.9894C24.3394 22.9456 24.3394 24.9097 24.3394 26.8659C24.3394 26.9768 24.3394 27.0876 24.3236 27.1906C24.2842 27.4836 24.0476 27.6975 23.7636 27.7054C23.4796 27.7133 23.2272 27.5074 23.1799 27.2223C23.1563 27.1035 23.1562 26.9847 23.1562 26.8659C23.1562 25.8997 23.1562 24.9335 23.1562 23.9593Z" fill="#333333" stroke="#333333" stroke-width="0.5" stroke-miterlimit="10"/>
</svg>
